/* XPM */
static char *_ae67392b84643cb81bfad3589ab0ce6mAnU6DYNuQi0AT7v[] = {
/* columns rows colors chars-per-pixel */
"32 32 129 2 ",
"   c None",
".  c black",
"X  c #02020A",
"o  c #130000",
"O  c #060710",
"+  c #050810",
"@  c #080811",
"#  c #0E121B",
"$  c #3C1700",
"%  c #3E1A00",
"&  c #271B17",
"*  c #2D282C",
"=  c #4C3800",
"-  c #503522",
";  c #543E30",
":  c #554006",
">  c #554009",
",  c #554715",
"<  c #5F4E29",
"1  c #5B4435",
"2  c #5F4838",
"3  c #5F5030",
"4  c #60502F",
"5  c #614838",
"6  c #3B3A43",
"7  c #383948",
"8  c #604E40",
"9  c #675346",
"0  c #6A5442",
"q  c #6A5843",
"w  c #715E4A",
"e  c #665D53",
"r  c #766455",
"t  c #7B6A56",
"y  c #57626E",
"u  c #716B6C",
"i  c #777061",
"p  c #646672",
"a  c #6E6B77",
"s  c #6C6D79",
"d  c #706E78",
"f  c #767377",
"g  c #707079",
"h  c #836F5B",
"j  c #86715D",
"k  c #8E7969",
"l  c #857777",
"z  c #8F7973",
"x  c #987E7A",
"c  c #7E7881",
"v  c #807981",
"b  c #917E8D",
"n  c #8D8284",
"m  c #8F828A",
"M  c #998F85",
"N  c #91858A",
"B  c #948A8C",
"V  c #998F8D",
"C  c #989286",
"Z  c #96918C",
"A  c #99908D",
"S  c #9D9392",
"D  c #9E9892",
"F  c #A38B8D",
"G  c #A7908E",
"H  c #AF9D8D",
"J  c #A38E9B",
"K  c #A49496",
"L  c #AC9593",
"P  c #A19B94",
"I  c #A69498",
"U  c #AB969B",
"Y  c #A29D9C",
"T  c #B39995",
"R  c #B49A9A",
"E  c #A6A09D",
"W  c #ABA49B",
"Q  c #AD9BA3",
"!  c #ADA6A2",
"~  c #AEA9AC",
"^  c #B4A7A3",
"/  c #BCA1A5",
"(  c #B2ABA1",
")  c #B8A9A5",
"_  c #BDA3A9",
"`  c #B0ABAE",
"'  c #B8B2AC",
"]  c #BAB5B2",
"[  c #BCB8B7",
"{  c #BBB8BA",
"}  c #C0A4A7",
"|  c #C4A8A7",
" . c #C3A7AC",
".. c #C4ABAC",
"X. c #C9AFAB",
"o. c #CCB0AE",
"O. c #D2BAA7",
"+. c #D5BDAB",
"@. c #C6ABB0",
"#. c #CBAEB2",
"$. c #CCB3B2",
"%. c #D0B4B0",
"&. c #D8BEB0",
"*. c #DAC4A7",
"=. c #DFC9A2",
"-. c #D4C6AD",
";. c #D9C2AA",
":. c #E3CFA5",
">. c #E3CEAF",
",. c #E6D2A4",
"<. c #E9D5A4",
"1. c #EBD8A6",
"2. c #E6D2AD",
"3. c #E8D7AB",
"4. c #EAD9AE",
"5. c #EBDBB3",
"6. c #E6D5BB",
"7. c #EFE1B4",
"8. c #EEE2BD",
"9. c #EEE2BC",
"0. c #EEE3BE",
"q. c #ECE0BD",
"w. c #EFE4BE",
"e. c #EFE4BF",
"r. c #EEE1BA",
"t. c #F1E7BF",
"y. c #F2E7BF",
"u. c #F2E8BF",
"i. c #EFE4C0",
/* pixels */
"                                                                ",
"                                                                ",
"                                                                ",
"                          r j t h                               ",
"                        p I  ./ } N y                           ",
"                      s J O.>.6.6.$.b y                         ",
"                    c Q O.2.7.t.u.6.$.m                         ",
"                  d Q %.,.5.8.8.8.t.6.| k                       ",
"                4 G @.X.:.,.4.8.8.w.5.=.X.z ,                   ",
"                3 R #.X.:.,.4.i.8.8.r.5.$.x =                   ",
"                < L ..X.:.,.3.5.8.8.w.8.;.H i                   ",
"                q C ^ X.:.,.,.,.r.8.8.r.1.-.E                   ",
"              1 n B I o.:.,.,.<.8.8.8.8.<.+.F $                 ",
"              5 n N I o.,.<.,.,.3.r.r.3.<.&.L >                 ",
"              q A B K ..;.:.<.,.,.5.5.,.<.+.U e                 ",
"              t W S A W _ ;.,.,.,.,.,.,.<.+.Q s                 ",
"              t W S m S ....+.<.,.,.,.,.<.+.Q s                 ",
"              t W W S N K _ o.+.,.<.<.,.+.$.R e                 ",
"              w Z W W A n I _ ..;.*.*.;...#.T :                 ",
"              ; p S ( W V n K .. . . . ...#.F %                 ",
"        O + . * a D ' { W V N S ........$.Q a                   ",
"      @ @ @ X # 6 f Y ] [ ! V B ^ ..#...Q v                     ",
"      @ @ @ @ X . 7 u M ` ] ! B P ) ..I g                       ",
"      @ @ @ @ @ @ . o - l ~ ~ n n P Z p                         ",
"        @ @ @ @ @ O X & 1 9 9 2 5 0 8                           ",
"                                                                ",
"                                                                ",
"                                                                ",
"                                                                ",
"                                                                ",
"                                                                ",
"                                                                "
};
