/* XPM */
static char *_c1dd616c82b4bc49e457ebac88779e8kMFrSCPRZU35hdqc[] = {
/* columns rows colors chars-per-pixel */
"24 24 12 1 ",
"  c None",
". c #6A5941",
"X c #73717B",
"o c #C5AAAC",
"O c #E6D2A4",
"+ c #EEE2BD",
"@ c #ACA59C",
"# c #523820",
"$ c #94898B",
"% c #080810",
"& c #BDBABD",
"* c white",
/* pixels */
"                        ",
"                        ",
"          ...           ",
"         XoooX          ",
"        XoO++oX         ",
"       XoO++++o.        ",
"      .ooOO+++Oo.       ",
"      .ooOO++++o.       ",
"      .@oOOO+++O@       ",
"     #$$oOOO+++Oo#      ",
"     #$$oOOOO+OOo.      ",
"     .@$@oOOOOOOoX      ",
"     .@$$ooOOOOOoX      ",
"     .@@$$ooOOOoo.      ",
"     #X@@$$oooooo#      ",
"   %%%X@&@$$ooooX       ",
"  %%%%%X@&@$@ooX        ",
"  %%%%%%#$&$$@X         ",
"   %%%%%%#####          ",
"                        ",
"                        ",
"                        ",
"                        ",
"                        "
};
