/* XPM */
static char *c93f0c3f490a47d7feed5de3f68ecba497FJTfaQ2ddUI7kR[] = {
/* columns rows colors chars-per-pixel */
"32 32 6 1 ",
"  c #11041F",
". c #0E1534",
"X c #20374B",
"o c #374744",
"O c #546963",
"+ c #7A9C83",
/* pixels */
"oOO+++++OooOOOO     ...XXooooX.X",
".XooO+++++++OOo  .XooooooooXXooX",
"....XooOO++OOo.  XXooooooooooooo",
".     ..XXXX.... oXXXooooooooooo",
"..       ....X...Ooooooooooooooo",
"...XoooooooX.XX..O++OooooOOOOOOo",
"XoooooooooooXXX..XO++++++++OOoX.",
"XooooooooooooXXX..oO+++OOOOoX.XX",
"XXooooooooooo.XXX..oOOOOooX.oooo",
"ooooooooooooo..XX...XoooX..Xoooo",
"oooooooooOOOo........    .Xooooo",
"ooooooOOOOOoXX.XoooooX.   oOOOoo",
"OOOOOOOOOoX.XooooooXXooX  oO+++O",
"++++OOOOo..Xoooooooooooo. .oO+++",
"ooooooX...Xooooooooooooo.  .XXoo",
"...  .  .XoOoooooooooooo.    ...",
"X...    oOOooooooooooOOX.   XXXX",
"oooX.   OOOoooooOOOOOOo..Xoooooo",
"oooooX  O++OOOOOOOOOOo..Xooooooo",
"ooooooX.oO+++++++OOoX.  oooooooo",
"ooooOOO..ooOOOOooX.    .oOOooooo",
"oooOOOo...........    ...oOOOOoo",
"+OOOoo.XXX.....XoooooooX..o+++++",
"OOXX....XXXXX.XooooooooXXX.oO+++",
"XXXooooX......ooooooooXXoooXXXXX",
"ooXXXoooooX...oooooooooooooo. Xo",
"oooooXooooooX.Xooooooooooooo  oo",
"oooooooooooooX.oOooooooooooo  oo",
"oooooooooooooo.XOOooooooooOO  oo",
"ooooooooooooooX.oO+OooooOOOo  oo",
"OOoooooooooooOo .oO++++OOOo.  XO",
"OOOOOooooooooOO   XoOOOOoX.....o"
};
