/* XPM */
static char *_f3f89e14cc54c5af105dd72f9b283b8CecTKKM6p6DcHic8[] = {
/* columns rows colors chars-per-pixel */
"48 48 3 1 ",
"  c #1A0000",
". c #301020",
"X c #520000",
/* pixels */
"                                                ",
"                                                ",
"                                                ",
"                                                ",
"                                                ",
"                                                ",
"   XXXXXX                                       ",
"   XXXXXX                                       ",
"   XXXXXX                                       ",
"   XXXXXX         ...                           ",
"   XXXXXX         ...                           ",
"   XXXXXX         ...                           ",
"                                                ",
"                                                ",
"                                                ",
"         ...                                    ",
"         ...                                    ",
"         ...                                    ",
"                  ......                        ",
"                  ......                        ",
"                  ......                        ",
"                  ......                        ",
"                  ......                        ",
"                  ......                        ",
"                                                ",
"                                                ",
"                                                ",
"                                                ",
"                                                ",
"                                                ",
"                                                ",
"                                                ",
"                                                ",
"                                    ...         ",
"                                    ...         ",
"                                    ...         ",
"                                                ",
"                                                ",
"                                                ",
"                           XXX                  ",
"                           XXX                  ",
"                           XXX                  ",
"                                       XXX      ",
"                                       XXX      ",
"                                       XXX      ",
"                                                ",
"                                                ",
"                                                "
};
