/* XPM */
static char *_8c072eb15f84d4d8248429f69c0cdb9nVK08v5scFS9CLiv[] = {
/* columns rows colors chars-per-pixel */
"48 48 11 1 ",
"  c None",
". c #00A4FF",
"X c white",
"o c #70581B",
"O c #FFF4D8",
"+ c #FFCC4B",
"@ c black",
"# c #DF7126",
"$ c #6C330D",
"% c #40310C",
"& c #D3A635",
/* pixels */
"                                                ",
"                                                ",
"                                                ",
"                                                ",
"                                                ",
"                                                ",
"                                                ",
"                                                ",
"                                                ",
"                                                ",
"                                                ",
"                                                ",
"                                                ",
"                                                ",
"                                                ",
"                                                ",
"                                                ",
"                                                ",
"                                                ",
"                                                ",
"                                                ",
"                                                ",
"                                                ",
"                       XXXX                     ",
"                .....XXooooXX...                ",
"                ....XooOOOOooX..                ",
"                ...XoOO++++OOoX.                ",
"                ..XoO++++++++OoX                ",
"                ..Xo++@X++++++oX                ",
"                ..Xo++@@++++++oX                ",
"                ..Xo++@@++++##$X                ",
"                ..Xo+++++++####$X               ",
"                ..X%&++++++&&&%X                ",
"                .XXX%&++++++&%X.                ",
"                X%%XX%&&&&&&%X..                ",
"               X%&&%%&&&&&&&&%X.                ",
"               Xo&++++++&&&&&&%X                ",
"               Xo++++++++++&&&%X                ",
"               Xo+++++++++++++oX                ",
"               Xo+++++++&+++++oX                ",
"               X%%&++++&&++++&%X                ",
"                X%%&&&&&&&&&&%%X                ",
"                .X%%%%%%%%%%%%X.                ",
"                ..X%%%%%%%%%%X..                ",
"                ...X$$XXXX$$X...                ",
"                ...X##X..X$$X...                ",
"                ...X###X.X$$$X..                ",
"                    XXX   XXX                   "
};
