/* XPM */
static char *bd007351c114467ef392229a144f1ff3smn86Y2Gsnw1Ob8j[] = {
/* columns rows colors chars-per-pixel */
"48 48 46 1 ",
"  c black",
". c white",
"X c white",
"o c None",
"O c #BFBAAE",
"+ c white",
"@ c #CEBBAE",
"# c #F4D0B7",
"$ c white",
"% c #B8AC8D",
"& c #70581B",
"* c #B8A983",
"= c #B8A67A",
"- c #FFF4D8",
"; c #FFE092",
": c #FFCC4B",
"> c #DBC386",
", c #FFD66E",
"< c #808080",
"1 c black",
"2 c gray25",
"3 c #B69986",
"4 c #6C330D",
"5 c #DF7126",
"6 c #AE7650",
"7 c #A6521A",
"8 c #EF9F39",
"9 c #F7B542",
"0 c #806626",
"q c #A09886",
"w c #40310C",
"e c #D3A635",
"r c #E9B940",
"t c #8A6C21",
"y c #AE892B",
"u c #F4C346",
"i c #B99230",
"p c #CFCCC2",
"a c #958253",
"s c #A27F28",
"d c #DEB03B",
"f c #AD892E",
"g c #B89233",
"h c #706549",
"j c #EFB893",
"k c white",
/* pixels */
"                                                ",
"                                                ",
"                                                ",
"                                                ",
"                                                ",
"                                                ",
"                                                ",
"                                                ",
"                                                ",
"                                                ",
"                   .XXXXX.                      ",
"                   X$$$$$X                      ",
"                X$$%&&&&&%$$X                   ",
"               Xo%%*=====*%%oX                  ",
"               $%&&=-----=&&%$                  ",
"             X$&=--;:::::;--=&$X                ",
"            Xo%=>;;,:::::,;;>=%oX               ",
"            $%&-;:::::::::::;-&%$               ",
"            $%&:::::::::$<1:::&%$               ",
"            $%&:::::::::<21:::&%$               ",
"            $%&:::::::::111:::&%$               ",
"            $34555::::::111:::&%$               ",
"          .X36755589::::000:::&%$               ",
"          X$47555558::::::::::&%$               ",
"            $qweeeer::::::::rewq$               ",
"            XOqtyeru:::::::ritqp$X.             ",
"             X$wte:::::::::etw$$$$X             ",
"               $qweeeeeeeeewq$$qwwq$            ",
"             .XqateeeeeeeeetaqqattaqX.          ",
"             X$wteeeeeeeeeeetwwteetw$X          ",
"            $qweeeeeeeee:::::::::es&$X          ",
"            $qweeeedrrrr:::::::::rf&$X          ",
"            $qweeeer::::::::::::::g&$X          ",
"            $%&:::::::::::::::::::g&$X          ",
"            $%&:::::::ur::::::::::g&$X          ",
"            $%&:::::::re::::::::::g&$X          ",
"            $qwer:::::reer:::::rewww$X          ",
"            $qwtirrrrrdeedrrrrritwhqX.          ",
"            $qwwteeeeeeeeeeeeeetwwq$            ",
"             X$wwwwwwwwwwwwwwwwww$X             ",
"             .XqhwwwwwwwwwwwwwwhqX.             ",
"               $qwwwwwwwwwwwwwwq$               ",
"                X$444$$$$$$444$X                ",
"                X$444$+XX+$777$X                ",
"                X$444$X  X$555$X                ",
"               $34444$X $j5555$X                ",
"               X@3333X. X#jjjjX.                ",
"                X$$$$    X$$$$                  "
};
