/* XPM */
static char *f0688f30603b4bedaf34a9dbc8341788zEWMT4QGcKvpXgpZ[] = {
/* columns rows colors chars-per-pixel */
"48 48 7 1 ",
"  c #C0CBDC",
". c #763B36",
"X c #BD6C4A",
"o c #52607C",
"O c #8B9BB4",
"+ c #3F2631",
"@ c #262B44",
/* pixels */
"oooooo@@@@@@@@@@@@@@@@@@@@@@@@@@@@@@@@@@@@oooooo",
"oooooo@@@@@@@@@@@@@@@@@@@@@@@@@@@@@@@@@@@@oooooo",
"oooooo@@@@@@@@@@@@@@@@@@@@@@@@@@@@@@@@@@@@oooooo",
"OOO@@@@@@@@@@@@@@@@@@@@@@@@@@@@@@@@@@@@@@@@@@OOO",
"OOO@@@@@@@@@@@@@@@@@@@@@@@@@@@@@@@@@@@@@@@@@@OOO",
"OOO@@@@@@@@@@@@@@@@@@@@@@@@@@@@@@@@@@@@@@@@@@OOO",
"@@@@@@@@@OOOOOOOOOOOOooooooOOOOOOOOOOOO@@@@@@@@@",
"@@@@@@@@@OOOOOOOOOOOOooooooOOOOOOOOOOOO@@@@@@@@@",
"@@@@@@@@@OOOOOOOOOOOOooooooOOOOOOOOOOOO@@@@@@@@@",
"@@@@@@OOOooo++++++++++++++++++OOOOOOoooOOO@@@@@@",
"@@@@@@OOOooo++++++++++++++++++OOOOOOoooOOO@@@@@@",
"@@@@@@OOOooo++++++++++++++++++OOOOOOoooOOO@@@@@@",
"@@@@@@OOO++++++++++++++++++++++++@@@OOOOOO@@@@@@",
"@@@@@@OOO++++++++++++++++++++++++@@@OOOOOO@@@@@@",
"@@@@@@OOO++++++++++++++++++++++++@@@OOOOOO@@@@@@",
"@@@@@@OOO++++++...XXXXXX...+++@@@@@@OOOOOO@@@@@@",
"@@@@@@OOO++++++...XXXXXX...+++@@@@@@OOOOOO@@@@@@",
"@@@@@@OOO++++++...XXXXXX...+++@@@@@@OOOOOO@@@@@@",
"@@@@@@   ++++++XXX......XXX@@@+++@@@      @@@@@@",
"@@@@@@   ++++++XXX......XXX@@@+++@@@      @@@@@@",
"@@@@@@   ++++++XXX......XXX@@@+++@@@      @@@@@@",
"@@@oooooo++++++XXX......XXX+++@@@@@@ooooooooo@@@",
"@@@oooooo++++++XXX......XXX+++@@@@@@ooooooooo@@@",
"@@@oooooo++++++XXX......XXX+++@@@@@@ooooooooo@@@",
"@@@oooooo++++++XXX......XXX@@@+++@@@ooooooooo@@@",
"@@@oooooo++++++XXX......XXX@@@+++@@@ooooooooo@@@",
"@@@oooooo++++++XXX......XXX@@@+++@@@ooooooooo@@@",
"@@@@@@OOO++++++XXX...OOOXXX+++@@@@@@OOOOOO@@@@@@",
"@@@@@@OOO++++++XXX...OOOXXX+++@@@@@@OOOOOO@@@@@@",
"@@@@@@OOO++++++XXX...OOOXXX+++@@@@@@OOOOOO@@@@@@",
"@@@@@@OOO++++++XXX...OOOXXX@@@+++@@@OOOOOO@@@@@@",
"@@@@@@OOO++++++XXX...OOOXXX@@@+++@@@OOOOOO@@@@@@",
"@@@@@@OOO++++++XXX...OOOXXX@@@+++@@@OOOOOO@@@@@@",
"@@@@@@   ++++++XXX...+++XXX+++@@@@@@      @@@@@@",
"@@@@@@   ++++++XXX...+++XXX+++@@@@@@      @@@@@@",
"@@@@@@   ++++++XXX...+++XXX+++@@@@@@      @@@@@@",
"@@@oooooo++++++XXX......XXX@@@@@@@@@ooooooooo@@@",
"@@@oooooo++++++XXX......XXX@@@@@@@@@ooooooooo@@@",
"@@@oooooo++++++XXX......XXX@@@@@@@@@ooooooooo@@@",
"@@@oooooo++++++XXX...XXX@@@@@@@@@@@@ooooooooo@@@",
"@@@oooooo++++++XXX...XXX@@@@@@@@@@@@ooooooooo@@@",
"@@@oooooo++++++XXX...XXX@@@@@@@@@@@@ooooooooo@@@",
"@@@@@@OOO++++++XXXXXX@@@@@@@@@@@@@@@OOOOOO@@@@@@",
"@@@@@@OOO++++++XXXXXX@@@@@@@@@@@@@@@OOOOOO@@@@@@",
"@@@@@@OOO++++++XXXXXX@@@@@@@@@@@@@@@OOOOOO@@@@@@",
"@@@@@@OOO++++++XXX@@@@@@@@@@@@@@@@@@OOOOOO@@@@@@",
"@@@@@@OOO++++++XXX@@@@@@@@@@@@@@@@@@OOOOOO@@@@@@",
"@@@@@@OOO++++++XXX@@@@@@@@@@@@@@@@@@OOOOOO@@@@@@"
};
