/* XPM */
static char *c2f336a8de6d4873e955222f845cad1eka4ffWlaJ0Fvvod7[] = {
/* columns rows colors chars-per-pixel */
"48 48 7 1 ",
"  c #C0CBDC",
". c #52607C",
"X c #BD6C4A",
"o c #8B9BB4",
"O c #763B36",
"+ c #3F2631",
"@ c #262B44",
/* pixels */
"......@@@@@@@@@@@@@@@@@@@@@@@@@@@@@@@@@@@@......",
"......@@@@@@@@@@@@@@@@@@@@@@@@@@@@@@@@@@@@......",
"......@@@@@@@@@@@@@@@@@@@@@@@@@@@@@@@@@@@@......",
"ooo@@@@@@@@@@@@@@@@@@@@@@@@@@@@@@@@@@@@@@@@@@ooo",
"ooo@@@@@@@@@@@@@@@@@@@@@@@@@@@@@@@@@@@@@@@@@@ooo",
"ooo@@@@@@@@@@@@@@@@@@@@@@@@@@@@@@@@@@@@@@@@@@ooo",
"@@@@@@@@@oooooooooooo......oooooooooooo@@@@@@@@@",
"@@@@@@@@@oooooooooooo......oooooooooooo@@@@@@@@@",
"@@@@@@@@@oooooooooooo......oooooooooooo@@@@@@@@@",
"@@@@@@ooo...++++++++++++++++++++++++...ooo@@@@@@",
"@@@@@@ooo...++++++++++++++++++++++++...ooo@@@@@@",
"@@@@@@ooo...++++++++++++++++++++++++...ooo@@@@@@",
"@@@@@@ooo++++++++++++++++++++++++++++++ooo@@@@@@",
"@@@@@@ooo++++++++++++++++++++++++++++++ooo@@@@@@",
"@@@@@@ooo++++++++++++++++++++++++++++++ooo@@@@@@",
"@@@@@@ooo++++++OOOXXXXXXXXXXXXOOO++++++ooo@@@@@@",
"@@@@@@ooo++++++OOOXXXXXXXXXXXXOOO++++++ooo@@@@@@",
"@@@@@@ooo++++++OOOXXXXXXXXXXXXOOO++++++ooo@@@@@@",
"@@@@@@   ++++++XXXOOOOOOOOOOOOXXX++++++   @@@@@@",
"@@@@@@   ++++++XXXOOOOOOOOOOOOXXX++++++   @@@@@@",
"@@@@@@   ++++++XXXOOOOOOOOOOOOXXX++++++   @@@@@@",
"@@@......++++++XXXOOOOOOOOOOOOXXX++++++......@@@",
"@@@......++++++XXXOOOOOOOOOOOOXXX++++++......@@@",
"@@@......++++++XXXOOOOOOOOOOOOXXX++++++......@@@",
"@@@......++++++XXXOOOOOOOOOOOOXXX++++++......@@@",
"@@@......++++++XXXOOOOOOOOOOOOXXX++++++......@@@",
"@@@......++++++XXXOOOOOOOOOOOOXXX++++++......@@@",
"@@@@@@ooo++++++XXXOOOOOOOOOOOOXXX++++++ooo@@@@@@",
"@@@@@@ooo++++++XXXOOOOOOOOOOOOXXX++++++ooo@@@@@@",
"@@@@@@ooo++++++XXXOOOOOOOOOOOOXXX++++++ooo@@@@@@",
"@@@@@@ooo++++++XXXOOOooooooOOOXXX++++++ooo@@@@@@",
"@@@@@@ooo++++++XXXOOOooooooOOOXXX++++++ooo@@@@@@",
"@@@@@@ooo++++++XXXOOOooooooOOOXXX++++++ooo@@@@@@",
"@@@@@@   ++++++XXXOOOooooooOOOXXX++++++   @@@@@@",
"@@@@@@   ++++++XXXOOOooooooOOOXXX++++++   @@@@@@",
"@@@@@@   ++++++XXXOOOooooooOOOXXX++++++   @@@@@@",
"@@@......++++++XXXOOO++++++OOOXXX++++++......@@@",
"@@@......++++++XXXOOO++++++OOOXXX++++++......@@@",
"@@@......++++++XXXOOO++++++OOOXXX++++++......@@@",
"@@@......++++++XXXOOOOOOOOOOOOXXX++++++......@@@",
"@@@......++++++XXXOOOOOOOOOOOOXXX++++++......@@@",
"@@@......++++++XXXOOOOOOOOOOOOXXX++++++......@@@",
"@@@@@@ooo++++++XXXOOOOOOOOOOOOXXX++++++ooo@@@@@@",
"@@@@@@ooo++++++XXXOOOOOOOOOOOOXXX++++++ooo@@@@@@",
"@@@@@@ooo++++++XXXOOOOOOOOOOOOXXX++++++ooo@@@@@@",
"@@@@@@ooo++++++XXXXXXXXXXXXXXXXXX++++++ooo@@@@@@",
"@@@@@@ooo++++++XXXXXXXXXXXXXXXXXX++++++ooo@@@@@@",
"@@@@@@ooo++++++XXXXXXXXXXXXXXXXXX++++++ooo@@@@@@"
};
