/* XPM */
static char *_e335cb3c95640c2d4f447756c807e0bJebhwSX2exqzSW71[] = {
/* columns rows colors chars-per-pixel */
"48 48 6 1 ",
"  c #C0CBDC",
". c #BD6C4A",
"X c #52607C",
"o c #8B9BB4",
"O c #3F2631",
"+ c #262B44",
/* pixels */
"XXXXXX++++++++++++++++++++++++++++++++++++XXXXXX",
"XXXXXX++++++++++++++++++++++++++++++++++++XXXXXX",
"XXXXXX++++++++++++++++++++++++++++++++++++XXXXXX",
"ooo++++++++++++++++++++++++++++++++++++++++++ooo",
"ooo++++++++++++++++++++++++++++++++++++++++++ooo",
"ooo++++++++++++++++++++++++++++++++++++++++++ooo",
"+++++++++ooooooooooooXXXXXXoooooooooooo+++++++++",
"+++++++++ooooooooooooXXXXXXoooooooooooo+++++++++",
"+++++++++ooooooooooooXXXXXXoooooooooooo+++++++++",
"++++++oooXXXOOOOOOOOOXXXXXXoooooooooXXXooo++++++",
"++++++oooXXXOOOOOOOOOXXXXXXoooooooooXXXooo++++++",
"++++++oooXXXOOOOOOOOOXXXXXXoooooooooXXXooo++++++",
"++++++oooOOOOOOOOOOOOOOO++++++++++++oooooo++++++",
"++++++oooOOOOOOOOOOOOOOO++++++++++++oooooo++++++",
"++++++oooOOOOOOOOOOOOOOO++++++++++++oooooo++++++",
"++++++oooOOOOOO...OOOOOO++++++++++++oooooo++++++",
"++++++oooOOOOOO...OOOOOO++++++++++++oooooo++++++",
"++++++oooOOOOOO...OOOOOO++++++++++++oooooo++++++",
"++++++   OOOOOO...OOOOOO++++++++++++      ++++++",
"++++++   OOOOOO...OOOOOO++++++++++++      ++++++",
"++++++   OOOOOO...OOOOOO++++++++++++      ++++++",
"+++XXXXXXOOOOOO...OOOOOO++++++++++++XXXXXXXXX+++",
"+++XXXXXXOOOOOO...OOOOOO++++++++++++XXXXXXXXX+++",
"+++XXXXXXOOOOOO...OOOOOO++++++++++++XXXXXXXXX+++",
"+++XXXXXXOOOOOO...OOOOOO++++++++++++XXXXXXXXX+++",
"+++XXXXXXOOOOOO...OOOOOO++++++++++++XXXXXXXXX+++",
"+++XXXXXXOOOOOO...OOOOOO++++++++++++XXXXXXXXX+++",
"++++++oooOOOOOO...OOOOOOOOO+++++++++oooooo++++++",
"++++++oooOOOOOO...OOOOOOOOO+++++++++oooooo++++++",
"++++++oooOOOOOO...OOOOOOOOO+++++++++oooooo++++++",
"++++++oooOOOOOO...oooOOOOOO+++++++++oooooo++++++",
"++++++oooOOOOOO...oooOOOOOO+++++++++oooooo++++++",
"++++++oooOOOOOO...oooOOOOOO+++++++++oooooo++++++",
"++++++   OOOOOO...oooOOOOOO+++++++++      ++++++",
"++++++   OOOOOO...oooOOOOOO+++++++++      ++++++",
"++++++   OOOOOO...oooOOOOOO+++++++++      ++++++",
"+++XXXXXXOOOOOO...OOOOOOOOO+++++++++XXXXXXXXX+++",
"+++XXXXXXOOOOOO...OOOOOOOOO+++++++++XXXXXXXXX+++",
"+++XXXXXXOOOOOO...OOOOOOOOO+++++++++XXXXXXXXX+++",
"+++XXXXXXOOOOOO...OOOOOO++++++++++++XXXXXXXXX+++",
"+++XXXXXXOOOOOO...OOOOOO++++++++++++XXXXXXXXX+++",
"+++XXXXXXOOOOOO...OOOOOO++++++++++++XXXXXXXXX+++",
"++++++oooOOOOOO...OOOOOO++++++++++++oooooo++++++",
"++++++oooOOOOOO...OOOOOO++++++++++++oooooo++++++",
"++++++oooOOOOOO...OOOOOO++++++++++++oooooo++++++",
"++++++oooOOOOOO...OOOOOO++++++++++++oooooo++++++",
"++++++oooOOOOOO...OOOOOO++++++++++++oooooo++++++",
"++++++oooOOOOOO...OOOOOO++++++++++++oooooo++++++"
};
