/* XPM */
static char *bff78ff346c24be2e0175a69e6949686azV64kUahkNMc55S[] = {
/* columns rows colors chars-per-pixel */
"48 48 3 1 ",
"  c #C0CBDC",
". c #52607C",
"X c #8B9BB4",
/* pixels */
"................................................",
"................................................",
"................................................",
"XXXXXXXXXXXXXXXXXX...XXX            XXX...XXXXXX",
"XXXXXXXXXXXXXXXXXX...XXX            XXX...XXXXXX",
"XXXXXXXXXXXXXXXXXX...XXX            XXX...XXXXXX",
"XXXXXXXXXXXXXXXXXX...XXXXXXXXXXXXXXXXXX...XXXXXX",
"XXXXXXXXXXXXXXXXXX...XXXXXXXXXXXXXXXXXX...XXXXXX",
"XXXXXXXXXXXXXXXXXX...XXXXXXXXXXXXXXXXXX...XXXXXX",
"XXXXXXXXXXXXXXXXXX...XXXXXXXXXXXXXXXXXX...XXXXXX",
"XXXXXXXXXXXXXXXXXX...XXXXXXXXXXXXXXXXXX...XXXXXX",
"XXXXXXXXXXXXXXXXXX...XXXXXXXXXXXXXXXXXX...XXXXXX",
"................................................",
"................................................",
"................................................",
"      XXX...XXXXXXXXXXXXXXXXXX...XXX            ",
"      XXX...XXXXXXXXXXXXXXXXXX...XXX            ",
"      XXX...XXXXXXXXXXXXXXXXXX...XXX            ",
"XXXXXXXXX...XXXXXXXXXXXXXXXXXX...XXXXXXXXXXXXXXX",
"XXXXXXXXX...XXXXXXXXXXXXXXXXXX...XXXXXXXXXXXXXXX",
"XXXXXXXXX...XXXXXXXXXXXXXXXXXX...XXXXXXXXXXXXXXX",
"XXXXXXXXX...XXXXXXXXXXXXXXXXXX...XXXXXXXXXXXXXXX",
"XXXXXXXXX...XXXXXXXXXXXXXXXXXX...XXXXXXXXXXXXXXX",
"XXXXXXXXX...XXXXXXXXXXXXXXXXXX...XXXXXXXXXXXXXXX",
"................................................",
"................................................",
"................................................",
"XXXXXXXXXXXXXXXXXX...XXX            XXX...XXXXXX",
"XXXXXXXXXXXXXXXXXX...XXX            XXX...XXXXXX",
"XXXXXXXXXXXXXXXXXX...XXX            XXX...XXXXXX",
"XXXXXXXXXXXXXXXXXX...XXXXXXXXXXXXXXXXXX...XXXXXX",
"XXXXXXXXXXXXXXXXXX...XXXXXXXXXXXXXXXXXX...XXXXXX",
"XXXXXXXXXXXXXXXXXX...XXXXXXXXXXXXXXXXXX...XXXXXX",
"XXXXXXXXXXXXXXXXXX...XXXXXXXXXXXXXXXXXX...XXXXXX",
"XXXXXXXXXXXXXXXXXX...XXXXXXXXXXXXXXXXXX...XXXXXX",
"XXXXXXXXXXXXXXXXXX...XXXXXXXXXXXXXXXXXX...XXXXXX",
"................................................",
"................................................",
"................................................",
"      XXX...XXXXXXXXXXXXXXXXXX...XXX            ",
"      XXX...XXXXXXXXXXXXXXXXXX...XXX            ",
"      XXX...XXXXXXXXXXXXXXXXXX...XXX            ",
"XXXXXXXXX...XXXXXXXXXXXXXXXXXX...XXXXXXXXXXXXXXX",
"XXXXXXXXX...XXXXXXXXXXXXXXXXXX...XXXXXXXXXXXXXXX",
"XXXXXXXXX...XXXXXXXXXXXXXXXXXX...XXXXXXXXXXXXXXX",
"XXXXXXXXX...XXXXXXXXXXXXXXXXXX...XXXXXXXXXXXXXXX",
"XXXXXXXXX...XXXXXXXXXXXXXXXXXX...XXXXXXXXXXXXXXX",
"XXXXXXXXX...XXXXXXXXXXXXXXXXXX...XXXXXXXXXXXXXXX"
};
