/* XPM */
static char *_49a4bf9f8194f0c9f68dd434738f26eFCuI9FBfzYsoxWVC[] = {
/* columns rows colors chars-per-pixel */
"48 48 11 1 ",
"  c #502848",
". c #705078",
"X c #B85058",
"o c #E09858",
"O c #F8F0C8",
"+ c #A81840",
"@ c #E05040",
"# c #780838",
"$ c #480030",
"% c #301020",
"& c white",
/* pixels */
"  .XXXooooooooooooooOOoooXX..XXoooOOOoooooXX XXo",
" .XooooOOOOOOOooooOOOOOoooX.XXooOOOOOOOOoooo...X",
" XooOOOOOOOOOOOOoooooooooX..XooOOOOOOooooooXX   ",
".XoOOOOOOOOOOOOOoXXooooXXXXoooOOOOOooooXXXXooXXX",
"XooOOOOOOOOOOOooXXXXXXooooooOOoooooooXX    XXooo",
"XoOOOOOOooooooooXX.  XXoOOOOOoooooooX  +@@#  XXX",
"XoOOOOOooooooooXX. XXooooOOOooXXXoooX#++@++##   ",
"XoOOOOOoooooooXX. XXooooooOOoXX XXXoo.###++##$$$",
"XoooooOoooooXXXX XoooooXXooOoX #  XXXo.######$$ ",
"XoOOoooooXXXXXXXXoooXXX..XoooX##+## .XX.$$##$$  ",
"XoOOoooooXX.X...XXXX.  $ XXooX#+@+#  ..X.$$$$$ %",
"XoOoooooooXX....X..  #### XXoX##+##    ..%%%#$%%",
"XoooXXoooooX..%%. $###++# XXoX$#+$$$$$$  .%%+$%%",
"XooXXXXXoooX...% $$##+@@+ XXoX$##$$$%%%%$$ %%+##",
"XoXX...XXooXX%%%$$$##+@@+ .XXX.$#$%%$$%%%%$ %%%%",
"XoXX.%%%%XXoX%%%%$$$#++++  .XX.$$$%%%$$%%%%%%%%%",
"XXXX.%%%%%XXX.%%%$$$##++#   .X.$$%%%%%#$%%%%%%%$",
".XXX.%%..%%%X.%$%%$$$$##$$  .XX.$%%$%%$#$$%$$$##",
".ooX.%%.X.%%%$.%%%%%$$$$%%%%  X.%$$$%%$#+@@@++#$",
".oooX.%%XX.%%%%%%%%%%%%%%%%%% ..$$#$%%%$$$$$$$$%",
"%XooXX%%%XX.%%%%%%%$%%%$$%%%% . ###%%%%%%%%%%%$%",
"%%XooX.%%%....%%%%$$++##$%%%% . ##$$$%%%%%%%%$%%",
" %%XoXX.%%%%%%%%%$$+##$$$%%%% .%$%%%#$%%%%%$#%%%",
".%%%%XXX %%%%%%%%$##$$$$%%%%  %%%%%%%#%%%%$#%%%%",
". %%%%%XX %%%%%%%$$$$$$%%%%% %%%%%%%%$#++##%%%%$",
"X.%%%%%%%X. %%%%%%%%%%%%%%%% %%%%%%%%%%$$$%%%###",
"XX %%%%%%%%.. %%%%%%$%%%$%%%%%%%%%%%%%%%%%%%%%%%",
"XoX. %%%%%%%%%%%%%%%%$$$$%%%%%%$%%%%%$##$$%%%%%%",
".oX. %%%%%%%%%%%%%%%%%$##%%%%%%$%%%%$##$$$%%%%$$",
".XoX %%%%%%%%%%%%%%%%%%%%%%%%%%%$%%%%$$$%%%%#$$%",
"%%XX.%%%%%%%%%%%%%%$%%%%%%%%%%%%$%%%%%$%%%%+$%%%",
"%%%%. %%%%$%%%%%%%%$%%%%%%%$$%%%$$#%%%%%%%#$%%%%",
"...%%%%%%%$%%%%%%%%$$%%%%#$$%%%%%$#%%%%%%%#%%%%%",
".XX.  %%%%#%%%%%%%%%$#%%#$%%%%%%%$$#%%%%%#$%%%%%",
"%.XXX. %%%#%%%%%%%%%%$++$%%%%%%%%%%$#%%%%$%%%%%%",
"%.oooX. %%+$%%%%%%%%%%%%%%%%%%%%%%%%$$$$$%%%%%%%",
"%%XoooX..%%#$%%%%%%%%%%%%%%%%%%%%%%%%%%%%%%%%%%%",
"% %XoooX.%%#$$%%%%%%%%%%%%%%%%%%%%%%%%%%%%%%%%%%",
"  %XoooX. %%$$%%%%%%%%%%%%%%%%%%%%%%%%%%%%%%%%%%",
"  %.XoooX.%%%$%%%%%%%%%%%%%%%%%%%%%%%%%%%%%%%%%%",
" .%.XoOoX. %%%%%%%%%%%%%%%%%%%%%%%%%%%%%%%%%%%%%",
" .%%XoOoXX %%%%%%%%%%%%%%%%%%%%%%%%%%%%%%%%%%%%%",
".X %%XOoXX %$$%%%%%%%%%%%%%%%%%%%%%%%%%%%%%%%%%%",
".X.%%XooXX %%#%%%%%%%%%%%%%%%%%%%%%%%%%%%%%%%%%%",
".X.%%XooX. %%$#%%%%%%%%%%%%%%%%%%%%%%%%%%%%%%%%%",
"XXX %XooX.%%%$+%%%%%%%%%%%%%%%%%%%%%%%%%%%%%%%%%",
"XoX.%%ooX.%%%$#%%%%%%%%%%%%%%%%%%%%%%%%%%%%%%%%%",
"XoX. %ooX %%$#%%%%%%%%%%%%%%%%%%%%%%%%%%%%%%%%%%"
};
