/* XPM */
static char *_49103b09b8c4ee9e431a7df0a7af236yqfXaS3DBvPovWD8[] = {
/* columns rows colors chars-per-pixel */
"48 48 11 1 ",
"  c #E09858",
". c #B85058",
"X c #705078",
"o c #502848",
"O c #F8F0C8",
"+ c #A81840",
"@ c #E05040",
"# c #780838",
"$ c #480030",
"% c #301020",
"& c white",
/* pixels */
"    ...XXooXXX..    OO   ..XX..   OOO     ..o.. ",
"..     .XXoXX...  OOOOO   .X..  OOOOOOOO    XXX.",
"oo.......XX...           .XX.  OOOOOO      ..ooo",
"ooooooXX....     ..    ....   OOOOO    ....  ...",
" ..ooXX...   .........      OO       ..oooo..   ",
"    ....   ..ooo..Xoo.. OOOOO       .oo+@@#oo...",
"..    .  ..ooo...Xo..    OOO  ...   .#++@++##ooo",
"$oXX..  .oooo.XXXo..      OO ..o...  X###++##$$$",
"oooooX...ooo.Xooo.     ..  O .o#oo... X######$$o",
"ooo%%%ooo.oXXooo.   ...XX.   .##+##oX..X$$##$$oo",
"%%%%$%%%oo.Xooo.....Xoo$o..  .#+@+#ooXX.X$$$$$o%",
"%%%$%%%%%oo.o%% .XXoo####o.. .##+##ooooXX%%%#$%%",
"%$$%%%%%oX%.o%..Xo$###++#o.. .$#+$$$$$$ooX%%+$%%",
"$#%%%%%o.%%.o%Xoo$$##+@@+o.. .$##$$$%%%%$$o%%+##",
"$#%ooX..%%%.oo%%$$$##+@@+oX...X$#$%%$$%%%%$o%%%%",
"#$%$$$%%%%%%Xo%%%$$$#++++ooX..X$$$%%%$$%%%%%%%%%",
"#%%%$$#%%%%%%Xoo%$$$##++#oooX.X$$%%%%%#$%%%%%%%$",
"$%%$%$#%%%%%%%%%%%$$$$##$$ooX..X$%%$%%$#$$%$$$##",
"%%%%$$#%%%%%%%%%%%%%$$$$%%%%oo.X%$$$%%$#+@@@++#$",
"%%%$$$+%%%%%%%%%%%%%%%%%%%%%%oXX$$#$%%%$$$$$$$$%",
"%%%$$+@%%%%%%%%%%%%$%%%$$%%%%oXo###%%%%%%%%%%%$%",
"%%$%$@%%%%%%%%%%%%$$++##$%%%%oXo##$$$%%%%%%%%$%%",
"%$%$$+%%%###%%%%%$$+##$$$%%%%oX%$%%%#$%%%%%$#%%%",
"$$$++%%%+##$$$%%%$##$$$$%%%%oo%%%%%%%#%%%%$#%%%%",
"$###%%%++$$%%%%%%$$$$$$%%%%%o%%%%%%%%$#++##%%%%$",
"#+%%%%+@$$%%%%%%%%%%%%%%%%%%o%%%%%%%%%%$$$%%%###",
"%%%%%#+$$%%#$$$%%%%%$%%%$%%%%%%%%%%%%%%%%%%%%%%%",
"%%%%%#+$%%+$%%%%%%%%%$$$$%%%%%%$%%%%%$##$$%%%%%%",
"%%%%%#$%%+$%%#$$%%%%%%$##%%%%%%$%%%%$##$$$%%%%$$",
"%%%%%#%%+$%%+#$$%%%%%%%%%%%%%%%%$%%%%$$$%%%%#$$%",
"%%%%%%%#$%%+#$$%%%%$%%%%%%%%%%%%$%%%%%$%%%%+$%%%",
"%%%%%%%$$%##$$%%%%%$%%%%%%%$$%%%$$#%%%%%%%#$%%%%",
"%%%%%%%$%%%$$%%#%%%$$%%%%#$$%%%%%$#%%%%%%%#%%%%%",
"%%%%%%%%%%%$%%#%%%%%$#%%#$%%%%%%%$$#%%%%%#$%%%%%",
"%%%%%%%%%%%%%$%%%%%%%$++$%%%%%%%%%%$#%%%%$%%%%%%",
"%%%%%%%%%%%%%$%%%%%%%%%%%%%%%%%%%%%%$$$$$%%%%%%%",
"%%%%%%%%%%%%%$%%%%%%%%%%%%%%%%%%%%%%%%%%%%%%%%%%",
"%%%%%%%%%%%%%%%%%%%%%%%%%%%%%%%%%%%%%%%%%%%%%%%%",
"%%%%%%%%%%%%%%%%%%%%%%%%%%%%%%%%%%%%%%%%%%%%%%%%",
"%%%%%%%%%%%%%%%%%%%%%%%%%%%%%%%%%%%%%%%%%%%%%%%%",
"%%%%%%%%%%%%%%%%%%%%%%%%%%%%%%%%%%%%%%%%%%%%%%%%",
"%%%%%%%%%%%%%%%%%%%%%%%%%%%%%%%%%%%%%%%%%%%%%%%%",
"%%%%%%%%%%%%%%%%%%%%%%%%%%%%%%%%%%%%%%%%%%%%%%%%",
"%%%%%%%%%%%%%%%%%%%%%%%%%%%%%%%%%%%%%%%%%%%%%%%%",
"%%%%%%%%%%%%%%%%%%%%%%%%%%%%%%%%%%%%%%%%%%%%%%%%",
"%%%%%%%%%%%%%%%%%%%%%%%%%%%%%%%%%%%%%%%%%%%%%%%%",
"%%%%%%%%%%%%%%%%%%%%%%%%%%%%%%%%%%%%%%%%%%%%%%%%",
"%%%%%%%%%%%%%%%%%%%%%%%%%%%%%%%%%%%%%%%%%%%%%%%%"
};
