/* XPM */
static char *c0fb8041952943e3f89a5cd8ff651851hinj1uKscHJNdqjN[] = {
/* columns rows colors chars-per-pixel */
"48 48 11 1 ",
"  c #E09858",
". c #B85058",
"X c #705078",
"o c #502848",
"O c #F8F0C8",
"+ c #480030",
"@ c #780838",
"# c #301020",
"$ c #A81840",
"% c #E05040",
"& c white",
/* pixels */
"    ...XXooXXX..    OO   ..XX..           ...Xoo",
"..     .XXoXX...  OOOOO   .X..    OOOOOOO    .Xo",
"oo.......XX...           .XX.  OOOOOOOOOOOOO  .o",
"ooooooXX....     ..    ....   OOOOOOOOOOOOOOO .X",
" ..ooXX...   .........      OO    OOOOOOOOOOO  .",
"    ....   ..ooo..Xoo.. OOOOO           OOOOOO .",
"..    .  ..ooo...Xo..    OOO  ...        OOOOO .",
"+oXX..  .oooo.XXXo..      OO ..o..       OOOOO .",
"oooooX...ooo.Xooo.     ..  O .o@....     O     .",
"ooo###ooo.oXXooo.   ...XX.   .@@.......     OO .",
"####+###oo.Xooo.....Xoo+o..  .@$XXX.X..     OO .",
"###+#####oo.o## .XXoo@@@@o.. .@@XXXX..       O .",
"#++#####oX#.o#..Xo+@@@$$@o.. .+@##XX.     ..   .",
"+@#####o.##.o#Xoo++@@$%%$o.. .+@#XXX.   .....  .",
"+@#ooX..###.oo##+++@@$%%$oX...X+###..  ..XXX.. .",
"@+#+++######Xo###+++@$$$$ooX..X+###. ..####X.. .",
"@###++@######Xoo#+++@@$$@oooX.X+##X...#####X....",
"+##+#+@###########++++@@++ooX..X+#X.###XX##X...X",
"####++@#############++++####oo.X#X+###X.X##X.  X",
"###+++$######################oXX#####X..##X.   X",
"###++$%############+###++####oXo####X..###..  .#",
"##+#+%############++$$@@+####oXo##XXXX###X.  .##",
"#+#++$###@@@#####++$@@+++####oX#########X.. .##o",
"+++$$###$@@+++###+@@++++####oo#########o...####X",
"+@@@###$$++######++++++#####o#########o..#####oX",
"@$####$%++##################o#######oX.#######X.",
"#####@$++##@+++#####+###+#########oXX########o..",
"#####@$+##$+#########++++######+###########oX. .",
"#####@+##$+##@++######+@@######+###########oX. X",
"#####@##$+##$@++###########################o. .X",
"#######@+##$@++####+#######################X..##",
"#######++#@@++#####+#######++########+####oX####",
"#######+###++##@###++####@++#########+#######XXX",
"###########+##@#####+@##@+###########@####ooX..X",
"#############+#######+$$+############@###oX...X#",
"#############+######################+$##oX.   X#",
"#############+#####################+@##XX.   .##",
"##################################++@##X.   .#o#",
"##################################++##oX.   .#oo",
"##################################+###X.   .X#oo",
"#####################################oX. O .X#Xo",
"#####################################o.. O .##Xo",
"##################################++#o.. O.##o.X",
"##################################@##o..  .##X.X",
"#################################@+##oX.  .##X.X",
"#################################$+###X.  .#o...",
"#################################@+###X.  ##X. .",
"##################################@+##o.  #oX. ."
};
