/* XPM */
static char *_89b8495ac174b1b98092a7679d4b406oLs07RdYCIXp31zY[] = {
/* columns rows colors chars-per-pixel */
"48 48 208 2 ",
"   c None",
".  c #780000",
"X  c #6E0000",
"o  c #6D1B26",
"O  c #6F1B28",
"+  c #731A26",
"@  c #741B28",
"#  c #7B1C28",
"$  c #7A1B26",
"%  c #7D4D50",
"&  c #890000",
"*  c #940000",
"=  c #A40000",
"-  c #AE0000",
";  c #BC0000",
":  c #B50000",
">  c #B5001A",
",  c #831D29",
"<  c #8D1E2A",
"1  c #891A27",
"2  c #931F2B",
"3  c #991C28",
"4  c #A81C29",
"5  c #BE1C2A",
"6  c #B61827",
"7  c #94202C",
"8  c #9C212E",
"9  c #A4212D",
"0  c #AD222E",
"q  c #B5222E",
"w  c #BD222E",
"e  c #AD2531",
"r  c #A22330",
"t  c #B42632",
"y  c #BC2632",
"u  c #BF2B37",
"i  c #C20000",
"p  c #CC0000",
"a  c #D40001",
"s  c #DB0000",
"d  c #D5000C",
"f  c #C50017",
"g  c #DC0013",
"h  c #D7011D",
"j  c #E30000",
"k  c #ED0001",
"l  c #F00000",
"z  c #F2000F",
"x  c #ED0C1E",
"c  c #E90318",
"v  c #F40012",
"b  c #CC0821",
"n  c #C11D2B",
"m  c #CA1E2C",
"M  c #C81526",
"N  c #D31D2C",
"B  c #D61628",
"V  c #EB0F20",
"C  c #EC1423",
"Z  c #EC1C29",
"A  c #E71324",
"S  c #F21423",
"D  c #F11D29",
"F  c #C3222E",
"G  c #CB212F",
"H  c #D9222E",
"J  c #C42430",
"K  c #CC2532",
"L  c #C42935",
"P  c #CB2935",
"I  c #D22633",
"U  c #D82734",
"Y  c #D32A35",
"T  c #DC2A36",
"R  c #D52D39",
"E  c #DD2E39",
"W  c #CF323C",
"Q  c #D3333E",
"!  c #DD333C",
"~  c #ED212D",
"^  c #E3222D",
"/  c #F5232D",
"(  c #ED2631",
")  c #E52B37",
"_  c #EC2B36",
"`  c #E42E39",
"'  c #EB2E39",
"]  c #E72631",
"[  c #F22B35",
"{  c #F32E38",
"}  c #E5313C",
"|  c #EC333C",
" . c #F3333C",
".. c #F8323B",
"X. c #DB3640",
"o. c #DB3D46",
"O. c #D73C45",
"+. c #E33741",
"@. c #E53B44",
"#. c #EB3B44",
"$. c #E83C46",
"%. c #F23640",
"&. c #F23D46",
"*. c #FC3A44",
"=. c #FF3F48",
"-. c #864D51",
";. c #9E4F54",
":. c #B55258",
">. c #C94D53",
",. c #C74E53",
"<. c #D84D55",
"1. c #C95157",
"2. c #D8545A",
"3. c #DD424B",
"4. c #E4434C",
"5. c #EB434C",
"6. c #F4444C",
"7. c #FF434C",
"8. c #E64A53",
"9. c #EB4B54",
"0. c #E84952",
"q. c #F34B54",
"w. c #FC4C54",
"e. c #FF4751",
"r. c #E5525A",
"t. c #EC535B",
"y. c #F5535B",
"u. c #F9525A",
"i. c #E75C65",
"p. c #F85C64",
"a. c #F05F68",
"s. c #DD747D",
"d. c #E6646C",
"f. c #F4636B",
"g. c #F9636B",
"h. c #E56D77",
"j. c #F86C75",
"k. c #E3727C",
"l. c #F5727B",
"z. c #D37E82",
"x. c #EB7C86",
"c. c #E67983",
"v. c #F27781",
"b. c #F17D86",
"n. c #9D8586",
"m. c #AB8588",
"M. c #BDAEAE",
"N. c #D38588",
"B. c #DA8488",
"V. c #DE8A95",
"C. c #DE8B96",
"Z. c #DC929C",
"A. c #C4898D",
"S. c #EC828A",
"D. c #E2848B",
"F. c #E98C93",
"G. c #E9929B",
"H. c #F18B92",
"J. c #DD97A2",
"K. c #E39BA6",
"L. c #E195A0",
"P. c #DCA4A7",
"I. c #D5A2AE",
"U. c #D5AAB6",
"Y. c #D4AEBA",
"T. c #D8A6B2",
"R. c #DAB2B9",
"E. c #CAB1B3",
"W. c #E3A7AC",
"Q. c #E5B3B3",
"!. c #F4BBBC",
"~. c #E2AFB0",
"^. c #C8B5C3",
"/. c #CCBECB",
"(. c #CDB9C6",
"). c #D2B6C2",
"_. c #DFBBC4",
"`. c #CAC2CF",
"'. c #D6C7CE",
"]. c #C5CDDB",
"[. c #C7C7D4",
"{. c #C6D1DE",
"}. c #D8CFD2",
"|. c #E7C7C9",
" X c #FCC1C2",
".X c #ECD2D3",
"XX c #E1D4DA",
"oX c #FADADA",
"OX c #E6CCD0",
"+X c #C3D4E1",
"@X c #C3DDEB",
"#X c #C7DBE7",
"$X c #D5DAE3",
"%X c #E9DCE0",
"&X c #C8E2EE",
"*X c #DDE5ED",
"=X c #CAE8F3",
"-X c #D8ECF5",
";X c #ECE9EB",
":X c #ECE8E7",
">X c #F3E4E5",
",X c #F9E7E8",
"<X c #E4F3F9",
"1X c #ECF7FD",
"2X c #F3FCFE",
"3X c #FFFEFE",
"4X c #FCF5F5",
"5X c #F5EEF0",
/* pixels */
"                                    5 5 n m N m m n n n n G I I K J J J                         ",
"                                    6 5 5 m N m m n 5 n n G I I K J J J                         ",
"                                    5 n F G I I G F F F F K I I K J J J                         ",
"                                    P P P P R R Y P P K K K I I K F F F                         ",
"                                  Q Q Q Q Q X.! ! R Y Y I H N B b f f i i                       ",
"                                +.@.o.o.o.o.$.@.+.! E H B h d a p ; ; ; ; ;                     ",
"                            | | @.$.4.4.4.4.5.5.#.| ' ^ c s a p i ; ; ; ; ; ; ;                 ",
"                          ' ' | #.5.0.9.9.9.q.q.6.&. ._ A s a p i ; ; ; ; ; ; ; ;               ",
"                        _ ' | | &.6.q.q.y.y.y.u.u.w.q.6.#.) B d i ; ; i i i i i i i             ",
"                        ) ' | *.7.w.w.u.y.p.p.p.g.g.f.f.d.i.2.2.1.,.>.2.2.r.2.>.>.>.            ",
"                      U T )  .*.7.e.w.w.u.p.g.j.l.v.b.S.S.D.D.B.N.N.B.F.G.H.F.B.z.z.            ",
"                    t K U )  .*.7.7.7.w.u.p.j.v.S.F.G.K.W.W.W.~.~.~.Q.!. X X!.W.P.P.            ",
"                # 7 0 J I T | *.=.=.7.7.u.f.l.S.G.K.T.R._.|.|.OX.X.XoXoX,X,XoX|.|.|.            ",
"              + # 2 9 y K T ` %.*.*.*.=.w.f.v.F.K.U.).'.}.XX%X>X,X,X4X4X3X3X4X>X>X>X            ",
"            + @ , 2 9 y K T ` | %.....*.q.f.x.G.T.).`.{.$X*X;X5X4X3X3X3X3X3X3X3X3X4X            ",
"            @ $ , 8 t L Y T ` |  ...[ { 6.f.x.L.U./.].#X&X-X<X2X3X3X3X3X3X3X3X3X3X3X            ",
"            @ $ , r y P U E ` |  .[ / / &.a.x.J.Y./.{.@X=X-X<X1X2X3X3X3X3X3X3X3X3X3X            ",
"            @ $ , r y P U E } |  ./ S S  .a.c.J.Y.`.+X@X=X=X-X<X1X2X3X3X3X3X3X3X3X3X            ",
"            @ $ , 8 t L U E } | { D v z [ t.c.J.Y.`.+X@X&X=X=X-X-X<X2X3X3X3X3X3X3X3X            ",
"            @ # , 8 t L Y E } | [ S l l ~ t.c.Z.Y.`.{.@X&X&X@X#X&X-X<X2X3X3X3X3X3X3X            ",
"            + $ , 7 e L Y E } | [ S l k C 9.k.Z.U./.].+X@X@X+X+X+X#X*X1X3X3X3X3X3X3X            ",
"            + @ , 7 e L R E } | [ S k k V 0.h.V.I.).`.].].].].[.[.].$X;X3X3X3X3X3X3X            ",
"            + @ , 7 e L Y E } | [ S k k C 5.d.B.J.U.)./././.^.^.^.(.'.XX>X5X5X:X;X;X            ",
"            o + # 7 e L Y E ` ' [ D c c Z $.i.k.V.J.I.U.U.U.I.I.I.I.Y._.OX.XXX}.}.}.            ",
"            o O # 7 e y P T ` ' [ ( Z C ( #.r.d.k.D.V.Z.Z.Z.V.V.V.C.Z.P.T.R.E.M.M.M.            ",
"            o O # < e y P T ` ' { _ ( ( ' #.5.r.i.d.h.k.k.k.h.h.h.h.s.z.N.A.m.n.n.n.            ",
"            o + # 7 e L Y E ` |  .| ' ' | | #.$.5.5.0.0.9.9.9.9.0.0.<.<.1.:.;.-.-.%             ",
"            $ # , 8 t L R ! } | %.%.| | | | ' _ ~ Z C V x C S S C x g p i - * . . X             ",
"            1 1 2 e u W X.@.$.&.&.&.#.#.| ' ( Z x k k k k k k k k j s p i - * & . .             ",
"            3 3 4 y W X.@.5.5.6.6.6.&.#.| ' ( Z x c k k k k k j j s a p i : = * & &             ",
"            4 4 4 P X.$.5.9.q.q.q.6.6.#.| | _ ( ~ D C x c c c g g a p p p i : = = =             ",
"            6 6 w R @.5.q.q.u.u.u.q.6.&.| | ' _ _ [ _ _ ] ^ H N N M M M b b f > > >             ",
"            6 5 5 R @.5.q.y.y.y.u.q.6.#.| | ' ' | | | | ` E U K K F F K I I K F F F             ",
"            M n F P Q 4.0.9.y.y.u.q.5.#.| ' ' ' | | | } ) E Y K J F F K I U K J J K             ",
"              n F P Q o.4.8.t.t.q.q.5.#.} ` ` ` ' | } ` E T Y K J F J K I U I K K K             ",
"                m P Q o.3.4.8.0.9.5.$.+.} ` ` ` ` ` ` ` ) T U I K K K I U U I K K K             ",
"                    Q O.O.o.o.4.4.$.@.} ) ` ) ) ` ` ` ) ) T T U I I I U T T I K K K             ",
"                      W W Q Q X.+.} } E T T T T T T T T T T T U U I U U T T I K K K             ",
"                        L P P Y E T U Y K I I I I I I K K K K K K K K I U U K J J J             ",
"                        n F F G I K F F F F F F F F F F F J J J J J F J K K K J J J             ",
"                        5 5 5 m m n n F w w w w w w w w F F F J J J F J y J J w w w             ",
"                        5 5 n m n 5 5 w w w w w w w w w F F F J J J w w q q q 0 0 0             ",
"                        n F n F n F F w                             q 0 9 9 9 9 9 9             ",
"                        F F F F F F F                                 9 8 8 3 2 7 7             ",
"                        J J J J J F                                     < < < < < <             ",
"                        F J J J J F                                     , , , , , ,             ",
"                        J J J J J J                                     # # , , , ,             ",
"                        J J J J J J                                     # , , , , ,             "
};
