/* XPM */
static char *_c3656937e234b79ab7de8efe8956072UAxEy1QSx8xbHbOd[] = {
/* columns rows colors chars-per-pixel */
"48 48 208 2 ",
"   c None",
".  c #780000",
"X  c #6E0000",
"o  c #6D1B26",
"O  c #6F1B28",
"+  c #731A26",
"@  c #741B28",
"#  c #7B1C28",
"$  c #7A1B26",
"%  c #7D4D50",
"&  c #890000",
"*  c #940000",
"=  c #A40000",
"-  c #AE0000",
";  c #BC0000",
":  c #B50000",
">  c #B5001A",
",  c #831D29",
"<  c #8D1E2A",
"1  c #891A27",
"2  c #931F2B",
"3  c #991C28",
"4  c #A81C29",
"5  c #BE1C2A",
"6  c #B61827",
"7  c #94202C",
"8  c #9C212E",
"9  c #A4212D",
"0  c #AD222E",
"q  c #B5222E",
"w  c #BD222E",
"e  c #AD2531",
"r  c #A22330",
"t  c #B42632",
"y  c #BC2632",
"u  c #BF2B37",
"i  c #C20000",
"p  c #CC0000",
"a  c #D40001",
"s  c #DB0000",
"d  c #D5000C",
"f  c #C50017",
"g  c #DC0013",
"h  c #D7011D",
"j  c #E30000",
"k  c #ED0001",
"l  c #F00000",
"z  c #F2000F",
"x  c #ED0C1E",
"c  c #E90318",
"v  c #F40012",
"b  c #CC0821",
"n  c #C11D2B",
"m  c #CA1E2C",
"M  c #C81526",
"N  c #D31D2C",
"B  c #D61628",
"V  c #EB0F20",
"C  c #EC1423",
"Z  c #EC1C29",
"A  c #E71324",
"S  c #F21423",
"D  c #F11D29",
"F  c #C3222E",
"G  c #CB212F",
"H  c #D9222E",
"J  c #C42430",
"K  c #CC2532",
"L  c #C42935",
"P  c #CB2935",
"I  c #D22633",
"U  c #D82734",
"Y  c #D32A35",
"T  c #DC2A36",
"R  c #D52D39",
"E  c #DD2E39",
"W  c #CF323C",
"Q  c #D3333E",
"!  c #DD333C",
"~  c #ED212D",
"^  c #E3222D",
"/  c #F5232D",
"(  c #ED2631",
")  c #E52B37",
"_  c #EC2B36",
"`  c #E42E39",
"'  c #EB2E39",
"]  c #E72631",
"[  c #F22B35",
"{  c #F32E38",
"}  c #E5313C",
"|  c #EC333C",
" . c #F3333C",
".. c #F8323B",
"X. c #DB3640",
"o. c #DB3D46",
"O. c #D73C45",
"+. c #E33741",
"@. c #E53B44",
"#. c #EB3B44",
"$. c #E83C46",
"%. c #F23640",
"&. c #F23D46",
"*. c #FC3A44",
"=. c #FF3F48",
"-. c #864D51",
";. c #9E4F54",
":. c #B55258",
">. c #C94D53",
",. c #C74E53",
"<. c #D84D55",
"1. c #C95157",
"2. c #D8545A",
"3. c #DD424B",
"4. c #E4434C",
"5. c #EB434C",
"6. c #F4444C",
"7. c #FF434C",
"8. c #E64A53",
"9. c #EB4B54",
"0. c #E84952",
"q. c #F34B54",
"w. c #FC4C54",
"e. c #FF4751",
"r. c #E5525A",
"t. c #EC535B",
"y. c #F5535B",
"u. c #F9525A",
"i. c #E75C65",
"p. c #F85C64",
"a. c #F05F68",
"s. c #DD747D",
"d. c #E6646C",
"f. c #F4636B",
"g. c #F9636B",
"h. c #E56D77",
"j. c #F86C75",
"k. c #E3727C",
"l. c #F5727B",
"z. c #D37E82",
"x. c #EB7C86",
"c. c #E67983",
"v. c #F27781",
"b. c #F17D86",
"n. c #9D8586",
"m. c #AB8588",
"M. c #BDAEAE",
"N. c #D38588",
"B. c #DA8488",
"V. c #DE8A95",
"C. c #DE8B96",
"Z. c #DC929C",
"A. c #C4898D",
"S. c #EC828A",
"D. c #E2848B",
"F. c #E98C93",
"G. c #E9929B",
"H. c #F18B92",
"J. c #DD97A2",
"K. c #E39BA6",
"L. c #E195A0",
"P. c #DCA4A7",
"I. c #D5A2AE",
"U. c #D5AAB6",
"Y. c #D4AEBA",
"T. c #D8A6B2",
"R. c #DAB2B9",
"E. c #CAB1B3",
"W. c #E3A7AC",
"Q. c #E5B3B3",
"!. c #F4BBBC",
"~. c #E2AFB0",
"^. c #C8B5C3",
"/. c #CCBECB",
"(. c #CDB9C6",
"). c #D2B6C2",
"_. c #DFBBC4",
"`. c #CAC2CF",
"'. c #D6C7CE",
"]. c #C5CDDB",
"[. c #C7C7D4",
"{. c #C6D1DE",
"}. c #D8CFD2",
"|. c #E7C7C9",
" X c #FCC1C2",
".X c #ECD2D3",
"XX c #E1D4DA",
"oX c #FADADA",
"OX c #E6CCD0",
"+X c #C3D4E1",
"@X c #C3DDEB",
"#X c #C7DBE7",
"$X c #D5DAE3",
"%X c #E9DCE0",
"&X c #C8E2EE",
"*X c #DDE5ED",
"=X c #CAE8F3",
"-X c #D8ECF5",
";X c #ECE9EB",
":X c #ECE8E7",
">X c #F3E4E5",
",X c #F9E7E8",
"<X c #E4F3F9",
"1X c #ECF7FD",
"2X c #F3FCFE",
"3X c #FFFEFE",
"4X c #FCF5F5",
"5X c #F5EEF0",
/* pixels */
"                        J J J K I I G n n n n m m N m n 5 5                                     ",
"                        J J J K I I G n n 5 n m m N m 5 5 6                                     ",
"                        J J J K I I K F F F F G I I G F n 5                                     ",
"                        F F F K I I I K K P P Y R R P P P P                                     ",
"                      i i f f b B N H I Y Y R ! ! X.Q Q Q Q Q                                   ",
"                    ; ; ; ; ; p a d h B H E ! +.@.$.o.o.o.o.@.+.                                ",
"                ; ; ; ; ; ; ; i p a s c ^ ' | #.5.5.4.4.4.4.$.@.| |                             ",
"              ; ; ; ; ; ; ; ; i p a s A _  .&.6.q.q.9.9.9.0.5.#.| ' '                           ",
"            i i i i i i i ; ; i d B ) #.6.q.w.u.y.y.y.y.q.q.6.&.| | ' _                         ",
"            >.>.>.2.r.2.<.>.,.1.2.2.i.d.f.g.g.g.p.p.p.y.u.w.e.7.*.| ' )                         ",
"            z.z.B.F.G.G.F.B.N.N.B.D.D.S.S.b.v.l.j.g.p.u.w.w.e.7.*. .) T U                       ",
"            P.P.W.!. X X!.Q.~.~.~.W.W.W.K.G.F.S.v.j.p.u.e.7.7.7.*. .) U K t                     ",
"            |.|.|.oX,X,XoXoX.X.XOX|.|._.R.T.K.G.S.l.g.u.7.7.=.=.*.| T I J 0 7 #                 ",
"            >X>X>X4X3X3X4X4X,X,X>X%XXX}.'.).U.K.F.v.g.w.=.*.*.*.%.) T K y 9 2 # +               ",
"            4X4X4X3X3X3X3X3X3X4X5X;X*X$X{.`.).T.G.x.f.q.*.....%.| ) T K y 0 2 , @ @             ",
"            3X3X3X3X3X3X3X3X3X3X2X<X-X&X#X]./.U.L.x.f.6.{ [ .. .| ) T Y L t 8 , $ @             ",
"            3X3X3X3X3X3X3X3X3X2X1X<X-X=X@X{./.Y.J.x.a.&./ / [  .| ) E U P y r , $ @             ",
"            3X3X3X3X3X3X3X3X2X1X<X-X=X=X@X+X`.Y.J.c.a. .S S /  .| } E U P y r , $ @             ",
"            3X3X3X3X3X3X3X2X<X-X-X=X=X=X@X+X`.Y.J.c.t.[ z v D { | } E U L t 8 , $ @             ",
"            3X3X3X3X3X3X3X<X-X&X#X@X&X&X@X{.`.Y.Z.c.t.~ l l S [ | } E Y L t 8 , # @             ",
"            3X3X3X3X3X3X1X*X#X+X+X+X@X@X+X]./.U.Z.k.9.C k l S [ | } E Y L e 7 , $ +             ",
"            3X3X4X3X3X3X;X$X[.[.[.].].].].`.).I.V.h.0.V k k S [ | } E R L e 7 , @ +             ",
"            ;X;X:X5X5X>XXX'.(.^.^.^./././.).U.J.B.d.5.C k k S [ | } E Y L e 7 , @ +             ",
"            }.}.}.XX.XOX_.Y.I.I.I.I.U.U.U.I.J.V.k.i.$.Z c c D [ ' ) E Y L e 7 # @ o             ",
"            M.M.M.E.R.T.P.Z.C.V.V.V.Z.Z.Z.V.D.k.d.r.#.( C Z ( [ ' ) T P y e 7 # O o             ",
"            n.n.n.m.A.N.z.s.h.h.h.h.k.k.k.h.d.i.r.4.+.' ( ( _ { ' ) T P y e 7 # O o             ",
"            % -.-.;.:.1.<.<.8.9.9.9.9.9.0.0.4.5.#.#.| | ' ' |  .| ) T Y L e 7 # @ o             ",
"            X . . * - i a g x C S S C x V C Z ~ ( ' | | | | %.%.| } ! R L t 8 , # $             ",
"            . . & * - i p s j k k k k k k k k x Z ( ' | #.#.&.&.&.#.@.X.W u e 2 1 1             ",
"            & & * = : i p a s j j k k k k k z x Z ( ' | #.&.6.6.6.5.5.@.X.W y 4 3 3             ",
"            = = = : i p p p a g g c c c x C D ~ ( _ | | #.6.6.w.q.q.9.5.$.X.P 4 4 4             ",
"            > > > f b b M M M N N H ^ ] _ _ [ _ _ ' | | &.6.q.u.u.y.q.q.5.@.R w 6 6             ",
"            F F F K I I K F F K K U E ) | | | | ' ' | | #.6.q.u.y.y.y.q.5.@.R 5 5 6             ",
"            K J J K I I K F F J K Y T ) } | | | ' ' ' | #.5.q.y.y.y.9.8.4.Q P F n M             ",
"            K K K I U I K J F J K Y T E ) } | | ) ) ) } #.5.9.q.t.t.8.4.o.Q P F n               ",
"            K K K I U U I K K K I U T ) ) ) } ) ) ) ) } +.#.5.9.0.8.8.3.o.Q P m                 ",
"            K K K I T T I I I I U T T ) ) ) ) ) ) ) ) ) } @.#.4.4.o.o.O.O.Q                     ",
"            K K K I T T U I I I U T T T T T T T T T T T E } } +.X.Q Q W W                       ",
"            J J J K U U I K K K K K K K K I I I I I I K Y U T E Y P P L                         ",
"            J J J K K K J F J J J J J F F F F F F F F F F F K I G F F n                         ",
"            w w w J J y J F J J J F F F w w w w w w w w F n n m m 5 5 5                         ",
"            0 0 0 q q q w w J J J F F F w w w w w w w w w 5 5 n m n 5 5                         ",
"            9 9 9 9 9 0 0 q                             w F F n F n F n                         ",
"            7 7 2 3 8 8 9                                 F F F F F F F                         ",
"            < < < < < <                                     F J J J J J                         ",
"            , , , , , ,                                     F J J J J F                         ",
"            , , , , # #                                     J J J J J J                         ",
"            , , , , , #                                     J J J J J J                         "
};
