/* XPM */
static char *_67b0a0be4684be9949298a942ab21d8c7lfgXx9BZI31bNI[] = {
/* columns rows colors chars-per-pixel */
"48 48 208 2 ",
"   c None",
".  c #780000",
"X  c #6E0000",
"o  c #6D1B26",
"O  c #6F1B28",
"+  c #731A26",
"@  c #741B28",
"#  c #7A1C28",
"$  c #7A1B26",
"%  c #7D4D50",
"&  c #890000",
"*  c #940000",
"=  c #A40000",
"-  c #AE0000",
";  c #BC0000",
":  c #B50000",
">  c #B5001A",
",  c #821D29",
"<  c #8B1A28",
"1  c #921E2B",
"2  c #9A1A27",
"3  c #A81C29",
"4  c #BE1C2A",
"5  c #B61827",
"6  c #94202D",
"7  c #9B222F",
"8  c #A9232F",
"9  c #BE222E",
"0  c #AD2531",
"q  c #A22330",
"w  c #B42632",
"e  c #BB2633",
"r  c #BF2B37",
"t  c #C20000",
"y  c #CC0000",
"u  c #D40001",
"i  c #DB0000",
"p  c #D5000C",
"a  c #C50017",
"s  c #DC0013",
"d  c #D7011D",
"f  c #E30000",
"g  c #ED0001",
"h  c #F00000",
"j  c #F2000F",
"k  c #EC041B",
"l  c #ED0C1E",
"z  c #E70217",
"x  c #F40012",
"c  c #CC0821",
"v  c #C11D2B",
"b  c #CA1E2C",
"n  c #C81526",
"m  c #D31D2C",
"M  c #D61628",
"N  c #EB0F20",
"B  c #EC1423",
"V  c #EC1C29",
"C  c #E71324",
"Z  c #F21423",
"A  c #F11D29",
"S  c #C3222E",
"D  c #CB212F",
"F  c #D9222E",
"G  c #C42430",
"H  c #CB2532",
"J  c #C42935",
"K  c #CB2935",
"L  c #D32633",
"P  c #D32A35",
"I  c #DC2A36",
"U  c #D52D39",
"Y  c #DD2E39",
"T  c #DA2735",
"R  c #CF323C",
"E  c #D3333E",
"W  c #DD333C",
"Q  c #ED212D",
"!  c #E3222D",
"~  c #F5232D",
"^  c #ED2631",
"/  c #E42B37",
"(  c #EC2B36",
")  c #E52D39",
"_  c #EB2E39",
"`  c #E72631",
"'  c #F22B35",
"]  c #F32E38",
"[  c #E5313C",
"{  c #EC333C",
"}  c #F3333C",
"|  c #F8323B",
" . c #DB3640",
".. c #DB3D46",
"X. c #D73C45",
"o. c #E33741",
"O. c #E53B44",
"+. c #EB3B44",
"@. c #E83C46",
"#. c #F23640",
"$. c #F23D46",
"%. c #FC3A44",
"&. c #FF3F48",
"*. c #864D51",
"=. c #9E4F54",
"-. c #B55258",
";. c #C94D53",
":. c #C74E53",
">. c #D84D55",
",. c #C95157",
"<. c #D8545A",
"1. c #DD424B",
"2. c #E4434C",
"3. c #EB434C",
"4. c #F4444C",
"5. c #FF434C",
"6. c #E64A53",
"7. c #EB4B54",
"8. c #E84952",
"9. c #F34B54",
"0. c #FC4C54",
"q. c #FF4751",
"w. c #E5525A",
"e. c #EC535B",
"r. c #F5535B",
"t. c #F9525A",
"y. c #E75C65",
"u. c #F85C64",
"i. c #F05F68",
"p. c #DD747D",
"a. c #E6646C",
"s. c #F4636B",
"d. c #F9636B",
"f. c #E46D76",
"g. c #E66E78",
"h. c #F86C75",
"j. c #E3727C",
"k. c #F5727B",
"l. c #D37E82",
"z. c #EB7C86",
"x. c #E67983",
"c. c #F27781",
"v. c #F17D86",
"b. c #9D8586",
"n. c #AB8588",
"m. c #BDAEAE",
"M. c #D38588",
"N. c #DA8488",
"B. c #DE8A95",
"V. c #DE8B96",
"C. c #DC929C",
"Z. c #C4898D",
"A. c #E2848B",
"S. c #EC828A",
"D. c #EB8C94",
"F. c #E28E90",
"G. c #E9929B",
"H. c #F18B92",
"J. c #DD97A2",
"K. c #E39BA6",
"L. c #E195A0",
"P. c #DCA4A7",
"I. c #D5A2AE",
"U. c #D5AAB6",
"Y. c #D4AEBA",
"T. c #D8A6B2",
"R. c #DAB2B9",
"E. c #CAB1B3",
"W. c #E3A7AC",
"Q. c #E5B3B3",
"!. c #F4BBBC",
"~. c #E2AFB0",
"^. c #C8B5C3",
"/. c #CCBECB",
"(. c #CDB9C6",
"). c #D2B6C2",
"_. c #DFBBC4",
"`. c #CAC2CF",
"'. c #D6C7CE",
"]. c #C5CDDB",
"[. c #C7C7D4",
"{. c #C6D1DE",
"}. c #D8CFD2",
"|. c #E7C7C9",
" X c #FCC1C2",
".X c #ECD2D3",
"XX c #E1D4DA",
"oX c #FADADA",
"OX c #E6CCD0",
"+X c #C3D4E1",
"@X c #C3DDEB",
"#X c #C7DBE7",
"$X c #D5DAE3",
"%X c #E9DCE0",
"&X c #C8E2EE",
"*X c #DDE5ED",
"=X c #CAE8F3",
"-X c #D8ECF5",
";X c #ECE9EB",
":X c #ECE8E7",
">X c #F3E4E5",
",X c #F9E7E8",
"<X c #E4F3F9",
"1X c #ECF7FD",
"2X c #F3FCFE",
"3X c #FFFEFE",
"4X c #FCF5F5",
"5X c #F5EEF0",
/* pixels */
"                                    4 4 v b m b b v v v v D L L H G G G                         ",
"                                    5 4 4 b m b b v 4 v v D L L H G G G                         ",
"                                    4 v S D L L D S S S S H L L H G G G                         ",
"                                    K K K K U U P K K H H H L L H S S S                         ",
"                                  E E E E E  .W W U P P L F m M c a a t t                       ",
"                                o.O.........@.O.o.W Y F M d p u y ; ; ; ; ;                     ",
"                            { { O.@.2.2.2.2.3.3.+.{ _ ! z i u y t ; ; ; ; ; ; ;                 ",
"                          _ _ { +.3.8.7.7.7.9.9.4.$.} ( C i u y t ; ; ; ; ; ; ; ;               ",
"                        ( _ { { $.4.9.9.r.r.r.t.t.0.9.4.+./ M p t ; ; t t t t t t t             ",
"                        / _ { %.5.0.0.t.r.u.u.u.d.d.s.s.a.y.<.<.,.:.;.<.<.w.<.;.;.;.            ",
"                      P I / } %.5.q.0.0.t.u.d.h.k.c.v.S.S.A.A.N.M.M.N.F.G.H.D.N.l.l.            ",
"                    w H T / } %.5.5.5.0.t.u.h.c.S.D.G.K.W.W.W.~.~.~.Q.!. X X!.W.P.P.            ",
"                # 6 0 G L I { %.&.&.5.5.t.s.k.S.G.K.T.R._.|.|.OX.X.XoXoX,X,XoX|.|.|.            ",
"              + # 1 8 e H I ) #.%.%.%.&.0.s.c.D.K.U.).'.}.XX%X>X,X,X4X4X3X3X4X>X>X>X            ",
"            + @ , 1 8 e H I ) { #.| | %.9.s.z.G.T.).`.{.$X*X;X5X4X3X3X3X3X3X3X3X3X4X            ",
"            @ # , 7 w J P I ) { } | ' ] 4.s.z.L.U./.].#X&X-X<X2X3X3X3X3X3X3X3X3X3X3X            ",
"            @ # , q e K T Y ) { } ' ~ ~ $.i.z.J.Y./.{.@X=X-X<X1X2X3X3X3X3X3X3X3X3X3X            ",
"            @ # , q e K T Y [ { } ~ Z Z } i.x.J.Y.`.+X@X=X=X-X<X1X2X3X3X3X3X3X3X3X3X            ",
"            @ # , 7 w J T Y [ { ] A x j ' e.x.J.Y.`.+X@X&X=X=X-X-X<X2X3X3X3X3X3X3X3X            ",
"            @ # , 7 w J P Y [ { ' Z h h Q e.x.C.Y.`.{.@X&X&X@X#X&X-X<X2X3X3X3X3X3X3X            ",
"            + # , 6 0 J P Y [ { ' Z h g B 7.j.C.U./.].+X@X@X+X+X+X#X*X1X3X3X3X3X3X3X            ",
"            + @ , 6 0 J U Y [ { ' Z g g N 8.f.B.I.).`.].].].].[.[.].$X;X3X3X3X3X3X3X            ",
"            + @ , 6 0 J P Y [ { ' Z g g B 3.a.N.J.U.)./././.^.^.^.(.'.XX>X5X5X:X;X;X            ",
"            o + # 6 0 J P Y ) _ ' A k z V @.y.j.B.J.I.U.U.U.I.I.I.I.Y._.OX.XXX}.}.}.            ",
"            o O # 6 0 e K I ) _ ' ^ V B ^ +.w.a.j.A.B.C.C.C.B.B.B.V.C.P.T.R.E.m.m.m.            ",
"            o O # 6 0 e K I ) _ ] ( ^ ^ _ +.3.w.y.a.f.j.j.j.g.g.g.f.p.l.M.Z.n.b.b.b.            ",
"            o + # 6 0 J P Y ) { } { _ _ { { +.@.3.3.8.8.7.7.7.7.8.8.>.>.,.-.=.*.*.%             ",
"            $ # , 7 w J U W [ { #.#.{ { { { _ ( Q V B N l B Z Z B l s y t - * . . X             ",
"            < < 1 0 r R  .O.@.$.$.$.+.+.{ _ ^ V k g g g g g g g g f i y t - * & . .             ",
"            2 2 3 e R  .O.3.3.4.4.4.$.+.{ _ ^ V l z g g g g g f f i u y t : = * & &             ",
"            3 3 3 K  .@.3.7.9.9.9.4.4.+.{ { ( ^ Q A B l z z z s s u y y y t : = = =             ",
"            5 5 9 U O.3.9.9.t.t.t.9.4.$.{ { _ ( ( ' ( ( ` ! F m m n n n c c a > > >             ",
"            5 4 4 U O.3.9.r.r.r.t.9.4.+.{ { _ _ { { { { ) Y T L H S S H L L H S S S             ",
"            n v S K E 2.8.7.r.r.t.9.3.+.{ _ _ _ { { { [ / Y P H G S S H L L H G G G             ",
"              v S K E ..2.6.e.e.9.9.3.+.[ ) ) ) _ { [ ) Y I P H G S G H L T L H H H             ",
"                b K E ..1.2.6.8.7.3.@.o.[ ) ) ) ) ) ) ) / I T L H H H L I / I H H H             ",
"                    E X.X.....2.2.@.O.[ / ) / / ) ) ) / / I I L L L L I / / I H G G             ",
"                      R R E E  .o.[ W Y I I I I I I I I I I I L L L L I / / I H G G             ",
"                        J K K P Y I T P H L L L L L L H H H H H H H L L I I L G G G             ",
"                        v S S D L H S S S S S S S S S S G G G G G G G G G H G G S G             ",
"                        4 4 4 b b v v S 9 9 9 9 9 9 9 S S S S S G G G S S G G S S               ",
"                        4 4 v b v 4 4 9 9 9 9 9 9 9 9 9 S S S S G G G G G G G G                 ",
"                        v S v S v S S 9                                                         ",
"                        S S S S S S S                                                           ",
"                        G G G G G S                                                             ",
"                        S G G G G S                                                             ",
"                        G G G G G G                                                             ",
"                        G G G G G G                                                             "
};
