/* XPM */
static char *b9ec77db33024ca3b1fec98b6563a7b0IZI5EjC5kFJdaGWk[] = {
/* columns rows colors chars-per-pixel */
"48 48 208 2 ",
"   c None",
".  c #780000",
"X  c #6E0000",
"o  c #6D1B26",
"O  c #6F1B28",
"+  c #731A26",
"@  c #741B28",
"#  c #7A1C28",
"$  c #7A1B26",
"%  c #7D4D50",
"&  c #890000",
"*  c #940000",
"=  c #A40000",
"-  c #AE0000",
";  c #BC0000",
":  c #B50000",
">  c #B5001A",
",  c #821D29",
"<  c #8B1A28",
"1  c #921E2B",
"2  c #9A1A27",
"3  c #A81C29",
"4  c #BE1C2A",
"5  c #B61827",
"6  c #94202D",
"7  c #9B222F",
"8  c #A9232F",
"9  c #BE222E",
"0  c #AD2531",
"q  c #A22330",
"w  c #B42632",
"e  c #BB2633",
"r  c #BF2B37",
"t  c #C20000",
"y  c #CC0000",
"u  c #D40001",
"i  c #DB0000",
"p  c #D5000C",
"a  c #C50017",
"s  c #DC0013",
"d  c #D7011D",
"f  c #E30000",
"g  c #ED0001",
"h  c #F00000",
"j  c #F2000F",
"k  c #EC041B",
"l  c #ED0C1E",
"z  c #E70217",
"x  c #F40012",
"c  c #CC0821",
"v  c #C11D2B",
"b  c #CA1E2C",
"n  c #C81526",
"m  c #D31D2C",
"M  c #D61628",
"N  c #EB0F20",
"B  c #EC1423",
"V  c #EC1C29",
"C  c #E71324",
"Z  c #F21423",
"A  c #F11D29",
"S  c #C3222E",
"D  c #CB212F",
"F  c #D9222E",
"G  c #C42430",
"H  c #CB2532",
"J  c #C42935",
"K  c #CB2935",
"L  c #D32633",
"P  c #D32A35",
"I  c #DC2A36",
"U  c #D52D39",
"Y  c #DD2E39",
"T  c #DA2735",
"R  c #CF323C",
"E  c #D3333E",
"W  c #DD333C",
"Q  c #ED212D",
"!  c #E3222D",
"~  c #F5232D",
"^  c #ED2631",
"/  c #E42B37",
"(  c #EC2B36",
")  c #E52D39",
"_  c #EB2E39",
"`  c #E72631",
"'  c #F22B35",
"]  c #F32E38",
"[  c #E5313C",
"{  c #EC333C",
"}  c #F3333C",
"|  c #F8323B",
" . c #DB3640",
".. c #DB3D46",
"X. c #D73C45",
"o. c #E33741",
"O. c #E53B44",
"+. c #EB3B44",
"@. c #E83C46",
"#. c #F23640",
"$. c #F23D46",
"%. c #FC3A44",
"&. c #FF3F48",
"*. c #864D51",
"=. c #9E4F54",
"-. c #B55258",
";. c #C94D53",
":. c #C74E53",
">. c #D84D55",
",. c #C95157",
"<. c #D8545A",
"1. c #DD424B",
"2. c #E4434C",
"3. c #EB434C",
"4. c #F4444C",
"5. c #FF434C",
"6. c #E64A53",
"7. c #EB4B54",
"8. c #E84952",
"9. c #F34B54",
"0. c #FC4C54",
"q. c #FF4751",
"w. c #E5525A",
"e. c #EC535B",
"r. c #F5535B",
"t. c #F9525A",
"y. c #E75C65",
"u. c #F85C64",
"i. c #F05F68",
"p. c #DD747D",
"a. c #E6646C",
"s. c #F4636B",
"d. c #F9636B",
"f. c #E46D76",
"g. c #E66E78",
"h. c #F86C75",
"j. c #E3727C",
"k. c #F5727B",
"l. c #D37E82",
"z. c #EB7C86",
"x. c #E67983",
"c. c #F27781",
"v. c #F17D86",
"b. c #9D8586",
"n. c #AB8588",
"m. c #BDAEAE",
"M. c #D38588",
"N. c #DA8488",
"B. c #DE8A95",
"V. c #DE8B96",
"C. c #DC929C",
"Z. c #C4898D",
"A. c #E2848B",
"S. c #EC828A",
"D. c #EB8C94",
"F. c #E28E90",
"G. c #E9929B",
"H. c #F18B92",
"J. c #DD97A2",
"K. c #E39BA6",
"L. c #E195A0",
"P. c #DCA4A7",
"I. c #D5A2AE",
"U. c #D5AAB6",
"Y. c #D4AEBA",
"T. c #D8A6B2",
"R. c #DAB2B9",
"E. c #CAB1B3",
"W. c #E3A7AC",
"Q. c #E5B3B3",
"!. c #F4BBBC",
"~. c #E2AFB0",
"^. c #C8B5C3",
"/. c #CCBECB",
"(. c #CDB9C6",
"). c #D2B6C2",
"_. c #DFBBC4",
"`. c #CAC2CF",
"'. c #D6C7CE",
"]. c #C5CDDB",
"[. c #C7C7D4",
"{. c #C6D1DE",
"}. c #D8CFD2",
"|. c #E7C7C9",
" X c #FCC1C2",
".X c #ECD2D3",
"XX c #E1D4DA",
"oX c #FADADA",
"OX c #E6CCD0",
"+X c #C3D4E1",
"@X c #C3DDEB",
"#X c #C7DBE7",
"$X c #D5DAE3",
"%X c #E9DCE0",
"&X c #C8E2EE",
"*X c #DDE5ED",
"=X c #CAE8F3",
"-X c #D8ECF5",
";X c #ECE9EB",
":X c #ECE8E7",
">X c #F3E4E5",
",X c #F9E7E8",
"<X c #E4F3F9",
"1X c #ECF7FD",
"2X c #F3FCFE",
"3X c #FFFEFE",
"4X c #FCF5F5",
"5X c #F5EEF0",
/* pixels */
"                        G G G H L L D v v v v b b m b v 4 4                                     ",
"                        G G G H L L D v v 4 v b b m b 4 4 5                                     ",
"                        G G G H L L H S S S S D L L D S v 4                                     ",
"                        S S S H L L H H H K K P U U K K K K                                     ",
"                      t t a a c M m F L P P U W W  .E E E E E                                   ",
"                    ; ; ; ; ; y u p d M F Y W o.O.@.........O.o.                                ",
"                ; ; ; ; ; ; ; t u u i z ! _ { +.3.3.2.2.2.2.@.O.{ {                             ",
"              ; ; ; ; ; ; ; ; t y u i C ( } $.4.9.9.7.7.7.8.3.+.{ _ _                           ",
"            t t t t t t t ; ; t p M / +.4.9.0.t.r.r.r.r.9.9.4.$.{ { _ (                         ",
"            ;.;.;.<.w.<.>.;.:.,.<.<.y.a.s.d.d.d.u.u.u.r.t.0.q.5.%.{ _ /                         ",
"            l.l.N.D.G.G.F.N.M.M.N.A.A.S.S.v.c.k.h.d.u.t.0.0.q.5.%.} / I P                       ",
"            P.P.W.!. X X!.Q.~.~.~.W.W.W.K.G.D.S.c.h.u.t.q.5.5.5.%.} / P H w                     ",
"            |.|.|.oX,X,XoXoX.X.XOX|.|._.R.T.K.G.S.k.d.t.5.5.&.&.%.{ I L G 0 6 #                 ",
"            >X>X>X4X3X3X4X4X,X,X>X%XXX}.'.).U.K.D.c.d.0.&.%.%.%.#.) T H e 8 1 # +               ",
"            4X4X4X3X3X3X3X3X3X4X5X;X*X$X{.`.).T.G.z.s.9.%.| | #.{ ) T H e 8 1 , @ @             ",
"            3X3X3X3X3X3X3X3X3X3X2X<X-X&X#X]./.U.L.z.s.4.] ' | } { ) I P J w 7 , # @             ",
"            3X3X3X3X3X3X3X3X3X2X1X<X-X=X@X{./.Y.J.z.i.$.~ ~ ' } { ) Y P K e q , # @             ",
"            3X3X3X3X3X3X3X3X2X1X<X-X=X=X@X+X`.Y.J.x.i.} Z Z ~ } { [ Y P K e q , # @             ",
"            3X3X3X3X3X3X3X2X<X-X-X=X=X=X@X+X`.Y.J.x.e.' j x A ] { [ Y P J w 7 , # @             ",
"            3X3X3X3X3X3X3X<X-X&X#X@X&X&X@X{.`.Y.C.x.e.Q h h Z ' { [ Y P J w 7 , # @             ",
"            3X3X3X3X3X3X1X*X#X+X+X+X@X@X+X]./.U.C.j.7.B g h Z ' { [ Y P J 0 6 , # +             ",
"            3X3X4X3X3X3X;X$X].[.[.].].].].`.).I.B.f.8.N g g Z ' { [ Y U J 0 6 , @ +             ",
"            ;X;X:X5X5X>XXX'.(.^.^.^./././.).U.J.N.a.3.B g g Z ' { [ Y P J 0 6 , @ +             ",
"            }.}.}.XX.XOX_.Y.I.I.I.I.U.U.U.I.J.B.j.y.@.V z k A ' _ ) Y P J 0 6 # @ o             ",
"            m.m.m.E.R.T.P.C.V.B.B.B.C.C.C.B.A.j.a.w.+.^ B V ^ ' _ ) T K e 0 6 # O o             ",
"            b.b.b.n.Z.M.l.p.f.g.g.g.j.j.j.f.a.y.w.2.o._ ^ ^ ( ] _ / T K e 0 6 # O o             ",
"            % *.*.=.-.,.>.>.6.7.7.7.7.7.8.8.2.3.+.+.{ { _ _ { } { ) Y P J 0 6 # @ o             ",
"            X . . * - t u s l B Z Z B l N B V Q ^ _ { { { { #.#.{ [ W U J w 7 , # $             ",
"            . . & * - t y u f g g g g g g g g k V ^ _ { +.+.$.$.$.+.O. .R r 0 1 < <             ",
"            & & * = : t y u u f f g g g g g j l V ^ _ { +.$.4.4.4.3.3.O. .R e 3 2 2             ",
"            = = = : t y y y u s s z z k l B A Q ^ ( { { +.4.4.0.9.9.7.3.@. .K 3 3 3             ",
"            > > > a c c n n n m m F ! ` ( ( ' ( ( _ { { $.4.9.t.t.r.9.9.3.O.U 9 5 5             ",
"            S S S H L L H S S H L P Y ) { { { { _ _ { { +.4.9.t.r.r.r.9.3.O.U 4 4 5             ",
"            G G G H L L H S S G K P Y [ [ { { { _ _ _ { +.3.9.r.r.r.7.6.2.E K S v n             ",
"            H H H L T L H G S G H P T Y ) [ { _ ) / ) [ +.3.9.9.e.e.6.2...E K S v               ",
"            H H H T / I L H H H L P T / ) ) ) ) ) / ) [ o.+.3.7.8.6.6.1...E K b                 ",
"            G G H I / / T L L L L T I / / ) ) ) / / ) / [ O.+.2.2.....X.X.E                     ",
"            G G H I / / I L L L L T T T I I I I I I I I Y [ [ o. .E E R R                       ",
"            G G G L I I L L H H H H H H H L L L L L L H P P T Y P K K J                         ",
"            G S G G H G G G G G G G G G S S S S S S S S S S H L D S S v                         ",
"              S S G G S S G G G S S S S S 9 9 9 9 9 9 9 S v v b b 4 4 4                         ",
"                G G G G G G G G S S S S 9 9 9 9 9 9 9 9 9 4 4 v b v 4 4                         ",
"                                                        9 S S v S v S v                         ",
"                                                          S S S S S S S                         ",
"                                                            S G G G G G                         ",
"                                                            S G G G G S                         ",
"                                                            G G G G G G                         ",
"                                                            G G G G G G                         "
};
