/* XPM */
static char *d654183be91a4cedb7099ebb718a3a37NdEcj4mav1dB0lbR[] = {
/* columns rows colors chars-per-pixel */
"48 48 209 2 ",
"   c None",
".  c #780000",
"X  c #6E0000",
"o  c #6D1B26",
"O  c #6F1B28",
"+  c #731A26",
"@  c #741B28",
"#  c #7B1C28",
"$  c #7A1B26",
"%  c #7D4D50",
"&  c #890000",
"*  c #940000",
"=  c #A40000",
"-  c #AE0000",
";  c #BC0000",
":  c #B50000",
">  c #B5001A",
",  c #831D29",
"<  c #8D1E2A",
"1  c #891A27",
"2  c #931F2B",
"3  c #991C28",
"4  c #A81C29",
"5  c #BC1626",
"6  c #BE1C2A",
"7  c #B71927",
"8  c #94202C",
"9  c #9C212E",
"0  c #A4212D",
"q  c #AD222E",
"w  c #B5222E",
"e  c #BD222E",
"r  c #AD2531",
"t  c #A22330",
"y  c #B42632",
"u  c #BC2632",
"i  c #BF2B37",
"p  c #C20000",
"a  c #CC0000",
"s  c #D40001",
"d  c #DB0000",
"f  c #D5000C",
"g  c #C50017",
"h  c #DC0013",
"j  c #D7011D",
"k  c #E30000",
"l  c #ED0001",
"z  c #F00000",
"x  c #F2000F",
"c  c #ED0C1E",
"v  c #E90318",
"b  c #F40012",
"n  c #CC0821",
"m  c #C11D2B",
"M  c #CA1E2C",
"N  c #C71526",
"B  c #D31D2C",
"V  c #D61628",
"C  c #EB0F20",
"Z  c #EC1423",
"A  c #EC1C29",
"S  c #E71324",
"D  c #F21423",
"F  c #F11D29",
"G  c #C3222E",
"H  c #CB212F",
"J  c #D9222E",
"K  c #C42430",
"L  c #CC2532",
"P  c #C42935",
"I  c #CB2935",
"U  c #D22633",
"Y  c #D82734",
"T  c #D32A35",
"R  c #DC2A36",
"E  c #D52D39",
"W  c #DD2D38",
"Q  c #CE313C",
"!  c #D4333E",
"~  c #DD333C",
"^  c #ED212D",
"/  c #E3222D",
"(  c #F5232D",
")  c #ED2631",
"_  c #E42B37",
"`  c #EC2B36",
"'  c #E42E39",
"]  c #EB2E39",
"[  c #E72631",
"{  c #F22B35",
"}  c #F32E38",
"|  c #E6313C",
" . c #EC333C",
".. c #F3333C",
"X. c #F8323B",
"o. c #DC3641",
"O. c #DB3D46",
"+. c #D53A42",
"@. c #EA3741",
"#. c #E43B44",
"$. c #EC3B44",
"%. c #E73B45",
"&. c #F23640",
"*. c #F23D46",
"=. c #FC3A44",
"-. c #F93F49",
";. c #864D51",
":. c #9E4F54",
">. c #B55258",
",. c #C94D53",
"<. c #C74E53",
"1. c #D84D55",
"2. c #C95157",
"3. c #D8545A",
"4. c #DC424A",
"5. c #E3444D",
"6. c #EC434C",
"7. c #F4444C",
"8. c #FF434C",
"9. c #E74A53",
"0. c #EB4B54",
"q. c #EB4B54",
"w. c #F44B54",
"e. c #FC4C54",
"r. c #FF4751",
"t. c #E5525A",
"y. c #EB545D",
"u. c #F4535B",
"i. c #F9525A",
"p. c #E75C65",
"a. c #F85C64",
"s. c #F05F68",
"d. c #DD747D",
"f. c #E6646C",
"g. c #F4636B",
"h. c #F9636B",
"j. c #E56D77",
"k. c #F86C75",
"l. c #E3727C",
"z. c #F5727B",
"x. c #D37E82",
"c. c #EB7C86",
"v. c #E67983",
"b. c #F27781",
"n. c #F17D86",
"m. c #9D8586",
"M. c #AB8588",
"N. c #BDAEAE",
"B. c #D38588",
"V. c #DA8488",
"C. c #DE8A95",
"Z. c #DE8B96",
"A. c #DC929C",
"S. c #C4898D",
"D. c #EC828A",
"F. c #E2848B",
"G. c #E98C93",
"H. c #E9929B",
"J. c #F18B92",
"K. c #DD97A2",
"L. c #E39BA6",
"P. c #E195A0",
"I. c #DCA4A7",
"U. c #D5A2AE",
"Y. c #D5AAB6",
"T. c #D4AEBA",
"R. c #D8A6B2",
"E. c #DAB2B9",
"W. c #CAB1B3",
"Q. c #E3A7AC",
"!. c #E5B3B3",
"~. c #F4BBBC",
"^. c #E2AFB0",
"/. c #C8B5C3",
"(. c #CCBECB",
"). c #CDB9C6",
"_. c #D2B6C2",
"`. c #DFBBC4",
"'. c #CAC2CF",
"]. c #D6C7CE",
"[. c #C5CDDB",
"{. c #C7C7D4",
"}. c #C6D1DE",
"|. c #D8CFD2",
" X c #E7C7C9",
".X c #FCC1C2",
"XX c #ECD2D3",
"oX c #E1D4DA",
"OX c #FADADA",
"+X c #E6CCD0",
"@X c #C3D4E1",
"#X c #C3DDEB",
"$X c #C7DBE7",
"%X c #D5DAE3",
"&X c #E9DCE0",
"*X c #C8E2EE",
"=X c #DDE5ED",
"-X c #CAE8F3",
";X c #D8ECF5",
":X c #ECE9EB",
">X c #ECE8E7",
",X c #F3E4E5",
"<X c #F9E7E8",
"1X c #E4F3F9",
"2X c #ECF7FD",
"3X c #F3FCFE",
"4X c #FFFEFE",
"5X c #FCF5F5",
"6X c #F5EEF0",
/* pixels */
"                        K K K L U U H m m m m M M B M m 6 6                                     ",
"                        K K K L U U H m m 6 m M M B M 6 6 5                                     ",
"                        K K K L U U L G G G G H U U H G m 6                                     ",
"                        G G G L U U U L L I I T E E I I I I                                     ",
"                      p p g g n V B J U T T E ~ ~ o.! ! ! ! !                                   ",
"                    ; ; ; ; ; a s f j V J W ~ #.#.%.O.O.O.O.#.#.                                ",
"                ; ; ; ; ; ; ; p a s d v / ]  .$.6.6.5.5.5.5.%.%. . .                            ",
"              ; ; ; ; ; ; ; ; p a s d S ` ..*.7.w.w.q.q.q.6.6.$. .] `                           ",
"            p p p p p p p ; ; p f V ' $.7.w.e.i.i.u.u.u.w.w.7.*. . .] `                         ",
"            ,.,.,.3.t.3.1.,.<.2.3.3.p.f.g.h.h.h.a.a.a.u.i.e.r.8.=. .] _                         ",
"            x.x.V.G.H.H.G.V.B.B.V.F.F.D.D.n.b.z.k.h.a.i.e.e.r.8.=..._ R Y                       ",
"            I.I.Q.~..X.X~.!.^.^.^.Q.Q.Q.L.H.G.D.b.k.a.i.r.8.8.8.=..._ Y L y                     ",
"             X X XOX<X<XOXOXXXXX+X X X`.E.R.L.H.D.z.h.i.8.8.-.=.=. .R U K q 8 #                 ",
"            ,X,X,X5X4X4X5X5X<X<X,X&XoX|.]._.Y.L.G.b.h.e.-.=.=.=.&._ R L u 0 2 # +               ",
"            5X5X5X4X4X4X4X4X4X5X6X:X=X%X}.'._.R.H.c.g.w.=.X.X.&. ._ R L u q 2 , @ @             ",
"            4X4X4X4X4X4X4X4X4X4X3X1X;X*X$X[.(.Y.P.c.g.7.} { X... ._ R T P y 9 , $ @             ",
"            4X4X4X4X4X4X4X4X4X3X2X1X;X-X#X}.(.T.K.c.s.*.( ( { .. ._ W Y I u t , $ @             ",
"            4X4X4X4X4X4X4X4X3X2X1X;X-X-X#X@X'.T.K.v.s...D D ( .. .| W Y I u t , $ @             ",
"            4X4X4X4X4X4X4X3X1X;X;X-X-X-X#X@X'.T.K.v.y.{ x b F }  .| W Y P y 9 , $ @             ",
"            4X4X4X4X4X4X4X1X;X*X$X#X*X*X#X}.'.T.A.v.y.^ z z D {  .| W T P y 9 , # @             ",
"            4X4X4X4X4X4X2X=X$X@X@X@X#X#X@X[.(.Y.A.l.q.Z l z D {  .| W T P r 8 , $ +             ",
"            4X4X5X4X4X4X:X%X{.{.{.[.[.[.[.'._.U.C.j.6.C l z D {  .| W E P r 8 , @ +             ",
"            :X:X>X6X6X,XoX].)./././.(.(.(._.Y.K.V.f.6.Z l l D {  .| W T P r 8 , @ +             ",
"            |.|.|.oXXX+X`.T.U.U.U.U.Y.Y.Y.U.K.C.l.p.%.A v v F { ` _ W T P r 8 # @ o             ",
"            N.N.N.W.E.R.I.A.Z.C.C.C.A.A.A.C.F.l.f.t.$.) Z A ) ` ] _ R I u r 8 # O o             ",
"            m.m.m.M.S.B.x.d.j.j.j.j.l.l.l.j.f.p.t.5.@.] ) ) ` ` ` _ R I u r 8 # O o             ",
"            % ;.;.:.>.2.1.1.9.0.0.0.q.q.9.9.6.6.$.$. . .] `  ... ._ R T P r 8 # @ o             ",
"            X . . * - p s h c Z D D Z c C Z A ^ ) ]  . . . .&.&. .| ~ E P y 9 , # $             ",
"            . . & * - p a d k l l l l l l l l c A ) ]  .@.$.*.*.*.$.#.o.Q i r 2 1 1             ",
"            & & * = : p a s d k k l l l l l x c A ) ]  .@.*.7.7.7.6.6.#.o.Q u 4 3 3             ",
"            = = = : p a a a s h h v v v c Z F ^ ) `  . .$.7.7.w.w.w.0.6.%.o.I 4 4 4             ",
"            > > > g n n N N N B B J / [ ` ` { ` ` `  . .*.7.w.i.i.u.w.w.6.%.E e 7 7             ",
"            G G G L U U L G G L L Y W '  . . . .` ]  . .$.7.w.i.u.u.u.w.6.%.E 6 6 5             ",
"            L K K L U U L G G K L T R ' |  . . .] ] ]  .$.6.w.u.u.u.q.9.5.! I G m N             ",
"            L L L U Y U L K G K L T R W ' |  .] _ _ _ | $.6.w.w.u.q.9.5.O.! I G N               ",
"            L L L U Y Y U L L L U Y R ' _ _ | _ _ _ _ | @.*.7.w.w.9.5.4.O.! I M                 ",
"            L L L U R R U U U U Y R R _ ' _ _ _ _ _ ' _ | $.*.7.6.5.O.+.+.!                     ",
"            L L L U R R Y U U U Y R R R R R R R R R R W ' | @.$.$.! Q Q Q                       ",
"            K K K L Y Y U L L L L L L L L U U U L L L U T R W ' W P I I                         ",
"            K K K L L L K G K K K K K G G G G G K K G G G G G G G G G m                         ",
"            e e e K K u K G K K K G G G e e e e e e e e e 6 6 6 6 6 5                           ",
"            q q q w w w e e K K K G G G e e e e e e e e 6 6 6 6 5 5                             ",
"            0 0 0 0 0 q q w                                                                     ",
"            8 8 2 3 9 9 0                                                                       ",
"            < < < < < <                                                                         ",
"            , , , , , ,                                                                         ",
"            , , , , # #                                                                         ",
"            , , , , , #                                                                         "
};
