/* XPM */
static char *d00aea5808164bc7cd640e06366fcf320S6gRwO3Fvs6E04v[] = {
/* columns rows colors chars-per-pixel */
"48 48 209 2 ",
"   c None",
".  c #780000",
"X  c #6E0000",
"o  c #6D1B26",
"O  c #6F1B28",
"+  c #731A26",
"@  c #741B28",
"#  c #7B1C28",
"$  c #7A1B26",
"%  c #7D4D50",
"&  c #890000",
"*  c #940000",
"=  c #A40000",
"-  c #AE0000",
";  c #BC0000",
":  c #B50000",
">  c #B5001A",
",  c #831D29",
"<  c #8D1E2A",
"1  c #891A27",
"2  c #931F2B",
"3  c #991C28",
"4  c #A81C29",
"5  c #BC1626",
"6  c #BE1C2A",
"7  c #B71927",
"8  c #94202C",
"9  c #9C212E",
"0  c #A4212D",
"q  c #AD222E",
"w  c #B5222E",
"e  c #BD222E",
"r  c #AD2531",
"t  c #A22330",
"y  c #B42632",
"u  c #BC2632",
"i  c #BF2B37",
"p  c #C20000",
"a  c #CC0000",
"s  c #D40001",
"d  c #DB0000",
"f  c #D5000C",
"g  c #C50017",
"h  c #DC0013",
"j  c #D7011D",
"k  c #E30000",
"l  c #ED0001",
"z  c #F00000",
"x  c #F2000F",
"c  c #ED0C1E",
"v  c #E90318",
"b  c #F40012",
"n  c #CC0821",
"m  c #C11D2B",
"M  c #CA1E2C",
"N  c #C71526",
"B  c #D31D2C",
"V  c #D61628",
"C  c #EB0F20",
"Z  c #EC1423",
"A  c #EC1C29",
"S  c #E71324",
"D  c #F21423",
"F  c #F11D29",
"G  c #C3222E",
"H  c #CB212F",
"J  c #D9222E",
"K  c #C42430",
"L  c #CC2532",
"P  c #C42935",
"I  c #CB2935",
"U  c #D22633",
"Y  c #D82734",
"T  c #D32A35",
"R  c #DC2A36",
"E  c #D52D39",
"W  c #DD2D38",
"Q  c #CE313C",
"!  c #D4333E",
"~  c #DD333C",
"^  c #ED212D",
"/  c #E3222D",
"(  c #F5232D",
")  c #ED2631",
"_  c #E42B37",
"`  c #EC2B36",
"'  c #E42E39",
"]  c #EB2E39",
"[  c #E72631",
"{  c #F22B35",
"}  c #F32E38",
"|  c #E6313C",
" . c #EC333C",
".. c #F3333C",
"X. c #F8323B",
"o. c #DC3641",
"O. c #DB3D46",
"+. c #D53A42",
"@. c #EA3741",
"#. c #E43B44",
"$. c #EC3B44",
"%. c #E73B45",
"&. c #F23640",
"*. c #F23D46",
"=. c #FC3A44",
"-. c #F93F49",
";. c #864D51",
":. c #9E4F54",
">. c #B55258",
",. c #C94D53",
"<. c #C74E53",
"1. c #D84D55",
"2. c #C95157",
"3. c #D8545A",
"4. c #DC424A",
"5. c #E3444D",
"6. c #EC434C",
"7. c #F4444C",
"8. c #FF434C",
"9. c #E74A53",
"0. c #EB4B54",
"q. c #EB4B54",
"w. c #F44B54",
"e. c #FC4C54",
"r. c #FF4751",
"t. c #E5525A",
"y. c #EB545D",
"u. c #F4535B",
"i. c #F9525A",
"p. c #E75C65",
"a. c #F85C64",
"s. c #F05F68",
"d. c #DD747D",
"f. c #E6646C",
"g. c #F4636B",
"h. c #F9636B",
"j. c #E56D77",
"k. c #F86C75",
"l. c #E3727C",
"z. c #F5727B",
"x. c #D37E82",
"c. c #EB7C86",
"v. c #E67983",
"b. c #F27781",
"n. c #F17D86",
"m. c #9D8586",
"M. c #AB8588",
"N. c #BDAEAE",
"B. c #D38588",
"V. c #DA8488",
"C. c #DE8A95",
"Z. c #DE8B96",
"A. c #DC929C",
"S. c #C4898D",
"D. c #EC828A",
"F. c #E2848B",
"G. c #E98C93",
"H. c #E9929B",
"J. c #F18B92",
"K. c #DD97A2",
"L. c #E39BA6",
"P. c #E195A0",
"I. c #DCA4A7",
"U. c #D5A2AE",
"Y. c #D5AAB6",
"T. c #D4AEBA",
"R. c #D8A6B2",
"E. c #DAB2B9",
"W. c #CAB1B3",
"Q. c #E3A7AC",
"!. c #E5B3B3",
"~. c #F4BBBC",
"^. c #E2AFB0",
"/. c #C8B5C3",
"(. c #CCBECB",
"). c #CDB9C6",
"_. c #D2B6C2",
"`. c #DFBBC4",
"'. c #CAC2CF",
"]. c #D6C7CE",
"[. c #C5CDDB",
"{. c #C7C7D4",
"}. c #C6D1DE",
"|. c #D8CFD2",
" X c #E7C7C9",
".X c #FCC1C2",
"XX c #ECD2D3",
"oX c #E1D4DA",
"OX c #FADADA",
"+X c #E6CCD0",
"@X c #C3D4E1",
"#X c #C3DDEB",
"$X c #C7DBE7",
"%X c #D5DAE3",
"&X c #E9DCE0",
"*X c #C8E2EE",
"=X c #DDE5ED",
"-X c #CAE8F3",
";X c #D8ECF5",
":X c #ECE9EB",
">X c #ECE8E7",
",X c #F3E4E5",
"<X c #F9E7E8",
"1X c #E4F3F9",
"2X c #ECF7FD",
"3X c #F3FCFE",
"4X c #FFFEFE",
"5X c #FCF5F5",
"6X c #F5EEF0",
/* pixels */
"                                    6 6 m M B M M m m m m H U U L K K K                         ",
"                                    5 6 6 M B M M m 6 m m H U U L K K K                         ",
"                                    6 m G H U U H G G G G L U U L K K K                         ",
"                                    I I I I E E T I I L L L U U L G G G                         ",
"                                  ! ! ! ! ! o.~ ~ E T T U J B V n g g p p                       ",
"                                #.#.O.O.O.O.%.#.#.~ W J V j f s a ; ; ; ; ;                     ",
"                            |  .%.%.5.5.5.5.6.6.$. .] / v d s a p ; ; ; ; ; ; ;                 ",
"                          ] ]  .$.6.6.q.q.q.w.w.7.*...` S d s a p ; ; ; ; ; ; ; ;               ",
"                        ` ] |  .*.7.w.w.u.u.u.i.i.w.w.7.$._ V f p ; ; p p p p p p p             ",
"                        _ ] | =.8.e.e.i.u.a.a.a.h.h.g.g.f.p.3.3.2.<.,.3.3.t.3.,.,.,.            ",
"                      Y R _ ..=.8.r.e.e.i.a.h.k.z.b.n.D.D.F.F.V.B.B.V.G.H.J.G.V.x.x.            ",
"                    y L Y _ ..=.8.8.8.e.i.a.k.b.D.G.H.L.Q.Q.Q.^.^.^.!.~..X.X~.Q.I.I.            ",
"                # 8 q K U R  .=.=.-.8.8.i.g.z.D.H.L.R.E.`. X X+XXXXXOXOX<X<XOX X X X            ",
"              + # 2 0 u L R ' &.=.=.=.-.w.g.b.G.L.Y._.].|.oX&X,X<X<X5X5X4X4X5X,X,X,X            ",
"            + @ , 2 0 u L R '  .&.X.X.=.w.g.c.H.R._.'.}.%X=X:X6X5X4X4X4X4X4X4X4X4X5X            ",
"            @ $ , 9 y P T R '  ...X.{ } 7.g.c.P.Y.(.[.$X*X;X1X3X4X4X4X4X4X4X4X4X4X4X            ",
"            @ $ , t u I Y W '  ...{ ( ( *.s.c.K.T.(.}.#X-X;X1X2X3X4X4X4X4X4X4X4X4X4X            ",
"            @ $ , t u I Y W |  ...( D D ..s.v.K.T.'.@X#X-X-X;X1X2X3X4X4X4X4X4X4X4X4X            ",
"            @ $ , 9 y P Y W |  .} F b x { y.v.K.T.'.@X#X*X-X-X;X;X1X3X4X4X4X4X4X4X4X            ",
"            @ # , 9 y P T W |  .{ D z z ^ y.v.A.T.'.}.#X*X*X#X$X*X;X1X3X4X4X4X4X4X4X            ",
"            + $ , 8 r P T W |  .{ D z l Z q.l.A.Y.(.[.@X#X#X@X@X@X$X=X2X4X4X4X4X4X4X            ",
"            + @ , 8 r P E W |  .{ D l l C 6.j.C.U._.'.[.[.[.[.{.{.[.%X:X4X4X4X4X4X4X            ",
"            + @ , 8 r P T W |  .{ D l l Z 6.f.V.K.Y._.(.(.(./././.).].oX,X6X6X>X:X:X            ",
"            o + # 8 r P T W ' ] { F v v A %.p.l.C.K.U.Y.Y.Y.U.U.U.U.T.`.+XXXoX|.|.|.            ",
"            o O # 8 r u I R ' ] { ) A Z ) $.t.f.l.F.C.A.A.A.C.C.C.Z.A.I.R.E.W.N.N.N.            ",
"            o O # < r u I R _ ] } ` ) ) ] @.6.t.p.f.j.l.l.l.j.j.j.j.d.x.B.S.M.m.m.m.            ",
"            o + # 8 r P T W '  ... .] ] |  .$.%.6.6.9.9.q.0.0.0.9.9.1.1.2.>.:.;.;.%             ",
"            $ # , 9 y P E ~ |  .&.&. . . .| ] ` ^ A Z C c Z D D Z c h a p - * . . X             ",
"            1 1 2 r i Q o.#.%.*.*.*.$.@. .] ) A c l l l l l l l l k d a p - * & . .             ",
"            3 3 4 u Q o.#.6.6.7.7.7.*.@. .] ) A c v l l l l l l k d s a p : = * & &             ",
"            4 4 4 I o.%.6.0.w.w.w.7.7.$. . .` ) ^ F Z c v v v h h s a a a p : = = =             ",
"            7 7 e E %.6.w.w.u.i.i.w.7.*. . .] ` ` { ` ` [ / J B B N N N n n g > > >             ",
"            5 6 6 E %.6.w.u.u.u.i.w.7.$. .| ] ]  . . .| ' W Y L L G G L U U L G G G             ",
"            N m G I ! 5.9.q.u.u.u.w.6.$. .] ] ] | |  .| _ W T L K G G L U U L K K L             ",
"              N G I ! O.5.9.q.u.u.w.6.$.| ' _ ' ] | | ' W R T L K G K L U Y U L L L             ",
"                M I ! O.4.5.9.w.w.7.*.@.| ' _ _ ] ' ' ' _ R Y U L L L U Y Y U L L L             ",
"                    ! +.+.O.5.6.7.*.$.| ' _ _ _ ' ' ' _ _ R R Y U U U U R R U L L L             ",
"                      Q Q Q ! $.$.@.| _ W R R R R R R R R R R Y U U U Y R R U L L L             ",
"                        I I P W _ W R T U L L L U U U L L L L L L L L U Y Y L K K K             ",
"                        m G G G G G G G G G K K G G G G G K K K K K G K L L L K K K             ",
"                          5 6 6 6 6 6 e e e e e e e e e G G G K K K G K u K K e e e             ",
"                            5 5 6 6 6 6 e e e e e e e e G G G K K K e e w w w q q q             ",
"                                                                    w q 0 0 0 0 0 0             ",
"                                                                      0 9 9 3 2 8 8             ",
"                                                                        < < < < < <             ",
"                                                                        , , , , , ,             ",
"                                                                        # # , , , ,             ",
"                                                                        # , , , , ,             "
};
