/* XPM */
static char *_b51501bdbea4641e5ec5d9a6b9e5b51oK9uDTuHgRoATILU[] = {
/* columns rows colors chars-per-pixel */
"48 48 7 1 ",
"  c None",
". c white",
"X c #222034",
"o c #A29BE5",
"O c #DBD7FF",
"+ c #100E1A",
"@ c #7871B6",
/* pixels */
"                                                ",
"                                                ",
"                                                ",
"                                                ",
"                                                ",
"                                                ",
"                                                ",
"                                                ",
"                                                ",
"                                                ",
"                                                ",
"                     .....                      ",
"                  ...XXXXX...                   ",
"                ..XXXoooooXXX..                 ",
"               .XXoooOOOOOoooXX.                ",
"              .XooOOoooooooOOooX.               ",
"             .XoooooooooooooooooX.              ",
"             .XoooooooooooooooooX.              ",
"            .XoooooooooooooooooooX.             ",
"            .Xoooooooo++.oooooo++X.             ",
"            .Xoooooooo+++oooooo++X.             ",
"            .Xoooooooo+++oooooo++X.             ",
"           .XooooooooooooooooooooX.             ",
"          .X@ooooooooooooooo@@oooX+.            ",
"         .+@@@@@@@oooooooooooooo@X++.           ",
"         .+++@@@@@@ooooooooooooo@+++.           ",
"          .+++++++@oooooooooooo@+++.            ",
"           ..++++@ooooooooooo@@@+.              ",
"            .+@@oooooooooo@@@@@++.              ",
"           .+@@@@@@@@@@@@@@@@+++.               ",
"          .+@@@@@@@@@@@@@@+++++.                ",
"          .++++++++++++++++++..                 ",
"           .++++++++++++++...                   ",
"            ..............                      ",
"                                                ",
"                                                ",
"                                                ",
"                                                ",
"                                                ",
"                                                ",
"                                                ",
"                                                ",
"                                                ",
"                                                ",
"                                                ",
"                                                ",
"                                                ",
"                                                "
};
