/* XPM */
static char *_192dd4978c042cdb1ae69eb3feba190aDStt5oS1ZxTT5WT[] = {
/* columns rows colors chars-per-pixel */
"48 48 7 1 ",
"  c None",
". c white",
"X c #222034",
"o c #A29BE5",
"O c #DBD7FF",
"+ c #100E1A",
"@ c #7871B6",
/* pixels */
"                                                ",
"                                                ",
"                                                ",
"                                                ",
"                                                ",
"                                                ",
"                                                ",
"                                                ",
"                                                ",
"                                                ",
"                                                ",
"                                                ",
"                     .....                      ",
"                  ...XXXXX...                   ",
"                ..XXXoooooXXX..                 ",
"               .XXoooOOOOOoooXX.                ",
"              .XooOOoooooooOOooX.               ",
"             .XoooooooooooooooooX.              ",
"             .XoooooooooooooooooX.              ",
"            .XoooooooooooooooooooX.             ",
"            .Xoooooooo++.oooooo++X.             ",
"           .Xooooooooo+++oooooo++X.             ",
"          .X@ooooooooo+++oooooo++X+.            ",
"         .+@@@@@@@oooooooooooooooX++.           ",
"         .+++@@@@@@ooooooooo@@oooX++.           ",
"          .+++++++@ooooooooooooo@X+.            ",
"           ..++++@oooooooooooooo@+.             ",
"            .+@@@oooooooooooooo@++.             ",
"           .+@@@ooooooooooooo@@@+.              ",
"          .+@@@ooooooooooo@@@@@++.              ",
"          .+++@@@@@@@@@@@@@@@+++.               ",
"           .+++@@@@@@@@@@@+++++.                ",
"            .++++++++++++++++..                 ",
"             .++++++++++++...                   ",
"              ............                      ",
"                                                ",
"                                                ",
"                                                ",
"                                                ",
"                                                ",
"                                                ",
"                                                ",
"                                                ",
"                                                ",
"                                                ",
"                                                ",
"                                                ",
"                                                "
};
