/* XPM */
static char *_f423fbcabd74cdea700f70f7a5af0e3DJcR9j3E4ngnNjVM[] = {
/* columns rows colors chars-per-pixel */
"48 48 7 1 ",
"  c None",
". c white",
"X c #222034",
"o c #A29BE5",
"O c #DBD7FF",
"+ c #100E1A",
"@ c #7871B6",
/* pixels */
"                                                ",
"                                                ",
"                                                ",
"                                                ",
"                                                ",
"                                                ",
"                                                ",
"                                                ",
"                                                ",
"                                                ",
"                                                ",
"                                                ",
"                                                ",
"                     .....                      ",
"                  ...XXXXX...                   ",
"                ..XXXoooooXXX..                 ",
"               .XXoooOOOOOoooXX.                ",
"              .XooOOoooooooOOooX.               ",
"             .XoooooooooooooooooX.              ",
"             .XoooooooooooooooooX.              ",
"            .XoooooooooooooooooooX.             ",
"            .Xoooooooo++.oooooo++X.             ",
"            .Xoooooooo+++oooooo++X.             ",
"           .Xooooooooo+++oooooo++X.             ",
"          .X@ooooooooooooooooooooX+.            ",
"         .+@@@@@@@oooooooooo@@oooX++.           ",
"         .+++@@@@@@ooooooooooooo@X++.           ",
"          .+++++++@ooooooooooooo@++.            ",
"           ..++++@ooooooooooooo@++.             ",
"            .+@@@oooooooooooo@@@+.              ",
"           .+@@@oooooooooo@@@@@++.              ",
"          .+@@@@@@@@@@@@@@@@@+++.               ",
"          .+++@@@@@@@@@@@@+++++.                ",
"           .+++++++++++++++++..                 ",
"            ..++++++++++++...                   ",
"              ............                      ",
"                                                ",
"                                                ",
"                                                ",
"                                                ",
"                                                ",
"                                                ",
"                                                ",
"                                                ",
"                                                ",
"                                                ",
"                                                ",
"                                                "
};
