/* XPM */
static char *_aad2d0901044ba2be6dac08bf105d36qkuJq0L3bnC7nvpE[] = {
/* columns rows colors chars-per-pixel */
"48 48 10 1 ",
"  c None",
". c black",
"X c #40310C",
"o c #6C330D",
"O c #70581B",
"+ c #DF7126",
"@ c #D3A635",
"# c #FFCC4B",
"$ c #FFF4D8",
"% c white",
/* pixels */
"                                                ",
"                                                ",
"                                                ",
"                                                ",
"                                                ",
"                                                ",
"                                                ",
"                                                ",
"                                                ",
"                                                ",
"                                                ",
"                                                ",
"                                                ",
"                                                ",
"                                                ",
"                                                ",
"                                                ",
"                                                ",
"                                                ",
"                                                ",
"                                                ",
"                                                ",
"                                                ",
"                       %%%%                     ",
"                     %%OOOO%%                   ",
"                    %OO$$$$OO%                  ",
"                   %O$$####$$O%                 ",
"                  %O$########$O%                ",
"                  %O####.%####O%                ",
"                  %O####..####Oo%               ",
"                  %O####..####++o%              ",
"                  %O#########++++o%             ",
"                  %X@########@Xoo%              ",
"                 %%%X@#######X%%%               ",
"                %XX%%X@@@@@@X%                  ",
"               %X@@XX@@@@@@@@X%                 ",
"               %O@@@######@@@@X%                ",
"               %O@###########@X%                ",
"               %O#############O%                ",
"               %O#########@###O%                ",
"               %XX@######@@##@X%                ",
"                %XX@@@@@@@@@@XX%                ",
"                 %XXXXXXXXXXXX%                 ",
"                  %XXXXXXXXXX%                  ",
"                   %%XooXXX%%                   ",
"                     %++oo%                     ",
"                     %+++oo%                    ",
"                      %%%%%                     "
};
