/* XPM */
static char *a8e3e0b1be374a6ff1bef25e341d6323zZ83CzXuUlTP214F[] = {
/* columns rows colors chars-per-pixel */
"48 48 10 1 ",
"  c None",
". c black",
"X c #40310C",
"o c #6C330D",
"O c #70581B",
"+ c #DF7126",
"@ c #D3A635",
"# c #FFCC4B",
"$ c #FFF4D8",
"% c white",
/* pixels */
"                                                ",
"                                                ",
"                                                ",
"                                                ",
"                                                ",
"                                                ",
"                                                ",
"                                                ",
"                                                ",
"                                                ",
"                                                ",
"                                                ",
"                                                ",
"                                                ",
"                                                ",
"                                                ",
"                                                ",
"                                                ",
"                                                ",
"                                                ",
"                                                ",
"                                                ",
"                     %%%%                       ",
"                   %%OOOO%%                     ",
"                  %OO$$$$OO%                    ",
"                 %O$$####$$O%                   ",
"                %O$########$O%                  ",
"                %O#####%.###O%                  ",
"                %O#####..###O%                  ",
"               %o++####..###O%                  ",
"              %o++++########O%                  ",
"               %oX@@#######@X%                  ",
"                %%X#######@X%%%                 ",
"                  %X@@@@@@X%%XX%                ",
"                 %X@@@@@@@@XX@@X%               ",
"                %X@@@@@######@@O%               ",
"                %X@@###########O%               ",
"                %O#############O%               ",
"                %O####@########O%               ",
"                %X@###@@#####@XX%               ",
"                %XX@@@@@@@@@@XX%                ",
"                 %XXXXXXXXXXXX%                 ",
"                  %XXXXXXXXXX%                  ",
"                   %XXXX%oo%%                   ",
"                    %oo%%++%                    ",
"                    %oo%+++%                    ",
"                   %ooo%%%%                     ",
"                    %%%                         "
};
