/* XPM */
static char *_816ed907d224431fcfb7a8dcf186d50tQlarAbsoOVzDiDE[] = {
/* columns rows colors chars-per-pixel */
"48 48 12 1 ",
"  c black",
". c #00A4FF",
"X c None",
"o c white",
"O c #70581B",
"+ c #FFF4D8",
"@ c #FFCC4B",
"# c black",
"$ c #DF7126",
"% c #6C330D",
"& c #40310C",
"* c #D3A635",
/* pixels */
"                                                ",
"                                                ",
"                                                ",
"                                                ",
"                                                ",
"                                                ",
"                                                ",
"                                                ",
"                                                ",
"                                                ",
"                                                ",
"                                                ",
"                                                ",
"                                                ",
"                                                ",
"                                                ",
"                                                ",
"                                                ",
"                                                ",
"                                                ",
"                                                ",
"                                                ",
"                       oooo                     ",
"                .....ooOOOOoo...                ",
"                ....oOO++++OOo..                ",
"                ...oO++@@@@++Oo.                ",
"                ..oO+@@@@@@@@+Oo                ",
"                ..oO@@@#o@@@@@Oo                ",
"                ..oO@@@##@@@@@Oo                ",
"                ..oO@@@##@@@@$$%o               ",
"                ..oO@@@@@@@@$$$$%o              ",
"                ..o&*@@@@@@@**&%o               ",
"                .ooo&*@@@@@@@&oo                ",
"                o&&oo&******&o..                ",
"               o&**&&********&o.                ",
"               oO**@@@@@@*****&o                ",
"               oO@@@@@@@@@@@**&o                ",
"               oO@@@@@@@@@@@@@Oo                ",
"               oO@@@@@@@@*@@@@Oo                ",
"               o&&*@@@@@**@@@*&o                ",
"                o&&**********&&o                ",
"                .o&&&&&&&&&&&&o.                ",
"                ..o&&&&&&&&&&o..                ",
"                   o&&&&o%%oo                   ",
"                    o%%oo%%oX                   ",
"                    o$$oo%%%o                   ",
"                    o$$$oooo                    ",
"                     ooo                        "
};
