/* XPM */
static char *_80c6549f812440adb09fc254827efbePSwoPJ3V9aCzIy9H[] = {
/* columns rows colors chars-per-pixel */
"48 48 12 1 ",
"  c black",
". c #00A4FF",
"X c None",
"o c white",
"O c #70581B",
"+ c #FFF4D8",
"@ c #FFCC4B",
"# c black",
"$ c #6C330D",
"% c #DF7126",
"& c #40310C",
"* c #D3A635",
/* pixels */
"                                                ",
"                                                ",
"                                                ",
"                                                ",
"                                                ",
"                                                ",
"                                                ",
"                                                ",
"                                                ",
"                                                ",
"                                                ",
"                                                ",
"                                                ",
"                                                ",
"                                                ",
"                                                ",
"                                                ",
"                                                ",
"                                                ",
"                                                ",
"                                                ",
"                                                ",
"                                                ",
"                       oooo                     ",
"                .....ooOOOOoo...                ",
"                ....oOO++++OOo..                ",
"                ...oO++@@@@++Oo.                ",
"                ..oO+@@@@@@@@+Oo                ",
"                ..oO@@@@#o@@@@Oo                ",
"                ..oO@@@@##@@@@O$oX              ",
"                ..oO@@@@##@@@@%%$o              ",
"                ..oO@@@@@@@@@%%%%$o             ",
"                ..o&*@@@@@@@@*&$$o              ",
"                .ooo&*@@@@@@@&ooo               ",
"                o&&oo&******&o..                ",
"               o&**&&********&o.                ",
"               oO***@@@@@@****&o                ",
"               oO*@@@@@@@@@@@*&o                ",
"               oO@@@@@@@@@@@@@Oo                ",
"               oO@@@@@@@@@*@@@Oo                ",
"               o&&*@@@@@@**@@*&o                ",
"                o&&**********&&o                ",
"                .o&&&&&&&&&&&&o.                ",
"                ..o&&&&&&&&&&o..                ",
"                   oo&$$&&&oo                   ",
"                     o%%$$oX                    ",
"                     o%%%$$o                    ",
"                      ooooo                     "
};
