/* XPM */
static char *_22821064cc54886fa3ed5cc4575d8fbYtdlw5yy6T54OQmf[] = {
/* columns rows colors chars-per-pixel */
"48 48 10 1 ",
"  c None",
". c black",
"X c #40310C",
"o c #6C330D",
"O c #70581B",
"+ c #DF7126",
"@ c #D3A635",
"# c #FFCC4B",
"$ c #FFF4D8",
"% c white",
/* pixels */
"                                                ",
"                                                ",
"                                                ",
"                                                ",
"                                                ",
"                                                ",
"                                                ",
"                                                ",
"                                                ",
"                                                ",
"                                                ",
"                                                ",
"                                                ",
"                                                ",
"                                                ",
"                                                ",
"                                                ",
"                                                ",
"                                                ",
"                                                ",
"                                                ",
"                                                ",
"                                                ",
"                     %%%%                       ",
"                   %%OOOO%%                     ",
"                  %OO$$$$OO%                    ",
"                 %O$$####$$O%                   ",
"                %O$########$O%                  ",
"                %O######%.##O%                  ",
"                %O######..##O%                  ",
"                %o++####..##O%                  ",
"               %o++++#######O%                  ",
"                %X@@@######@X%                  ",
"                 %X@######@X%%%                 ",
"                  %X@@@@@@X%%XX%                ",
"                 %X@@@@@@@@XX@@X%               ",
"                %X@@@@@@######@O%               ",
"                %X@@@##########O%               ",
"                %O#############O%               ",
"                %O#####@#######O%               ",
"                %X@####@@####@XX%               ",
"                %XX@@@@@@@@@@XX%                ",
"                 %XXXXXXXXXXXX%                 ",
"                  %XXXXXXXXXX%                  ",
"                   %oo%%%%oo%                   ",
"                  %%oo%  %++%                   ",
"                  %ooo% %+++%                   ",
"                   %%%   %%%                    "
};
