/* XPM */
static char *_61647c727534e23d4ae5d5b2d3cc19eOqDB3cnJsU6JXbKh[] = {
/* columns rows colors chars-per-pixel */
"48 48 5 1 ",
"  c #301020",
". c #520000",
"X c #780838",
"o c #B86420",
"O c #E09858",
/* pixels */
"XXXXXX                                    XXXXXX",
"XXXXXX                                    XXXXXX",
"XXXXXX                                    XXXXXX",
"...                                          ...",
"...                                          ...",
"...                                          ...",
"         ............XXXXXX............         ",
"         ............XXXXXX............         ",
"         ............XXXXXX............         ",
"      ...XXX                        XXX...      ",
"      ...XXX                        XXX...      ",
"      ...XXX                        XXX...      ",
"      ...                              ...      ",
"      ...                              ...      ",
"      ...                              ...      ",
"      ...      oooOOOOOOOOOOOOooo      ...      ",
"      ...      oooOOOOOOOOOOOOooo      ...      ",
"      ...      oooOOOOOOOOOOOOooo      ...      ",
"      ...      OOOooooooooooooOOO      ...      ",
"      ...      OOOooooooooooooOOO      ...      ",
"      ...      OOOooooooooooooOOO      ...      ",
"   XXXXXX      OOOooooooooooooOOO      XXXXXX   ",
"   XXXXXX      OOOooooooooooooOOO      XXXXXX   ",
"   XXXXXX      OOOooooooooooooOOO      XXXXXX   ",
"   XXXXXX      OOOooooooooooooOOO      XXXXXX   ",
"   XXXXXX      OOOooooooooooooOOO      XXXXXX   ",
"   XXXXXX      OOOooooooooooooOOO      XXXXXX   ",
"      ...      OOOooooooooooooOOO      ...      ",
"      ...      OOOooooooooooooOOO      ...      ",
"      ...      OOOooooooooooooOOO      ...      ",
"      ...      OOOoooXXXXXXoooOOO      ...      ",
"      ...      OOOoooXXXXXXoooOOO      ...      ",
"      ...      OOOoooXXXXXXoooOOO      ...      ",
"      ...      OOOoooXXXXXXoooOOO      ...      ",
"      ...      OOOoooXXXXXXoooOOO      ...      ",
"      ...      OOOoooXXXXXXoooOOO      ...      ",
"   XXXXXX      OOOooo......oooOOO      XXXXXX   ",
"   XXXXXX      OOOooo......oooOOO      XXXXXX   ",
"   XXXXXX      OOOooo......oooOOO      XXXXXX   ",
"   XXXXXX      OOOooooooooooooOOO      XXXXXX   ",
"   XXXXXX      OOOooooooooooooOOO      XXXXXX   ",
"   XXXXXX      OOOooooooooooooOOO      XXXXXX   ",
"      ...      OOOooooooooooooOOO      ...      ",
"      ...      OOOooooooooooooOOO      ...      ",
"      ...      OOOooooooooooooOOO      ...      ",
"      ...      OOOOOOOOOOOOOOOOOO      ...      ",
"      ...      OOOOOOOOOOOOOOOOOO      ...      ",
"      ...      OOOOOOOOOOOOOOOOOO      ...      "
};
