/* XPM */
static char *_ba2b46c440c4d61a7a4422307398b17o5CGGakTJJrnOCjU[] = {
/* columns rows colors chars-per-pixel */
"48 48 4 1 ",
"  c #301020",
". c #520000",
"X c #780838",
"o c #F8F0C8",
/* pixels */
"XXXXXX                                    XXXXXX",
"XXXXXX                                    XXXXXX",
"XXXXXX                                    XXXXXX",
"...                                          ...",
"...                                          ...",
"...                                          ...",
"         ............XXXXXX............         ",
"         ............XXXXXX............         ",
"         ............XXXXXX............         ",
"      ...XXX                        XXX...      ",
"      ...XXX                        XXX...      ",
"      ...XXX                        XXX...      ",
"      ...                              ...      ",
"      ...                              ...      ",
"      ...                              ...      ",
"      ...      oooooooooooooooooo      ...      ",
"      ...      oooooooooooooooooo      ...      ",
"      ...      oooooooooooooooooo      ...      ",
"      ...      oooooooooooooooooo      ...      ",
"      ...      oooooooooooooooooo      ...      ",
"      ...      oooooooooooooooooo      ...      ",
"   XXXXXX      oooooooooooooooooo      XXXXXX   ",
"   XXXXXX      oooooooooooooooooo      XXXXXX   ",
"   XXXXXX      oooooooooooooooooo      XXXXXX   ",
"   XXXXXX      oooooooooooooooooo      XXXXXX   ",
"   XXXXXX      oooooooooooooooooo      XXXXXX   ",
"   XXXXXX      oooooooooooooooooo      XXXXXX   ",
"      ...      oooooooooooooooooo      ...      ",
"      ...      oooooooooooooooooo      ...      ",
"      ...      oooooooooooooooooo      ...      ",
"      ...      oooooooooooooooooo      ...      ",
"      ...      oooooooooooooooooo      ...      ",
"      ...      oooooooooooooooooo      ...      ",
"      ...      oooooooooooooooooo      ...      ",
"      ...      oooooooooooooooooo      ...      ",
"      ...      oooooooooooooooooo      ...      ",
"   XXXXXX      oooooooooooooooooo      XXXXXX   ",
"   XXXXXX      oooooooooooooooooo      XXXXXX   ",
"   XXXXXX      oooooooooooooooooo      XXXXXX   ",
"   XXXXXX      oooooooooooooooooo      XXXXXX   ",
"   XXXXXX      oooooooooooooooooo      XXXXXX   ",
"   XXXXXX      oooooooooooooooooo      XXXXXX   ",
"      ...      oooooooooooooooooo      ...      ",
"      ...      oooooooooooooooooo      ...      ",
"      ...      oooooooooooooooooo      ...      ",
"      ...      oooooooooooooooooo      ...      ",
"      ...      oooooooooooooooooo      ...      ",
"      ...      oooooooooooooooooo      ...      "
};
