/* XPM */
static char *c3c836b39f4e48b9e7ef7bff792971acBaLPT7MjyMqyM9hi[] = {
/* columns rows colors chars-per-pixel */
"32 32 5 1 ",
"  c #533634",
". c #76584D",
"X c #897965",
"o c #767A83",
"O c #C6B09C",
/* pixels */
".....   .XX.. .   XX.....     X.",
"...... .X..oooXX X...XX..    XX.",
"X....  ...oOOoXX ....XXX.   ...X",
"X.   .XXXoOOo  ... ...XX   ..XXX",
".     .XXooo   ..  ..XX. .oOOXXX",
"     .XX...... .   .OoX..oOOoo .",
"..  .XX.......      oo ...oooo  ",
".. ..X..... .. . ..XX  .....   .",
".  ..XXX..  ...  .XXX...........",
" XXXXXXX......  .XXX...... .....",
" .XXXX.    .....oOo......  ...  ",
"  XX..    .....oOoo  ..        .",
"  X.     ..  ....   ... ..    ..",
". XX.          ............  ...",
". XXXXX..     .XX.. .....   ....",
"X.XXXX..     ..XX..  ...  .....X",
"XXXXXXX      .XX...  ..   ....XX",
"OoXXXXX     .X.....  .   ...XXXO",
"OOoXXX.   ........       ..XXXXo",
"oo  ..  ..........      XXXXXXX ",
".  ......  ..oo.....   XXXXXX...",
"..  ...   ...oo ...   XXoo......",
"    ..    ...X  ...   ..o ...   ",
"  X... .  .XXXXX..  ........... ",
" XX..... ..XXXX.    ...... ...  ",
"XX.....  . .XX....  .....  ....X",
"OOO...      XX ..  ....    ...XX",
"oOOo...    .X. .  ...       ..XX",
"Xooo  .    ...  ...   OO... .XXX",
"X    ...  ....   ...oOOOo.. XXXX",
"X......  .XX..   ..Xooooo .   XX",
"......   XXX..    XXX.        XX"
};
