/* XPM */
static char *_9bb5fda62c449dad80a2ddf3ff00e6bQ8tD5S37sSGS8ITS[] = {
/* columns rows colors chars-per-pixel */
"48 48 185 2 ",
"   c #1B4F6F",
".  c #005674",
"X  c #1B5270",
"o  c #235975",
"O  c #255975",
"+  c #255F7A",
"@  c #3A5D77",
"#  c #315D78",
"$  c #3C5E78",
"%  c #03657F",
"&  c #24647E",
"*  c #2A607A",
"=  c #3D647C",
"-  c #3F687F",
";  c #40687F",
":  c #056983",
">  c #006F88",
",  c #10728B",
"<  c #3C6780",
"1  c #3E6A81",
"2  c #24758C",
"3  c #28778D",
"4  c #31748C",
"5  c #397088",
"6  c #34798F",
"7  c #3C788F",
"8  c #347A90",
"9  c #3C7D92",
"0  c #406C82",
"q  c #437286",
"w  c #437589",
"e  c #45798C",
"r  c #4B7C8D",
"t  c #5A7788",
"y  c #527B8B",
"u  c #5D7C8D",
"i  c #467E93",
"p  c #487F93",
"a  c #627F8F",
"s  c #1C889D",
"d  c #2D8A98",
"f  c #3C869A",
"g  c #3D8A9B",
"h  c #3B959D",
"j  c #3D8CA1",
"k  c #2692A4",
"l  c #2D91A5",
"z  c #3390A2",
"x  c #3D93A6",
"c  c #3EA3AC",
"v  c #428395",
"b  c #4A8395",
"n  c #4A8699",
"m  c #438999",
"M  c #4D8B9C",
"N  c #5E8190",
"B  c #508F9E",
"V  c #48949E",
"C  c #55949F",
"Z  c #62808F",
"A  c #638796",
"S  c #668897",
"D  c #408EA2",
"F  c #4292A5",
"G  c #4E92A5",
"H  c #4F9CA2",
"J  c #4296A8",
"K  c #4F97A9",
"L  c #4398A9",
"P  c #4C9BAB",
"I  c #5194A5",
"U  c #5A96A1",
"Y  c #549BA6",
"T  c #5196A9",
"R  c #559CAC",
"E  c #5A9DAA",
"W  c #6694A3",
"Q  c #6F95A1",
"!  c #619FAE",
"~  c #689FAC",
"^  c #42A4AD",
"/  c #49A1AE",
"(  c #5AA0A6",
")  c #56A1AF",
"_  c #5AA3AE",
"`  c #4EA7B0",
"'  c #46AFB1",
"]  c #4EAAB2",
"[  c #57A1B1",
"{  c #5BA5B1",
"}  c #55ACB4",
"|  c #5DABB4",
" . c #48BBBA",
".. c #5DB0B7",
"X. c #52B5B8",
"o. c #5CB5B9",
"O. c #55BBBB",
"+. c #5BBEBD",
"@. c #64A0AF",
"#. c #69A1AF",
"$. c #63A3B2",
"%. c #6CA4B1",
"&. c #61AEB5",
"*. c #6EAAB5",
"=. c #75ACB2",
"-. c #78A8B4",
";. c #63B1B7",
":. c #65B3B9",
">. c #62BDBE",
",. c #6BBDBE",
"<. c #74B5BB",
"1. c #7EB3BB",
"2. c #73BCBD",
"3. c #64C0BF",
"4. c #6CC0BF",
"5. c #7CBEC2",
"6. c #66C2C0",
"7. c #6DC2C1",
"8. c #72C4C3",
"9. c #7CC5C4",
"0. c #73C9C6",
"q. c #7AC9C6",
"w. c #87A4AB",
"e. c #83B1BA",
"r. c #8AB3BD",
"t. c #8EB8BE",
"y. c #97B4BA",
"u. c #83BFC1",
"i. c #8CB9C3",
"p. c #94BCC2",
"a. c #9ABEC3",
"s. c #82C6C5",
"d. c #8CC3C4",
"f. c #81C8C6",
"g. c #8BC9C7",
"h. c #82CCC9",
"j. c #8DCAC9",
"k. c #9DC1C6",
"l. c #95CBCA",
"z. c #9CCDCC",
"x. c #8DD1CE",
"c. c #98D3D0",
"v. c #A0C2C6",
"b. c #A9C3C7",
"n. c #A3C5CA",
"m. c #ABC5CA",
"M. c #A1CECD",
"N. c #AECACB",
"B. c #B3CDCE",
"V. c #B9CFCE",
"C. c #A4D0CF",
"Z. c #ADD1CF",
"A. c #A7D3D1",
"S. c #ABD3D1",
"D. c #B5D5D3",
"F. c #BCD5D4",
"G. c #B1D9D6",
"H. c #BED9D7",
"J. c #BED6D9",
"K. c #B7DDDC",
"L. c #C1D6D5",
"P. c #C1D9D7",
"I. c #C2D7DB",
"U. c #C6DBD9",
"Y. c #CADEDB",
"T. c #D0DFDD",
"R. c #CDE0DE",
"E. c #D1E1DF",
"W. c #C6E4E2",
"Q. c #D3E4E2",
"!. c #D8E7E5",
"~. c #D0E9E7",
"^. c #DAE8E6",
"/. c #DDEBE9",
"(. c #E2EDEC",
"). c #E5F0EE",
"_. c #E4F1F0",
"`. c #E9F3F2",
"'. c #EBF4F3",
"]. c #ECF4F3",
"[. c #EDF6F5",
"{. c #F0F7F6",
"}. c #F1F8F7",
"|. c #F3F9F8",
" X c #F5FAF9",
/* pixels */
"3.C.Y.Y.U.R.].}.[.[. X_.x.V 1 j k.R.Y.U.U.U.Y.H.s.+.s.P.Q.L.*.L T w o u B.).[.R.P.R.`.|.`.R.U.Y.",
"+.M.Y.Y.U.Y.Q.).[.[.].Q.5.g 1 ^ z.Y.Y.U.U.U.Y.P.s.>.8.z.A.z.$.P R q % W Y.(.^.Y.P.Y.`. X].R.D.M.",
"9.A.Y.U.U.U.U./.}.}.^.N.#.4 r 2.S.Y.U.U.U.Y.U.D.9.6.7.3.6.>._ R I 1 v i.`.(.P.U.Y.Q.`.[.).E.z.+.",
"H.P.Y.U.U.Y.(.[.[. XW.,.b o N B.Y.Y.U.U.U.Y.A.8.8.7.7.7.8.7.{ n 1 O w.Y.[.(.P.U.!.[.{./.Y.E.C.3.",
"Y.Y.U.U.U.R.'.|.[.).S.c q   a L.R.U.U.U.Y.Y.C.+.7.7.7.8.,.&.{ b = > b.)./.Q.U.P./.|.}./.F.A.s.>.",
"U.U.U.U.U.R.`.|.`.Y.t.g q + A F.R.U.U.Y.U.U.z.3.7.7.7.7.&.T R i q R I.}.Y.P.Y.Y./.}.}.(.D.8.6.s.",
"U.U.U.U.P.Y.`. X_.c.( < = 6 %.F.R.U.U.Y.P.j.8.7.7.8.,.{ R T e * u N./.[.R.P.Y.).[.[.|.(.D.8.l.P.",
"U.U.U.U.Q.(.]. X_.5.d $ = V 5.P.R.Y.Y.Y.P.9.>.8.7.8.,.R R R q X Z F.^.^.Y.P.Y.'.|.]./.Q.P.8.z.T.",
"U.U.U.P./.|.[.}./.-.3 = = Y h.D.P.H.H.P.D.9.6.7.7.8.,._ T I q + A F.R.U.U.Y.Q.`.|.`.Y.P.D.s.C.Y.",
"U.U.U.P.^.}.}.).L.S & 1 = ( 0.9.s.9.9.s.9.8.7.7.7.8.,.{ n 0 = 2 ! F.R.U.U.!.[.[.}.`.E.M.s.D.U.Y.",
"U.U.Y.!.).{. X~.d.y # 0 = C >.6.6.6.6.6.6.7.7.7.7.8.7.{ i = 9 -.m.P.Y.U.P./.|.[.}.].Q.l.6.P.Y.U.",
"U.U.R.].|.[.{.K.' e = 0 = i R :.,.,.,.7.8.8.7.7.7.7.,.[ b w x n.E.Y.U.Y.Y./.{.[.[.).E.M.s.H.Y.U.",
"U.U.R.`.|.'.^.n.L w = 0 0 0 0 q B { R :.8.7.7.7.8.:.R R R K l a.R.Y.U.Y.).[.[.{./.Y.Y.U.H.U.Y.U.",
"U.P.Y.`. X`.G.=.7 0 0 0 = w b i M T T &.8.7.7.7.8.;.T R P $.p.D.Y.Y.P.Y.'.}.[.|./.F.z.D.Y.Y.Y.Y.",
"U.Y.Q.`.|./.f.h $ 1 0 0 0 M [ { { _ T ;.8.7.7.7.7.&.T R J *.P.R.U.U.Y.Q.`.{.[.[.^.F.9.M.Y.Y.P.H.",
"U.!.[.[.(.U.<.f = 0 = 0 I T _ ,.7.,.) ;.8.7.8.,.{ R R R x $.F.R.U.U.!.[.[.{.`.Q.Y.Y.H.P.Y.Y.C.7.",
"U./.|. X~.d.U 5 - - e M R R R ,.0.,.M _ 8.7.8.,.R T R P -.n.P.Y.U.U./.|.[.}.'.Y.S.C.U.Y.Y.Y.D.z.",
"U./.}.{.K.' w = 0 = M [ R R { ,.0.,.q C 7.7.8.,._ T R J v.E.Y.U.U.U.^.}.[.[.).E.l.7.H.Y.U.H.U.Y.",
"U./.[.^.n.L w = 0 = b R T &.7.8.0.,.w b | ,.8.,.R T R J k.R.Y.U.U.P.^.}.}./.Y.Y.z.7.H.Y.H.9.M.Y.",
"U.(.'.G.=.7 0 = 0 p E :.&.,.8.8.,.{ q 1 B ,.8.7.:.{ T l a.R.Y.U.Y.!.).[.}.^.P.Y.D.C.P.Y.U.M.D.Y.",
"U./.(.h.h @ 1 = w T :.8.8.7.7.8.;.G e = w ,.8.7.8.;.R _ n.Y.Y.U.R.].}.[.}./.P.H.U.Y.Y.P.P.Y.Y.U.",
"U.E.Y.h.H = 0 = 0 G ;.8.8.6.3.8.&.T T e q ,.8.7.8.] E B.U.Y.U.P.Y.`.{.[.|.(.D.9.M.Y.Y.C.s.H.Y.U.",
"Y.D.l.,.B = - w B | ,.7.>.j.C.9.:.;.:.Y M ,.8.7.6.u.n.U.Y.U.U.Q.(.].{.]./.Q.P.M.S.Y.T.z.7.H.Y.U.",
"Y.C.O.R i = = n { 7.8.8.8.A.H.9.6.8.8.;.[ ,.8.7.3.A.E.Y.U.U.U./.|.[.{.`.Y.P.Y.Y.Y.Y.U.l.9.H.Y.U.",
"T.A.o.b < 1 = p [ ,.6.9.D.A.8.6.3.6.7.&.R ,.8.7.+.M.Y.Y.U.U.U./.}.[.}.].R.U.U.P./._.l.>.9.H.Y.U.",
"A.d._ q = 0 p E :.7.3.9.Y.A.3.z.A.z.q.| R ,.7.8.z.D.Y.U.U.U.P.^.}.[.).!.Y.U.Y.^.(.Q.s. .9.H.Y.U.",
"6...G q = w T :.8.7.8.j.H.z.9.P.E.P.9.} { ,.6.s.P.Y.U.U.U.Y.Y./.}.}.^.P.U.U.R.[./.S.9.6.j.P.Y.Y.",
"7.:.T w = 0 G ;.8.6.M.H.j.3.8.D.R.F.*.} 7.7.6.f.H.Y.U.U.U.Y.).[.[.|./.P.U.P.Y.{.W.7.3.z.U.U.Y.Y.",
"0.&.i 0 w B | ,.7.+.A.Y.8.9.S.Q.^.L.%.} 8.8.o.<.F.Y.U.U.U.R.'.|.]./.Q.U.U.Q./.(.G.O.>.C.Y.Y.D.M.",
"7.U @ = n { 7.8.8.8.A.D.8.z.Q.{./.N.%.} 8.8.} %.F.Y.U.U.U.R.`.|.`.Y.P.U.P.(.[.U.l.3.3.C.Y.Y.M.+.",
"{ M = = p [ ,.6.9.D.A.8.+.z.E.}.I.R T &.8.8.} %.F.Y.U.U.P.Y.`.|.`.R.U.U.P.(.'.l.4.7.3.C.E.E.C.3.",
"R b = p E :.7.3.9.Y.A.3.l.Y.(.).m.k | ,.8.8.} %.F.Y.U.U.Q.(.].|.'.R.P.Y.^.(.Q.9.+.8.7.j.A.C.j.7.",
"R n w T :.8.7.8.g.H.z.9.H.(.[.U.r.P ,.8.7.7.} *.F.Y.U.P./.|.[.[.).Y.P.R.[.(.F.9.>.,.,.>.>.3.,.,.",
"R R T T &.8.6.M.H.j.3.8.D.(.`.r.G R ,.8.,.{ ] 8.H.Y.U.P.^.}.}./.Y.Y.P.Y.[.(.H.f...[ _ R { 7.:.R ",
"R R _ &.,.7.+.A.Y.7.8.S.Q.(.Q.<.] :.7.8.,.P 1.S.P.Y.Y.!.).{.|./.P.U.Q././.Y.z.q._ p F x P 7.:.T ",
"R T _ 7.8.8.8.C.D.s.M.Q.{./.S.9.6.8.7.7.,./ k.E.Y.U.R.].|.[.[.^.U.P.(.[.E.z.+.7.C 0 ~ *.*.,.&.T ",
"R T _ ,.6.9.D.M.9.D.P.Y.{.W.>.3.6.8.8.:.) X.z.Y.Y.U.R.`.|.`.Q.Y.U.P./.[.Q.C.>.| 9 t N.U.D.*.P R ",
"R T R ,.3.9.Y.H.M.U.Q./.(.I.z.C.j.6.:.) @.z.H.Y.U.U.R.'. X'.Y.P.Y.^.(.^.G.s.| M , W Q.(.F.W g [ ",
"T R { ,.8.g.D.Y.Y.U./.[.Y.U.Y.E.C.o.R F *.L.R.U.U.U.Y.).[.).Y.P.R.[./.Z.8.] M = v i.`.`.V.u 4 T ",
"x | 7.3.M.H.9.M.Y.P./.[.Y.P.Y.R.k.P R J *.F.Y.U.U.U.Y.Y.R.Y.Y.U.R.{.W.4.| M 1 O w.Y.[._.F.a . & ",
"a.d.6.+.A.Y.C.S.Y.^.^.^./.Q.U.E.k.J T / <.F.Y.U.U.U.U.U.U.U.U.U.Y.(.G.^ M q = > b.).(.J.e.m Q y.",
"E.C.3.9.M.P.Y.U.R.[./.R.[.(.P.P.t.F K :.j.P.Y.U.U.U.U.U.U.U.U.Y.U.P.p.g 1 @ w R I.}.E.a.R $.m.Q.",
"Y.z.8.H.C.9.H.U.Y.].[.`.{.(.F.e.M w D p.U.U.Y.U.U.U.U.U.U.Y.U.Y.P.j.( < 0 O u m./.[.R.F.D.F.P.Y.",
"T.C.7.z.M.C.P.Q./.!.).|.}.(.F.$.3 1 ^ M.E.Y.U.U.U.Y.U.U.U.U.U.Y.P.2.g $ ; : W Q.).^.Y.U.Y.Y.Y.U.",
"P.z.3.7.A.Y.U./.[.R.^.}.}.^.N.%.8 r 2.S.Y.U.U.U.Y.U.U.U.U.U.Y.U.D.%.9 = = v i.`.(.P.U.Y.R.Y.U.U.",
"s.8.9.D.U.U.P./.|.`.'.[. XJ.Y e 8 #.D.U.Y.U.U.Y.Y.Y.U.U.U.Y.Y.S.8.| n = O w.Y.[.(.P.P.^.`.Y.U.U.",
"3.>.s.P.Y.Y.^.^./.[.}.[.).n.s = m 5.P.Y.U.U.Y.P.C.D.Y.U.Y.P.S.s.` M w 1 3 m.)./.Q.Y.Q.`.[.R.U.U.",
"7.3.9.H.Y.R.[./.U.`.|.`.R.p.F 1 H h.H.Y.U.U.Y.H.7.z.Y.Y.Y.H.9.} G 0 = w z J.}.Y.F.R.]. X`.R.U.U."
};
