/* XPM */
static char *_463aa48e6f24b1bd7be4700210c51c8cljHXXmJb1CQzakJ[] = {
/* columns rows colors chars-per-pixel */
"48 48 178 2 ",
"   c #8D0006",
".  c #8B000D",
"X  c #96000F",
"o  c #9B000E",
"O  c #9D0B0F",
"+  c #8E0011",
"@  c #8F0912",
"#  c #920111",
"$  c #990610",
"%  c #940D11",
"&  c #9A0E10",
"*  c #971011",
"=  c #9A1211",
"-  c #9E1A11",
";  c #A50003",
":  c #AC0002",
">  c #A5010C",
",  c #A9010B",
"<  c #A30D0E",
"1  c #AC0D0C",
"2  c #B50004",
"3  c #BA0103",
"4  c #BE0B05",
"5  c #B30108",
"6  c #B60B08",
"7  c #A3160F",
"8  c #AB140C",
"9  c #A5190F",
"0  c #AD1D0D",
"q  c #BC1306",
"w  c #BE1A07",
"e  c #B51509",
"r  c #B91708",
"t  c #B11E0D",
"y  c #BC1C08",
"u  c #A01610",
"i  c #A11910",
"p  c #9E2212",
"a  c #9F2913",
"s  c #AF200D",
"d  c #B4210C",
"f  c #BC250A",
"g  c #B52B0E",
"h  c #B92C0D",
"j  c #BC360F",
"k  c #A32411",
"l  c #A52C12",
"z  c #AA2E12",
"x  c #AC3313",
"c  c #AE3E15",
"v  c #B53310",
"b  c #BA3510",
"n  c #B33C13",
"m  c #BB3D13",
"M  c #C20000",
"N  c #C40800",
"B  c #C11302",
"V  c #C11D06",
"C  c #C32406",
"Z  c #C92705",
"A  c #C62907",
"S  c #C82A07",
"D  c #C12709",
"F  c #C42908",
"G  c #CC3103",
"H  c #CC3A04",
"J  c #C5330B",
"K  c #C93409",
"L  c #C53B0E",
"P  c #CC3A0B",
"I  c #D23D03",
"U  c #C53F10",
"Y  c #AC4D1F",
"T  c #BD4617",
"R  c #BE4A15",
"E  c #AC501F",
"W  c #AA5020",
"Q  c #C2410E",
"!  c #CE430D",
"~  c #D44205",
"^  c #D84605",
"/  c #DA4A06",
"(  c #D2460D",
")  c #D44A0D",
"_  c #DA4E0C",
"`  c #DE5107",
"'  c #DA5008",
"]  c #C74312",
"[  c #C94212",
"{  c #C44D15",
"}  c #CD4C11",
"|  c #C74B18",
" . c #C84D19",
".. c #D14710",
"X. c #D24E11",
"o. c #C55217",
"O. c #CA5417",
"+. c #CF5A17",
"@. c #CB511A",
"#. c #CB5818",
"$. c #D45213",
"%. c #D95513",
"&. c #D65A16",
"*. c #DC5B14",
"=. c #D35C1C",
"-. c #DA5F1A",
";. c #E35B0B",
":. c #E15D13",
">. c #DE6519",
",. c #E26316",
"<. c #E56716",
"1. c #E56916",
"2. c #E86915",
"3. c #EA6B15",
"4. c #E0661A",
"5. c #E56B1A",
"6. c #E46D1B",
"7. c #E86C19",
"8. c #E86E1A",
"9. c #E6721D",
"0. c #EA711B",
"q. c #EC731C",
"w. c #EA741E",
"e. c #EC741C",
"r. c #EE741C",
"t. c #EF781E",
"y. c #F0771C",
"u. c #F3781C",
"i. c #DC6D22",
"p. c #DD7124",
"a. c #DD7D2A",
"s. c #E36F20",
"d. c #E07525",
"f. c #EA7720",
"g. c #E77B24",
"h. c #E67A25",
"j. c #EE7A20",
"k. c #ED7C23",
"l. c #E07E2A",
"z. c #F17E21",
"x. c #DF8D33",
"c. c #D99437",
"v. c #DA9738",
"b. c #EF8125",
"n. c #E0862F",
"m. c #EC8429",
"M. c #ED8C2E",
"N. c #F08124",
"B. c #F18426",
"V. c #F48F2C",
"C. c #F4902D",
"Z. c #F8902C",
"A. c #E48D32",
"S. c #E69335",
"D. c #EB9232",
"F. c #E49838",
"G. c #E99938",
"H. c #F09331",
"J. c #F29431",
"K. c #F59833",
"L. c #F59C35",
"P. c #F9A237",
"I. c #F7A338",
"U. c #F9A539",
"Y. c #F5AB3E",
"T. c #FAA93B",
"R. c #FDA93B",
"E. c #FBAC3D",
"W. c #F6B241",
"Q. c #FCB341",
"!. c #FCB442",
"~. c #FAB945",
"^. c #FDBB45",
"/. c #FFBA44",
"(. c #FFBD46",
"). c #FFC047",
"_. c #FFC64B",
"`. c #FFC94C",
/* pixels */
"* , K 8.*.w u % = D d % = % - f A f - % = % d D u % = = % & 2 %.r.r.*.V D F F F F F F A A S t % ",
"# m *.r.&.> % u d A d % = % = f S D u % = % d F u % = % o d X.5.0.*.! C A A F F A A A f 0 t 9 * ",
"X O.y.0.{ + = d A D 0 % = = 9 f A f - % = % 0 f - % = & d ( 0.r.,.S q f f D F A D f D 0 % % * = ",
"2 %.0.( s & f A D 9 * % % 0 D A d = = = = = = - = % & 5 X.8.r.*.S S t = = t A S d = u = % = = = ",
"%.5.5.h o - D f 0 % 7 0 = t S S 0 % = = % # + + % o d X.8.r.*.P q t - % 0 f A d 7 % % 9 0 = * = ",
"r.r.4.l + u D t % % d F - 0 D D 0 % = & i l l l = d ( 0.r.,.S q f = % 9 D A f = % = = d F u % = ",
"0.r.6.l + u F d % % d D - = u u = % % > F *.<.*.y } 8.r.*.S S t = % 0 D A d = = % - f A D u % = ",
"0.<.X.k # = 0 9 % % d D u % % % i t , C *.K.R.L.>.,.u.u.%.3 t - % % d S d u % % % u A D 0 = % % ",
"r.$.5 & * = % % = % d D u % = = t S S *.C.(._.Q.N.2.5.6.$.w 7 = - % 0 f = % = - = - f 0 % * = = ",
"u.O.X & = = = % % % d F u % - f C K ` J.(._.T.j.t.*.J z g A f D f - = - = % = f 0 % - = * % 8 w ",
"O.n # & = = % 9 0 = 9 0 = % u D M ] H./._.T.h.~ %.U > + 8 A A f 0 = % % % 9 d S d % % * & > ] *.",
"# # = = = = = d F u % % = % - f M =.~._.E.w.I 4 V 8 = = d A A 0 % = = = % t S D 0 % = % u F *.0.",
"& = = = % - f A D u % = = % - y I f./.T.9.( A A D D f f D A S t % = * % % t D 9 = = = # l >.*.P ",
"= = = % % - D f 0 = % = = % & 3 d.T.).P.;.g > d D A S S S F d u % % 9 t 0 f f = % = % o j r.&.> ",
"= = = - - 9 D t % - - = = = 7 3 S.`._.L.*.k + 7 f F f f D f = % u = d S A A f 9 = = = e P 4.o.+ ",
"= % = f D D S 0 = f 0 % % 0 C 3 A._.`.S.3 = 0 A S d = - - & + 8 F D A A A F F D 0 = f A F z p & ",
"% 9 d A f t 0 - = F d % % d Z 3 S._.T.p.3 O 9 d d u % % o d o.} C d 0 t y C A S f t A f 0 # # = ",
"% 0 F D 0 % = = 9 D d % % 0 C 3 A.!.j.^ y = % % % = u & d ( 8.%.e = @ - J K D f D A A 0 % = = = ",
"% = u u * = f D D S t % % # o 2 -.N.t.%.w = % = % 0 D 3 $.5.( g & = # l >.%.w 7 t A S t % = = = ",
"d 9 % % u d A f 0 1 1 1 , m O.&.<.2.*.U 8 = = = % 8 K X.8.0.g o % * + k 9.:.q & 0 A d 9 * = * % ",
"F 0 % = d S A t = a b P K *.y.8.8.,.K , % & = = = 1 P 8.r.>.l o u = - n 6.*.q = t D = % = = = u ",
"u = - f A A A q F >.0.8.5.0.8.( P P A 0 % = % - f V P 8.*.S f f f y $.6.r.%.2 & d F u % = % 0 D ",
"% % - t t 0 q ( *.*.%.*.0.5.X.d , 8 V 8 % = % - D r v 6.*.4 A S A V *.y.2.,.} p < 0 = % = 0 f S ",
"= = = % % 9 F *.5.S 4 P 8.*.3 & @ - L h & = = 9 D 1 l 6.*.w f f f w %.r.k.z.5.x # % - - 9 D F f ",
"= = = % > F :.%.J 4 X.8.r.*.q = + l 4.%.e = 0 D A V L 0.*.3 9 = 9 w _ b.!.L.;.J 1 = f F D A d = ",
"* # X ; B ,.P.l.M X.6.r.*.L 8 = # l 1.:.w = t A d 8 h $.:.$.p + & > ( B.)./.D.[ : = 0 t d A t % ",
"= i x  .4.V./.x.B 6.r.,.F > % = X x h.4.q = t D - @ & 5 %.4.z # % + Q j.E._.~.=.: % % % u f 0 % ",
"3 ! h.W.).!.Z.O.k 9.,.F 9 & = =   Y W.D.3 O t F u % = & h P F 0 % % t ..9.T./.k.Q # % 0 f 9 = % ",
"*.<.z.D.G.A.#.0 - $.] > & * = =   E /.F.; $ 9 0 = = = % O e A f 0 = , S ;.P./.z.Q + % d A = u t ",
"8.0.,.q 3 3 X + u w 8 % = = = =   Y ~.c.  $ * % = = = = % = f A D = 1 P *.I.(.V.O.X % 0 f = 0 S ",
"P P L 9 O O & % - D d % = = = =   W /.v.  $ = = = = = = = = = d D = 0 S N S.`.(.n.2 O = - % 0 A ",
"V r 1 & % % = = = 0 9 * = = = % o T L.a.; $ % = = = = = % = 0 f D - i e 3 i.T._.L.G 9 # % % t A ",
"D 0 % = = = = = = % % = = = = = e K :._ y 9 = = = = = = = 9 D A f - @ - F / k./.E.9.x X = % t A ",
"u = = % % % % % % % % = = % = f A S P S q w 8 % = = = % 0 F A d = = + l >.2.b./.).Y.| ; * % t A ",
"% # X ; : : , 0 t t 9 % % 9 d d t t q ! *.*.] 8 = % = 0 d d d 7 % % > j 6.:.i.~.`./.s.f + % t S ",
"= i x @.=.@.P K A S d = = d f = @ = y %.0.r.*.q = % - F d % % * = % 1 P 8.) | Y.)./.B.} X % 0 D ",
"3 H 9.Y./.W.k.) V A D D F d = = % u D S ! 8.*.3 = % u D d % = = & % , K 8.%.J 5.U./.N.) e = = u ",
"I h.E._.(.L.4.L 8 0 0 t t u % = = = 0 6 K 6.5.} k # u D t % = * & > L *.r.$.U M.!.(.B._ w u % % ",
"k.I.(.~.D.' F > % = = = = - - = = = % 1 P 5.u.6.l + u D d = = & 9 S :.r.8.I @.~._.E.f.( e = = = ",
"(.U.f.=.m k u % & e y f D F f - % % % 1 P 5.u.6.l + - f A f = > L 5.y.8.! 3 @.~.E.w.( t & * 8 w ",
"T.m.H 2 o # % o g %.) C d t 0 = 9 0 % 1 P 6.5.X.k + = f S F t y K O.#.{ f K >.L.m.I t o % + m *.",
"<.( 5 & % = $ d ( 6.%.e = % % % d A 7 1 P 8.*.5 & * 9 f A A A A f o + o q *.r.2.( 5 & % & X O.u.",
"P g & = * $ . o.8.( g & = % % % 0 A f w P q.+.X % 0 D F A A S d = & % $ 2 *.q.( d & = * & 5 $.r.",
"V 8 % * > d o.&.%.g o % % 9 t 0 f A A A J O.c # 0 f S A f 0 t i # # o d $.*.$.d o % = # k $.8.r.",
"A t % # d ( 8.%.5 & = u = d S A A F F A f o # 9 D A f A 0 % % & i l g ( q.*.2 & % = = # z 4.8.5.",
"S d # . { 5.( g & % 0 D f D A A A F F A D = 0 D A t 7 A d % * , F >.6.6.r.*.q = % % % 0 F P P P ",
"t < p R >.8.h o = 0 f A A A D t f A A f 0 = t S A 0 % 0 9 % # m :.q.r.0.*.! y = 7 t 0 f A V V V ",
"% + z 6.u.4.l + u D A F F A f = 0 A A 0 % % t A A t % % % & # O.y.0.r.5.J B f = 0 S A A F F F F "
};
