/* XPM */
static char *fcd5bcea372d4df2b5d4d203b5fbcabfADyHhKawaM0XnLVL[] = {
/* columns rows colors chars-per-pixel */
"48 48 240 2 ",
"   c #000005",
".  c #000011",
"X  c #160A1C",
"o  c #3C341F",
"O  c #00002A",
"+  c #190E21",
"@  c #180529",
"#  c #001C2E",
"$  c #1B1224",
"%  c #1F1926",
"&  c #18182C",
"*  c #1E1B2C",
"=  c #000033",
"-  c #030539",
";  c #1F0032",
":  c #041734",
">  c #001E32",
",  c #1C1635",
"<  c #141D31",
"1  c #1D1E31",
"2  c #211C2C",
"3  c #381B2C",
"4  c #340030",
"5  c #231F31",
"6  c #251C38",
"7  c #331A32",
"8  c #002134",
"9  c #00233B",
"0  c #1B2033",
"q  c #242134",
"w  c #26233A",
"e  c #28263C",
"r  c #2C2B3E",
"t  c #3A2F30",
"y  c #53121B",
"u  c #780218",
"i  c #760D1B",
"p  c #7F2817",
"a  c #43072C",
"s  c #5A0027",
"d  c #451C2B",
"f  c #551A29",
"g  c #700B27",
"h  c #651A28",
"j  c #49212E",
"k  c #4E2C2E",
"l  c #543B2B",
"z  c #75302E",
"x  c #5F4839",
"c  c #744E2C",
"v  c #0A0B4B",
"b  c #021749",
"n  c #001657",
"m  c #1C1D54",
"M  c #350C46",
"N  c #022748",
"B  c #002C4C",
"V  c #002858",
"C  c #132F51",
"Z  c #013559",
"A  c #272846",
"S  c #2C2A43",
"D  c #2D2D4A",
"F  c #302F4D",
"G  c #343547",
"H  c #31304E",
"J  c #2B2B51",
"K  c #302E53",
"L  c #283457",
"P  c #333353",
"I  c #35355A",
"U  c #393759",
"Y  c #35385C",
"T  c #393A5D",
"R  c #001D61",
"E  c #002B65",
"W  c #003963",
"Q  c #1C3963",
"!  c #2B3B65",
"~  c #353C62",
"^  c #3A3B61",
"/  c #4B1251",
"(  c #6F1445",
")  c #482A48",
"_  c #4D314B",
"`  c #43385C",
"'  c #563558",
"]  c #662B4C",
"[  c #6E3451",
"{  c #503E60",
"}  c #13456F",
"|  c #3E4164",
" . c #38476A",
".. c #304C6D",
"X. c #395577",
"o. c #454559",
"O. c #5B4555",
"+. c #514C50",
"@. c #6B5355",
"#. c #725B5A",
"$. c #494D65",
"%. c #454868",
"&. c #4D5267",
"*. c #4C526D",
"=. c #54566C",
"-. c #4D4D70",
";. c #4C5372",
":. c #485677",
">. c #555974",
",. c #545C7B",
"<. c #784764",
"1. c #6A5972",
"2. c #5B627E",
"3. c #76636D",
"4. c #64667B",
"5. c #78787C",
"6. c #980302",
"7. c #98140B",
"8. c #86031E",
"9. c #960515",
"0. c #981517",
"q. c #A60504",
"w. c #B90604",
"e. c #B10F0F",
"r. c #B71B03",
"t. c #A90019",
"y. c #88261C",
"u. c #9A2418",
"i. c #983516",
"p. c #BD2401",
"a. c #BD260B",
"s. c #A93804",
"d. c #B1310F",
"f. c #BB2914",
"g. c #8B0A2C",
"h. c #930722",
"j. c #861924",
"k. c #AF0026",
"l. c #972524",
"z. c #8D302A",
"x. c #84263D",
"c. c #9A2838",
"v. c #B22B2D",
"b. c #C60301",
"n. c #C61900",
"m. c #C72703",
"M. c #C73706",
"N. c #C33525",
"B. c #925614",
"V. c #B64D04",
"C. c #AD500D",
"Z. c #B65C07",
"A. c #8F671B",
"S. c #996416",
"D. c #BD7C09",
"F. c #A8681A",
"G. c #B36A12",
"H. c #B87B19",
"J. c #8B522C",
"K. c #A95135",
"L. c #936626",
"P. c #B0722E",
"I. c #CB4402",
"U. c #C95505",
"Y. c #CF510E",
"T. c #C96804",
"R. c #CC700E",
"E. c #962D41",
"W. c #934E52",
"Q. c #AC4A4F",
"!. c #A54D59",
"~. c #966C45",
"^. c #98704A",
"/. c #8B4A61",
"(. c #8F7871",
"). c #B17A6A",
"_. c #C26342",
"`. c #BF850D",
"'. c #BD851A",
"]. c #B68533",
"[. c #C88703",
"{. c #CA900F",
"}. c #C88917",
"|. c #D4971C",
" X c #ED9F1E",
".X c #C48722",
"XX c #CE9522",
"oX c #D49724",
"OX c #CA9539",
"+X c #E8932C",
"@X c #DDA333",
"#X c #E9A42C",
"$X c #EFAE32",
"%X c #E9AC36",
"&X c #F7B63B",
"*X c #FFC03D",
"=X c #B08753",
"-X c #97816E",
";X c #B5926B",
":X c #C39541",
">X c #EDB34B",
",X c #FCBD45",
"<X c #F5B748",
"1X c #F5BB55",
"2X c #C59B6A",
"3X c #CDA46F",
"4X c #FFC344",
"5X c #FFC34A",
"6X c #FFCA4A",
"7X c #FBC158",
"8X c #3B5883",
"9X c #465E84",
"0X c #555F81",
"qX c #4B6787",
"wX c #5D6582",
"eX c #586A88",
"rX c #626A85",
"tX c #646A86",
"yX c #6D7289",
"uX c #6C748A",
"iX c #767B87",
"pX c #867C83",
"aX c #738091",
"sX c #7A8291",
"dX c #868989",
"fX c #92918E",
"gX c #898E93",
"hX c #8C9195",
"jX c #949899",
"kX c #9DA09A",
"lX c #A2A59C",
"zX c #A6A99D",
"xX c #ACA89B",
"cX c #B6A995",
"vX c #95A2A0",
"bX c #A5AAA2",
"nX c #ABADA1",
"mX c #ADB2A5",
"MX c #B3B6A6",
"NX c #D5B583",
/* pixels */
"5 5 5 5 5 5 5 2 w V ^.}.l b T T D 2 5 5 1 8 > > > h 7.a.b.M.R.%X6X,X5X,XXXT.e.f # 5 J ;.tXtX$.+ ",
"5 5 5 5 5 5 5 2 w V ^.}.l b T ^ F 2 5 > : h j.l.l.q.w.b.I.T.[.|.%X4X6X,XXXU.w.f 9 P ;.,.;.&.G % ",
"5 5 5 5 5 5 5 2 w V ~.R.l N T U D 2 1 7 h 7.r.m.m.N._.Q._.:X].P.].>X<X&XoXR.d.k B %.wX;.A % % q ",
"5 5 5 5 5 5 5 5 5 9 z.d.f B Y S 5 1 > j.m.n.n.n.b.).xXxXcXxXpX1.O.@.K.R.<X#XF.O.Q ^ %.P 2 5 5 5 ",
"5 5 5 5 5 5 5 5 1 # 0.r.f B T q < 7 f r.m.!./.!.).cXMXMXbXgX,.Q b n / Q.<X*X@X@.v F I P S q 2 5 ",
"5 5 5 5 5 5 5 5 0 > l.a.f B I w # d 7.a.Q.4.qXaXlXbXlXzXdX%.Y w q I R #.>X6X<Xc O q P ^ U w 2 5 ",
"2 2 2 2 2 5 5 5 1 > l.a.f 8 w 5 8 j r.!.4.I dXbXsXuXuX>.o.r w 5 w I n #.<X6X>Xx = > 0 P I q % 2 ",
"D D D H S 2 5 5 1 > l.a.j > 2 0 a 8.m.!.}  .iXhX>.| T m - $ * 2 w I E @.@X&X<XP.y.8.@ B Q H F F ",
"^ ^ T T D 2 5 5 1 > l.a.h : < > z s.p.x.Q wXwX:.T 6 X 2 2 5 5 2 w I C O.H.%X,X@XR.Y.z _ ' U I I ",
"! ~ U S 5 5 5 5 1 > l.m.9.s = = L.H.z M | wX,.T S 5 2 5 5 5 5 2 w U n k H.%X5X4X,X<X.XC.k.4 - - ",
"( / b > < 5 5 5 1 8 h.m.Z.S.L.J.H.'.l b %.rX*.6 2 2 5 5 5 5 5 2 w L @.S.F.R.+X+X#X$X$X#X+XF.A.L.",
"s.y.l j 7 < , < , , 0.U.XXoXoXoX|.'.l b | 2.$.X 5 5 5 5 5 5 5 2 w V ~.[.u.t.k.k.K.OX>X7X>XOX'.}.",
"}.}.H.u.s = = = = u C.}.&X,X,X,X%XH.t = S | P 2 5 5 5 5 5 5 5 5 1 9 z s.m.c.{ 1.yX5.pXpX(.O.z.s.",
"Z.[.}.G.P.:X:XOXOXoX#X$X4X6X5X%XoXH.i.s > A e 2 5 5 5 5 5 5 2 < 3 f 6.w.c.[ } X.X. .Q } ..X.1.<.",
"g.F.}.}.%X4X,X,X<X1X1X1X>X<X%X}.`.}.I.h.> * 2 5 5 5 5 5 5 5 w 8 d 7.r.v.%.W I I A X X 6 T 2.eXeX",
"2.!.U.}.|.XXZ.J.3.(.pX(.#.J.V.[.{.}.M.h.8 1 5 5 5 5 5 5 2 q I B d p.c.` wX*.* q q 2 2 2 S T >.rX",
"qX/.r.Z.F.J.u M E } 8X9X} 3.(.(.P.Z.T.J.: < 5 5 5 5 5 2 e P ~ _ i c.<.X.*.U $ 2 2 2 5 2 2 6 *.rX",
"eX<.6.6.g = # A I J -.wXwXjXmXaX<.K.}.F.4 5 1 5 5 5 5 q P ^ Q z 0.` :.2.r X q 5 q w q 5 2 X $.rX",
"eX/.6.q.i > 1 q w 6 H %.,.jXMXzXlXcXOXT.t.3 > 5 5 2 q P T Y N u c.4.eX2.r + q % D I w 2 5 + $.rX",
"X.[ 6.i f < 5 2 2 2 6 H %.uXjXnXMXnX(.P.T.u.s > > N P ^ L S h 6.l.=.wX2.P , 2 D I T w 2 5 + $.tX",
"` x.7.3 8 5 5 5 5 5 2 5 D ~ tXlXmXkXuX(..XU.u.d f ) Y Y S y 7.7.j.) :.wX%.H e Y ^ P w 2 5 $ $.wX",
"j.0.0.d 8 5 5 5 5 5 5 5 5 m >.zXjXiXlXgX3..XT.t.a.z.9 9 h 7.6.z ` I ;.rXrX*.P ^ P q 5 5 5 % H %.",
"r.7.h 3 < 5 5 5 5 5 5 5 2 = +.zXdX-.gXjXhX-XP.T.M.e.y.y.u.r.q.] W A *.rX,.%.Y H w 2 5 2 q D P Y ",
"m.l.9 0 5 5 5 5 5 5 5 5 5 . +.zXdXm %.gXlXeX(..Xd.n.m.m.m.m.0.] L & $.2.^ I P q 2 5 5 2 w U T I ",
"b.E.Z w 2 5 5 5 5 5 5 5 q   +.zXdXm S o.>.wXtX3.l.w.m.m.m.f.[ J q 2 P %.^ D q 5 5 5 5 2 w T P q ",
"T.W.Z q 2 q 5 2 2 2 % $ X v >.nXdX- $ O J wXeXwX] 0.r.m.m.u._ N 2 2 w D T D % 5 5 5 5 2 q D A # ",
"{.^.V A 5 5 5 q w w r G e =.sXbX5.  * $ r >.wX,...] 0.m.r.i 3 # 5 5 2 q I H 2 5 5 5 5 5 5 * 3 d ",
"[.~.E Y D 2 % D T I *.wX,.hXbXsX&.@ 2 2 q r I %.wX;.] N.u.5 5 1 5 5 2 q I H 2 5 5 5 5 5 1 > h 0.",
"[.L.( ` A 2 D H F D o.*.%.5.dX>.K % 5 q 2 $ , P ;...' N.u.8 1 5 5 2 w D I S X 2 2 2 5 8 5 s 9.w.",
"oXZ.9.' C e I D % 2 % + X , m I D 2 5 5 5 5 2 q P Q ' f.u.> 1 2 5 5 P %.%.U S e w w 0 , f i.d.I.",
"4X+Xt.' W I e 2 5 5 5 5 2 5 A T H 2 5 q 5 5 2 q I ! ' l.i > * $ & A *.rXwXrX2.| L C 9 s u.H.}.R.",
"6X#XC.x./ E J e % 5 5 5 5 2 5 D S 2 q q 5 2 e H Y L ) 8.u 9 A o.*.>.:.:. . ...Z ) ( 8.i.Z.`.oX%X",
"5X%X}.V.x.o.T D q q 5 5 5 5 5 2 2 5 5 5 5 q H ^ ^ C d i.y.7 J ;.wXwX-.) f y y d p s.Y.R.oX}.%X5X",
",X,X&X}.H.P.t n U w 2 5 5 5 5 5 5 5 q 2 q P T ^ ^ N t H.Z.u ; V Q W ] 0.p.m.p.w.Z.[.&X&X&X&X*X4X",
"&X4X4X%X%X#XF.x B 0 2 5 5 5 5 5 5 5 2 e P ^ I A B s i.'.D.C.B.L.~.~.C.w.c.c.c.c.W.;X2X3X2X2X2X2X",
"1X1X1X5X4X<X|.S.@ 5 0 q 5 5 5 5 5 q 2 D Y I A $ 3 u.U.}.XXXXoX|.[.[.R.v.%.} } Z X.qX8X8XqXeXeXeX",
"cXfX(.,X X[.{.G.u 7 8 5 5 5 5 5 5 q 8 8 9 - = @ q.V.}.<X,X,X,X%XR.I.!.tX2.wX2.| ^ | ^ :.uXlXnXlX",
"mXvXgXNX;X^.}.T.t.i 3 > 8 : = = : < h 8.i.S.].OX+X#X&X4X6X5X&XoXH.!.3.qXrX2.-.P A A A P =.sXlXMX",
"lXzXmXmXhXyX=XR.w.e.j.j f k l l k h 0.w.d.H.@X,X<X<X<X>X<X>X}.[.].4.qX2.rX>.I q % 2 2 $ @ v 5.zX",
"%.dXMXnXnXkXiXW.q.p.f.f.t.G.'.'.G.w.m.7.3 _ O.@.#.#.#.#.@.c M.T.].=.Q %.wXrX,.S $ 5 2 2 5 , o.=.",
"v 4.jXzXMXnXuX>./.f.b.m.U.T.R.F.B.9.g.] ..sXdXiXX.E n R n v g.V.P.O.V F -.wXrXG + 5 5 5 5 2 , v ",
"I ;.iXzXmXjXyXqXrXx.q.U.XXR.t.4 : B  .2.sXzXmXlXyX%.P I T L 9 0.f.' N 2 D *.,.G * 5 5 5 5 5 2 2 ",
"m iXnXMXjXtXrXrXwXU J.{.,XOX; J ! 4.jXnXzXsX4.&.G e w w w 0 # u.f.k 8 5 q r G I D 2 5 5 5 5 5 5 ",
"%.fXMXjXiX0XrX2.;.} =X$X$X].v  .iXjXjXfXdX&.m - $ % 2 % w D B c.p.d > 5 2 $ 5 T P 2 5 5 5 5 2 2 ",
"wXhXlXtX,.2.2.%.Y 8X3X*X{.W...0XhXlXrX! m , % 2 5 5 5 q P ^ Z E.p.h 5 < 1 * w I D 2 5 5 5 2 q w ",
"rXyXuXtX,.T G D | 8X3X&XU.W.qXrX>.+.G P ^ T D 2 2 % q P ^ Y N j.b.w.8.= > 8 q w q 5 5 2 2 X A U ",
"$.%.| $.T A $ , I 9X;X#Xs.<.eX,.P   X w H H S q D D H T L ) j.C.R.R.F.L.z.h > * 2 5 2 e P $.%.T ",
"$ $ + + % 2 5 + S ,.).D.o ..wX^ A 2 5 2 2 2 2 w I ^ T ^ B f w.R.}.}.}.}.I.h.> 1 5 5 2 A %.rX>.I "
};
