/* XPM */
static char *e658a03cf5784d8cad57303319ec77d1ti2iRAgarDBSOUkT[] = {
/* columns rows colors chars-per-pixel */
"48 48 56 1 ",
"  c #7B8E9C",
". c #7E909E",
"X c #8795A1",
"o c #8B99A4",
"O c #939AA2",
"+ c #9DA3AA",
"@ c #A3A7AD",
"# c #A4A9AF",
"$ c #A7ABB0",
"% c #A9ACB2",
"& c #ADAFB4",
"* c #AEB3B9",
"= c #B7B7BA",
"- c #BEBBBC",
"; c #C1BEBF",
": c #C5BFBF",
"> c #B8BBC0",
", c #C6C1C1",
"< c #C5C3C6",
"1 c #C8C3C3",
"2 c #CAC4C3",
"3 c #CAC5C5",
"4 c #CCC7C7",
"5 c #CFCACA",
"6 c #D0CAC9",
"7 c #D0CCCD",
"8 c #D4CFCF",
"9 c #D7D0CF",
"0 c #D7D1D1",
"q c #D9D3D3",
"w c #DAD4D3",
"e c #DDD7D7",
"r c #DBD6D8",
"t c #DCD7D8",
"y c #DED9DA",
"u c #DFDCDC",
"i c #E0DADA",
"p c #E1DBDC",
"a c #E3DDDD",
"s c #E5DFDF",
"d c #E7E0E0",
"f c #E8E2E2",
"g c #EBE5E5",
"h c #EDE7E7",
"j c #EFEBEB",
"k c #F0EBEB",
"l c #F0ECEB",
"z c #F3EFEF",
"x c #F4EFEF",
"c c #F3F0F0",
"v c #F5F2F2",
"b c #F7F5F5",
"n c #F8F5F5",
"m c #FBF9F9",
"M c #FCFBFB",
"N c #FDFCFC",
/* pixels */
"fffffffdgnmmmmmmmmmmmmmmmmmmzsddddsgnmmmmngdffff",
"dddddddsgnmmmmmmmmmmmmmmmmmmvzzzzzzznmmmmncgdddd",
"ggggggggjnmmmmmmmmmmmmmmmmmmmmmmmmmmmmmmmmMcgggg",
"nnnnnnnbnmmmmmmmmmnmmmmmmmmmmmmmmmmmmmmmmmmnbnnn",
"mmmmmmmmmmmmmmmmmmmmnzzxvvzzzzmMmmmmmmmmmmmmmmmm",
"mmmmmmmmmmmmmmmmmmmmngsitysdsfvnnnnnnbnmmmmmmmmm",
"mmmmmmmmmmmmmmmmmmmMnhw-X#7dgfgggggggfgnmmmmmmmm",
"mmmmmmmmmmmmmmmMvzzzzgi7>=:7ifdddddssgznmmmmmmmm",
"mmmmmmmmmmnnnnnnjsdddffgje1,qgfffffggcMmmmmmmmmm",
"mmmmmmmmmmzgggfgfffffffffdaadffddsjnnnmmmmmmmmmm",
"mmmmmmmmmmzssgzzgddddddddffffddhzzvMmmmmmmmmmmmm",
"nnmmmmmmmmzffzMMzggggggggggggggzMmmmmmmmmmmnnnnn",
"gzMmmmmmmmnnnnmmnnnnnnnnnnnnnnnnmmmmmmmmmmmzgggg",
"dgzjvmmmmmmmmmmmmmmmmmmmmmmmmmmmmmmmmmmmmmMzsddd",
"ffffzmmmmmmmmmmmmmmmmmmmmmmmmmmmmmmmnnnnnnnzdfff",
"sjnnnmmmmmmmmmmmmmmmmmmmmmmmmmmmmmmnjggggghhgfff",
"zvmmmmmmmmmmmmmmmmmmmmmmmmmmmmmmmmMngsddfs07qdgg",
"mmmmmmmmmmmmmmmmmmmnnnbnmmmmmmmmmnnvgdffgs5:4iss",
"mmmmmmmmmmmmmmmmmmMcgggjnMmmmmmNmjhhfffffdssi3:,",
"mmmmmmmmmmmmmmmmMmcgdddfzzzzzzzgy070sfddddfffaua",
"mmmmmmmmmmmmmnnnnvfdffffddddddf0:1,5dhgggggfjmNM",
"mmmmmmmmmmmmMzggggfffffffffffffdasisvnnnnnnbnmmm",
"mmmmmmmmnzzzzhddddffffffdddddfffffjvmMmmmmmmmmmm",
"mmmnmmmmngsdddffffffffffggggffffggcMmmmmmmmmmmmm",
"mmmmmmmMngdffffdddddddsfvnnnzddznnnmmmmmmmmmmmmm",
"mmmmvzzzzgdffdgzzzzzzzzzmMMNzddzMmmmmmmmmmmnmmmm",
"mmmmzsdddffffdgnMmmmmmmmmnnnzddzmmmmmmmmmmmmmmmm",
"mmmmzsdddffffdgnMmmmmmmmmzfffdszMmmmmmmmmmmmmmmm",
"mmmmvzzzzgddddfjzzzjznmmmvjkzzzzzzvMmmmmmmmnmmmm",
"mmmmmmmmngfgggggffffgnmmmmmmmmMzssjnnbnmmmmmmmmm",
"mmmmnmmmnfjnnnnnnnnbnmmmmmmnmMMzdffggfgnmmmmmmmm",
"mmmmmnmmnzvMmmmmmmmmmmmmmmmmvzzjdfdfjzznmmmmmmmm",
"mmmmmmmmmmmmmmmmmmmmmmmmnbnnjsddffdgnMmmmmmmmmmm",
"mmmmmmmmmmmmmmmmmmMMMMNnjgggfdddddsgnmmmmmmmmmmm",
"mmnzjzzzzmMmvxvvvzauaugzfdddhzzzzzzznmmmmmmmmmmm",
"mmngffgdfvmvdyrrpy3:,:0ffffdzMmmmmmmmmmmmmmmmnmm",
"mmmnbnnkdhjg9&. $6issadffffdzMmmmmmmmmmmmmmmmmmm",
"mmmMMMNvs095@O+*<qdgfffdddfdjzzzzzvmmmmmmmmmmmmm",
"mnbnnbvjy42;o%9fjhgggggggfffdddddszMmmmmmmmmmnmm",
"mzffgd5:3ysptysslnnnnnnnnjsddffffdzNNMmmmMmmmmmm",
"mvjzzjayazvzvvzzvMmmmmmmMvzzjdffggduugzzdabMmmmm",
"mmmmmmMMMmmmmmmmmmmmmmmmmmMMzdfdsd0::0ff05vMmmmm",
"mmmmmmmmmmmmmmmmmmmmmmmmmmMMzdgq,,0sadfsjvnmmmmm",
"MvzzvMmmmmmmmmmmnmmmmmmmMvzzjdfy88iggffjnMmmmmmm",
"njssjnnbnmmmmmmmmmmmmmmmnjsddfffggfffdgnMmmmmnbn",
"gffffgggjnMmmmmmmmmmmmmnhddddffffffffdgnMmmMnjgg",
"ddffddddfjvmmmmmmmmmmmmnzzzzjdfffffffdgzzzzzzfdd",
"fffffffffszmmmmmmmmmmmmmmmmMzdfffffffffddddddfff"
};
