/* XPM */
static char *e2ba4dc4ca244950c6a66f79af7f6c58o3u6oDog5yFkmfCw[] = {
/* columns rows colors chars-per-pixel */
"32 32 5 1 ",
"  c #2C563F",
". c #118428",
"X c #648818",
"o c #99A718",
"O c #DED214",
/* pixels */
"XOooO o.XoXoo oXOXOXo  XXoX OXXO",
"ooXoO.o XoooXoooo Ooo XX.X.XOXXo",
"X. oOXo XoX.XXooXoOoXX.O.X..ooXo",
"X  XoXX.X ..X.oX.oOXX..O.OX.Xo.X",
".  Xo X.X .   X. XO.X.XoXOX.XX.X",
" . XX X.XOX  XX  Xo XXoXXOXOXXXO",
" X.XOXXXXXO .X   .o X  XoOXoXOOX",
"XOXXo XoXoO.XXO.  X . XXoOooXoXX",
"XOXXo  oXoOXOO  . .  X.X.oo oo X",
"XooXoo XoooOoXX XX. OX.X.oX XX X",
" oXooXXXooXOoXXOX..XOX.OXoX.XXX ",
"   oX .XXoXOo XoX.XXoXXOXXX.XXOX",
"X  X  .XXo Oo Xo.XOXXo OoOXXXOXX",
"X    ..XXX oXX X XXOXo OXoX XOXo",
"oX OX.XX X XXX X . O XXXX..OXoXo",
"o.XOX. X   .X  .   o XO.X .oooXo",
"X.XoXX  X  .X  X.  o Xo.X  .o. o",
"X.oX.OX XXXXXX.X. ..ooXX.X    .o",
"oXoX.OoXO.XoOX.O XXXoXOX..X. .XX",
"o.o.XooXO.XOooXO .X.oXOoX.OXXO. ",
" . . .OXoXoOXoXo. X XXXooXOoXO. ",
"    .XO.o oO oooX.  XOXXoXOoXo. ",
"   .X.O.o oO oXXXX X.OX.ooOooXX.",
" .XXX.Oo..XOXXX.XXOX.O .XoXooX .",
"X.XoOXO.  XoXX.XOXOXXO XXo Xo XO",
"OXooXXOXX . . .oO oo OXo X .XOXX",
"OXo. XoX.    X.Xo Xo ooo XX.XOXX",
"Ooo  Xo..  . XXXoX oXoXo OX.XoXX",
"OoX .XX.X.XXXX.XXo oOoXXXOoX o  ",
"oXXOXXX.OX.XXO.XoOXXOXXOXXoo XX ",
"oXXXO.oXOX.oOo XXXOXoXXoO o   X ",
"XOXoO oXoXXooX XOXOXo  Xoo  X O "
};
