/* XPM */
static char *_cbbae5895514ef8bda1f08b0e7d67e7YUyii9eUUiqqpR2c[] = {
/* columns rows colors chars-per-pixel */
"48 48 191 2 ",
"   c None",
".  c #00004C",
"X  c #00005C",
"o  c #000053",
"O  c #002644",
"+  c #00294C",
"@  c #002C53",
"#  c #002F59",
"$  c #00315D",
"%  c #000065",
"&  c #000073",
"*  c #00007B",
"=  c #001C77",
"-  c #003465",
";  c #003769",
":  c #00386B",
">  c #003C74",
",  c #003E79",
"<  c #00417D",
"1  c #485365",
"2  c #465572",
"3  c #00078C",
"4  c #000D95",
"5  c #002F8E",
"6  c #00308F",
"7  c #003594",
"8  c #003C9F",
"9  c #0006A9",
"0  c #001AAA",
"q  c #0023AB",
"w  c #002AA9",
"e  c #0027A0",
"r  c #0033AB",
"t  c #003AAE",
"y  c #003CB3",
"u  c #004483",
"i  c #00498E",
"p  c #004789",
"a  c #004C93",
"s  c #004F99",
"d  c #00519D",
"f  c #004EA4",
"g  c #0044AD",
"h  c #0048AD",
"j  c #0054A3",
"k  c #0057A9",
"l  c #0059AD",
"z  c #004CB3",
"x  c #0046BA",
"c  c #004CBB",
"v  c #0040B5",
"b  c #0055B2",
"n  c #005DB4",
"m  c #0055BC",
"M  c #005EBA",
"N  c #0061BC",
"B  c #485E88",
"V  c #446EB4",
"C  c #4471BB",
"Z  c #4873BC",
"A  c #4867A1",
"S  c #004FC7",
"D  c #0052C3",
"F  c #005AC5",
"G  c #0057CD",
"H  c #005DCA",
"J  c #005DD3",
"K  c #0064C3",
"L  c #0065CA",
"P  c #0069CC",
"I  c #086BCE",
"U  c #0064D4",
"Y  c #006DD5",
"T  c #0C6ED4",
"R  c #0065DC",
"E  c #006CDB",
"W  c #0171DC",
"Q  c #0C73DD",
"!  c #1A74DB",
"~  c #3C74C9",
"^  c #2C77DB",
"/  c #2B77DB",
"(  c #357ADC",
")  c #3F7CDA",
"_  c #0067E2",
"`  c #006DE3",
"'  c #006DE8",
"]  c #0174E3",
"[  c #0074EA",
"{  c #0179EB",
"}  c #0876E3",
"|  c #197CEC",
" . c #007CF4",
".. c #007FF9",
"X. c #0076F0",
"o. c #2A7FEB",
"O. c #357DE3",
"+. c #367FE4",
"@. c #4978C9",
"#. c #477BD1",
"$. c #0081FC",
"%. c #2980ED",
"&. c #3883EB",
"*. c #4D82DB",
"=. c #5887DB",
"-. c #5686DB",
";. c #7A92C9",
":. c #638DDC",
">. c #688FDB",
",. c #6A8DD4",
"<. c #6790DF",
"1. c #7597DC",
"2. c #7D9DDE",
"3. c #7B97D5",
"4. c #4A89EC",
"5. c #5D8DE3",
"6. c #538CEA",
"7. c #5E90EB",
"8. c #608EE1",
"9. c #6591E4",
"0. c #6694E7",
"q. c #739BE7",
"w. c #769CE6",
"e. c #7EA0E8",
"r. c #84868C",
"t. c #818693",
"y. c #8490AD",
"u. c #ACAFB3",
"i. c #859ACB",
"p. c #8197CC",
"a. c #809DDB",
"s. c #86A1DC",
"d. c #8BA4DC",
"f. c #8CA2D7",
"g. c #9AAEDB",
"h. c #96ABDA",
"j. c #9DB1DD",
"k. c #AFB4C1",
"l. c #B0B8CF",
"z. c #A4B2D5",
"x. c #A3B4DC",
"c. c #ACBBDB",
"v. c #A7B8DD",
"b. c #B1BEDB",
"n. c #85A3E2",
"m. c #8AA6E3",
"M. c #8FA8E1",
"N. c #93ACE3",
"B. c #9AB0E1",
"V. c #B0BFE3",
"C. c #A5B8E3",
"Z. c #B5C2DB",
"A. c #BAC5DB",
"S. c #BFC8D9",
"D. c #B9C5E2",
"F. c #BAC7EC",
"G. c #BEC9E0",
"H. c #BFCCF1",
"J. c #C5CDDB",
"K. c #CBCFD6",
"L. c #CBD2DC",
"P. c #D0D0D1",
"I. c #D5D9DC",
"U. c #D9DDDE",
"Y. c #D1D5DC",
"T. c #DEE1DF",
"R. c #C5CDE3",
"E. c #C9D1E6",
"W. c #CFD5E9",
"Q. c #D3D9E4",
"!. c #DADEE2",
"~. c #D3DAEB",
"^. c #D5DBEA",
"/. c #C0CEF6",
"(. c #DFE2E3",
"). c #DCE3F7",
"_. c #E2E4E2",
"`. c #E2E5EA",
"'. c #EAECEA",
"]. c #E7E9E7",
"[. c #EFF1EF",
"{. c #F0F2EF",
"}. c #E2E6F1",
"|. c #EBEDF3",
" X c #E4EAF9",
".X c #EFF1F2",
"XX c #EEF1F9",
"oX c #F3F4F4",
"OX c #F2F5FC",
"+X c #F7F9FD",
"@X c #FEFEFE",
/* pixels */
"                        n n n N K K N n n n n N K K N n n l                                     ",
"                        n n n N K K N n n n n N K K N n l l                                     ",
"                        n n n N K K N M n n n N K K N n n n                                     ",
"                        n n n N K K K N M N N K K L K N N N                                     ",
"                      z b b b M K K K K K K K L P P L K K L L                                   ",
"                    r t g g z c D F F H L L U U Y Y Y P I T T Y                                 ",
"                9 9 0 q w r t v c D G J U R R E E W W Y T T Q W W W                             ",
"              q q q w w w w r y x S G J R _ ` ` ] ] ] Q Q Q W W W W W                           ",
"            z z z z z z z h z z m H U E ` [ [ [ [ [ ] } } } { ] W W W W                         ",
"            C C C @.#.@.@.Z C C @.#.) O.&.&.%.%.| | { { {  ...$.{ W E Y                         ",
"            ;.;.;.m.N.M.f.i.i.p.3.3.1.0.0.7.6.4.&.%.| { X...$.$...] Y P K                       ",
"            z.z.z.F./.H.F.b.b.c.v.x.B.N.m.e.q.0.6.&.| { {  ...$...] Y L M j                     ",
"            R.R.R.). X X).^.~.W.E.R.D.V.C.N.n.w.0.4.o.[ [ X.X. .{ W P K l s < $                 ",
"            }.}.}.OX@X@X+XOX|.|.}.^.W.R.D.c.B.n.q.6.o.[ [ [ { [ ] E L N k a , - +               ",
"            +X+X+X@X@X@X@X@X@X+XoX|.(.Q.L.A.v.N.w.5.+.[ ' ' [ ] ] Y L N k a , - @ @             ",
"            @X@X@X@X@X@X@X@X@X@X+XoX'.(.I.J.b.j.n.9.+.] ' ' ] ] W Y P K n d u - # @             ",
"            @X@X@X@X@X@X@X@X@X@XoX{.'._.I.J.Z.j.n.9.+.` ' ' ` ] W Y P K n j u ; # @             ",
"            @X@X@X@X@X@X@X@X+XoX[.'.]._.U.L.A.x.s.9.O.` _ ' ` ] W E P K n j u - # @             ",
"            @X@X@X@X@X@X@X+X.X'.]._._.T.I.L.A.v.d.<.O.` _ _ ` ] ] E P K n d u - # @             ",
"            @X@X@X@X@X@X@X.X`.!.!.U.U.U.I.L.A.v.s.>.( E R _ ` ] W E P K n s u - # @             ",
"            @X@X@X@X@X@XOX`.Q.L.L.L.Y.I.L.J.Z.x.s.>.( R R R ` ] W Y P N l s < - # @             ",
"            @X@X+X@X@X+X}.Q.J.A.A.S.J.J.J.A.c.g.a.:.( R R R ` ] W Y P N l s < - # @             ",
"            '.'.].|.XX}.~.G.b.c.c.c.Z.Z.Z.c.x.d.1.=.^ R R E ` ] W Y P N l a < - @ @             ",
"            P.P.P.Y.Q.E.D.v.g.h.h.g.j.x.x.g.d.2.>.*./ E R E ` ] W Y L N l a , $ @ +             ",
"            u.u.u.k.l.z.h.f.a.2.2.2.s.s.s.a.1.>.-.) ! E E E ] ] W Y L N k a , $ + O             ",
"            r.r.t.y.y.;.;.,.:.5.5.8.:.>.:.:.=.*.) ^ ! E E W ] ] W Y L N k a , # + O             ",
"            1 1 2 B A V ~ ~ ( O.O.O.( ( ( ( ^ / ! ! W W W W ] ] W Y L N l a , $ @ +             ",
"            . . X = 7 h m H U E ` ` E E R R E E E W W W Q Q ] ] W E P K n d u : - $             ",
"            o X % * 4 r x D H U R R R R R R R E E E W Q Q } ] ] ] W Y L N k a < , >             ",
"            & & * 3 e t x D F J U R R R R R E E E E W Q Q } } ] ] ] W Y L N j i u u             ",
"            5 6 7 8 g z m m F L L U U R E E E E W W W Q ] } } { { ] ] W Y L M d a a             ",
"            f f f b M M M M M K L P Y E E W ] W W W W W ] ] { { { ] ] ] W Y K k j j             ",
"            n n n N K K N n n N K L P Y W W W W W W W W ] ] [ { { { ] ] W Y K n k k             ",
"            N N N K K K N n n n N K L Y Y W W W W W W W W ] ] { { ] W W Y L N n n n             ",
"            N N N K L K N n n M N K L Y Y W W W E Y Y Y W W ] ] ] W W Y P K N N M               ",
"            N N N K P L K N N N K K P Y Y Y E E Y Y Y Y E W W W W Y Y Y L K K M                 ",
"            N N N K P P K K K K K L P Y Y Y Y Y Y Y Y Y Y Y W W Y P P L L K                     ",
"            N N N K P P L K K K K L L P P P P P P P P P P Y Y Y L K K K K                       ",
"            N N M K L L K K N N N N K K N K K K K K K K K K L L K N M N                         ",
"            n n n N K N n n n n n n n n n n n n n n n n n n N K N n n n                         ",
"            k k k n n l n n n n n n n n n n n l n n n n n n n M n n n n                         ",
"            d d d j j j k l n n N n n n n n n n n n l l n n n n n n n n                         ",
"            i i a a a s d k                             n n n n n n n n                         ",
"            u u u u u p a                                 n n n n n n n                         ",
"            > > , , , ,                                     n n n n n n                         ",
"            ; ; ; ; ; -                                     n n n n n n                         ",
"            - - - - - $                                     n n n n n n                         ",
"            - - - - - $                                     n n n n n n                         "
};
