/* XPM */
static char *b2f4620a84274c29e77dce1810d74dc2C5zFthaPoX6gbamE[] = {
/* columns rows colors chars-per-pixel */
"48 48 190 2 ",
"   c None",
".  c #00004C",
"X  c #00005C",
"o  c #000053",
"O  c #002644",
"+  c #00294C",
"@  c #002C53",
"#  c #002F59",
"$  c #00315D",
"%  c #000065",
"&  c #000073",
"*  c #00007B",
"=  c #001C77",
"-  c #003464",
";  c #00376A",
":  c #003C74",
">  c #003E79",
",  c #00417D",
"<  c #485365",
"1  c #465572",
"2  c #00078C",
"3  c #000D95",
"4  c #002F8E",
"5  c #00308F",
"6  c #003594",
"7  c #003C9F",
"8  c #0006A9",
"9  c #001AAA",
"0  c #0023AB",
"q  c #002AA9",
"w  c #0027A0",
"e  c #0033AB",
"r  c #003AAE",
"t  c #003CB3",
"y  c #004484",
"u  c #00498D",
"i  c #004C94",
"p  c #004F99",
"a  c #00519D",
"s  c #004EA4",
"d  c #0044AD",
"f  c #0048AD",
"g  c #0054A3",
"h  c #0057AA",
"j  c #0059AD",
"k  c #004CB3",
"l  c #0046BA",
"z  c #004CBB",
"x  c #0040B5",
"c  c #0055B2",
"v  c #005DB4",
"b  c #0055BC",
"n  c #005EBA",
"m  c #0061BC",
"M  c #485E88",
"N  c #446EB4",
"B  c #4471BB",
"V  c #4873BC",
"C  c #4867A1",
"Z  c #004FC7",
"A  c #0052C3",
"S  c #005AC5",
"D  c #0057CD",
"F  c #005DCA",
"G  c #005DD3",
"H  c #0064C3",
"J  c #0065CA",
"K  c #0069CC",
"L  c #086BCE",
"P  c #0064D4",
"I  c #006DD5",
"U  c #0C6ED4",
"Y  c #0065DC",
"T  c #006CDB",
"R  c #0171DC",
"E  c #0C73DD",
"W  c #1A74DB",
"Q  c #3C74C9",
"!  c #2C77DB",
"~  c #2B77DB",
"^  c #357ADC",
"/  c #3F7CDA",
"(  c #0067E2",
")  c #006DE3",
"_  c #006DE8",
"`  c #0174E3",
"'  c #0074EA",
"]  c #0179EB",
"[  c #0876E3",
"{  c #197CEC",
"}  c #007CF4",
"|  c #007FF9",
" . c #0076F0",
".. c #2A7FEB",
"X. c #357DE3",
"o. c #367FE4",
"O. c #4978C9",
"+. c #477BD1",
"@. c #0081FC",
"#. c #2C80ED",
"$. c #2580EE",
"%. c #3883EB",
"&. c #4D82DB",
"*. c #5887DB",
"=. c #5686DB",
"-. c #7A92C9",
";. c #638DDC",
":. c #688FDB",
">. c #6A8DD4",
",. c #6790DF",
"<. c #7597DC",
"1. c #7D9DDE",
"2. c #7B97D5",
"3. c #4A89EC",
"4. c #5D8DE3",
"5. c #538CEA",
"6. c #5E90EB",
"7. c #608EE1",
"8. c #6591E4",
"9. c #6694E7",
"0. c #739BE7",
"q. c #769CE6",
"w. c #7EA0E8",
"e. c #84868C",
"r. c #818693",
"t. c #8490AD",
"y. c #ACAFB3",
"u. c #859ACB",
"i. c #8197CC",
"p. c #809DDB",
"a. c #86A1DC",
"s. c #8BA4DC",
"d. c #8CA2D7",
"f. c #9AAEDB",
"g. c #96ABDA",
"h. c #9DB1DD",
"j. c #AFB4C1",
"k. c #B0B8CF",
"l. c #A4B2D5",
"z. c #A3B4DC",
"x. c #ACBBDB",
"c. c #A7B8DD",
"v. c #B1BEDB",
"b. c #85A3E2",
"n. c #8AA6E3",
"m. c #8FA8E1",
"M. c #93ACE3",
"N. c #9AB0E1",
"B. c #B0BFE3",
"V. c #A5B8E3",
"C. c #B5C2DB",
"Z. c #BAC5DB",
"A. c #BFC8D9",
"S. c #B9C5E2",
"D. c #BAC7EC",
"F. c #BEC9E0",
"G. c #BFCCF1",
"H. c #C5CDDB",
"J. c #CBCFD6",
"K. c #CBD2DC",
"L. c #D0D0D1",
"P. c #D5D9DC",
"I. c #D9DDDE",
"U. c #D1D5DC",
"Y. c #DEE1DF",
"T. c #C5CDE3",
"R. c #C9D1E6",
"E. c #CFD5E9",
"W. c #D3D9E4",
"Q. c #DADEE2",
"!. c #D3DAEB",
"~. c #D5DBEA",
"^. c #C0CEF6",
"/. c #DFE2E3",
"(. c #DCE3F7",
"). c #E2E4E2",
"_. c #E2E5EA",
"`. c #EAECEA",
"'. c #E7E9E7",
"]. c #EFF1EF",
"[. c #F0F2EF",
"{. c #E2E6F1",
"}. c #EBEDF3",
"|. c #E4EAF9",
" X c #EFF1F2",
".X c #EEF1F9",
"XX c #F3F4F4",
"oX c #F2F5FC",
"OX c #F7F9FD",
"+X c #FEFEFE",
/* pixels */
"                                    j v v m H H m v v v v m H H m v v v                         ",
"                                    j j v m H H m v v v v m H H m v n v                         ",
"                                    v v v m H H m v v v v m H H m v v v                         ",
"                                    m m m H J H H m m n m m H H m v v v                         ",
"                                  J J H H J K K J H H H H H H H n c c c k                       ",
"                                I U U L K I I I I P J J F S S A z k d d r e                     ",
"                            R R R E U U I R R T T Y Y G G D A z x r e q 0 9 8 8                 ",
"                          R R R R E E E E ` ` ` ) ) ( Y G D Z l t e q q q q 0 0 0               ",
"                        R R R R ` ] ` ` ` ` ' ' ' ' ' ) T P F b k k f k k k k k k k             ",
"                        I I R ] @.| } ] ] ] { { $.#.#.%.o./ +.O.B B V O.O.+.O.B B B             ",
"                      H K I ` } @.@.}  .] { #.%.3.5.6.9.9.<.2.2.i.i.u.d.m.M.n.-.-.-.            ",
"                    g n J I ` } @.| } ] ] { %.5.9.0.w.n.M.N.z.c.x.v.v.D.G.^.D.l.l.l.            ",
"                $ , p j H K R ] }  . .' ' ..3.9.q.b.M.V.B.S.T.R.E.!.~.(.|.|.(.T.T.T.            ",
"              + - > i h m K I ` ' ] ' ' ' ..5.0.b.N.x.S.T.E.~.{.}.}.oXOX+X+XoX{.{.{.            ",
"            @ @ - > i h m J I ` ` ' _ _ ' o.4.q.M.c.Z.K.W._.}.XXOX+X+X+X+X+X+XOXOXOX            ",
"            @ # - y a v H K I R ` ' _ _ ` o.8.b.h.v.H.P./.`.XXOX+X+X+X+X+X+X+X+X+X+X            ",
"            @ # ; y g v H K I ` ` ) _ _ ) o.8.b.h.C.H.P.).`.[.XX+X+X+X+X+X+X+X+X+X+X            ",
"            @ # - y g v H K I R ` ) ( ( ) X.8.a.z.Z.K.I.).'.`.].XXOX+X+X+X+X+X+X+X+X            ",
"            @ # - y a v H K I R ` ) ( ( ) X.,.s.c.Z.K.P.Y.).).'.`. XOX+X+X+X+X+X+X+X            ",
"            @ # - , p v H K I R ` ) ( Y T ^ ,.s.c.Z.K.P.I.I.I.Q.Q._. X+X+X+X+X+X+X+X            ",
"            @ # - , p j m K I R ` ) Y Y Y ^ ;.a.z.C.H.K.P.U.K.K.K.W._.oX+X+X+X+X+X+X            ",
"            @ # - , p j H K I R ` ) Y Y Y ^ ;.p.f.x.Z.H.H.H.A.Z.Z.H.W.{.OX+X+XOX+X+X            ",
"            @ @ - , i j m K I R ` ) T Y Y ! *.<.s.z.x.C.C.C.x.x.x.v.F.!.{..X}.'.`.`.            ",
"            + @ $ > i j m K I R ` ) T Y I ~ &.:.1.s.f.z.z.h.f.g.g.f.c.S.R.W.U.L.L.L.            ",
"            O + $ : i h m K I R ` ` T T I W / =.:.<.p.a.a.a.1.q.1.p.d.g.l.k.j.y.y.y.            ",
"            O + # : i h m K I R ` ` R T I W ! / &.*.;.;.;.;.7.4.4.;.>.-.-.t.t.r.e.e.            ",
"            + @ $ > i j m K I R ` ` R R R R W W ~ ! ^ ^ ^ ^ X.X.X.^ Q Q N C M 1 < <             ",
"            $ - ; y a v H K I R ` ` E E R R R T I I Y Y T T ) ) T P F b f 6 = X . .             ",
"            : : , i h m J I R ` ` ` [ E E R T T T Y Y Y Y Y Y Y P F A l e 3 * % X o             ",
"            y y u g m J I R ` ` ` ` [ E E R T T T T Y Y Y Y Y P G F A l r w 2 * & &             ",
"            i i a v K I R ` ` ] ] ` ` ` E R R R T T T T Y P P J J S b b k d 7 6 5 4             ",
"            g g h H I R ` ` ` ] ] ] ` ` R R R R R ` R T I I K J H n n n n n c s s s             ",
"            h h v H I R ` ` ] ] ] ' ` ` R R R R R R R R I K J H m v v m H H m v v v             ",
"            v v v m K I R R ` ] ] ` ` R R R R R R R R I I K H m v v v m H H H m m n             ",
"              v m m H K I R R ` ` ` R R I I I I R R R I I K H m v v v m H K H m m m             ",
"                n H H K I I I R R R R I I I I I I I I I I K H H m m m H K I K m m m             ",
"                    H J K K K I R R I I I I I I I I I I I K K H H H H K I I K m m n             ",
"                      H H H H K I I I K K K K K K K K K K K J H H H H K I I K m v n             ",
"                        m n m H K K H H m H H H H H H H H H m m m m H H K K H n v v             ",
"                        v v v m H m v v v v v v v v v v v v v v v v v v n m n v v v             ",
"                        v v v v n v v v v v v v v v v v v v v v v v n v v v v v v               ",
"                        v v v v v v v v v v v j v v v v v v v v v v n v v v v v                 ",
"                        v v v v v v v v                                                         ",
"                        v v v v v v v                                                           ",
"                        v v v v v v                                                             ",
"                        v v v v v v                                                             ",
"                        v v v v v v                                                             ",
"                        v v v v v v                                                             "
};
