/* XPM */
static char *ac261a2077fb49dbaea3be9b85fc3fcesgNDdDfnpKdxDWr1[] = {
/* columns rows colors chars-per-pixel */
"48 48 190 2 ",
"   c None",
".  c #00004C",
"X  c #00005C",
"o  c #000053",
"O  c #002644",
"+  c #00294C",
"@  c #002C53",
"#  c #002F59",
"$  c #00315D",
"%  c #000065",
"&  c #000073",
"*  c #00007B",
"=  c #001C77",
"-  c #003464",
";  c #00376A",
":  c #003C74",
">  c #003E79",
",  c #00417D",
"<  c #485365",
"1  c #465572",
"2  c #00078C",
"3  c #000D95",
"4  c #002F8E",
"5  c #00308F",
"6  c #003594",
"7  c #003C9F",
"8  c #0006A9",
"9  c #001AAA",
"0  c #0023AB",
"q  c #002AA9",
"w  c #0027A0",
"e  c #0033AB",
"r  c #003AAE",
"t  c #003CB3",
"y  c #004484",
"u  c #00498D",
"i  c #004C94",
"p  c #004F99",
"a  c #00519D",
"s  c #004EA4",
"d  c #0044AD",
"f  c #0048AD",
"g  c #0054A3",
"h  c #0057AA",
"j  c #0059AD",
"k  c #004CB3",
"l  c #0046BA",
"z  c #004CBB",
"x  c #0040B5",
"c  c #0055B2",
"v  c #005DB4",
"b  c #0055BC",
"n  c #005EBA",
"m  c #0061BC",
"M  c #485E88",
"N  c #446EB4",
"B  c #4471BB",
"V  c #4873BC",
"C  c #4867A1",
"Z  c #004FC7",
"A  c #0052C3",
"S  c #005AC5",
"D  c #0057CD",
"F  c #005DCA",
"G  c #005DD3",
"H  c #0064C3",
"J  c #0065CA",
"K  c #0069CC",
"L  c #086BCE",
"P  c #0064D4",
"I  c #006DD5",
"U  c #0C6ED4",
"Y  c #0065DC",
"T  c #006CDB",
"R  c #0171DC",
"E  c #0C73DD",
"W  c #1A74DB",
"Q  c #3C74C9",
"!  c #2C77DB",
"~  c #2B77DB",
"^  c #357ADC",
"/  c #3F7CDA",
"(  c #0067E2",
")  c #006DE3",
"_  c #006DE8",
"`  c #0174E3",
"'  c #0074EA",
"]  c #0179EB",
"[  c #0876E3",
"{  c #197CEC",
"}  c #007CF4",
"|  c #007FF9",
" . c #0076F0",
".. c #2A7FEB",
"X. c #357DE3",
"o. c #367FE4",
"O. c #4978C9",
"+. c #477BD1",
"@. c #0081FC",
"#. c #2C80ED",
"$. c #2580EE",
"%. c #3883EB",
"&. c #4D82DB",
"*. c #5887DB",
"=. c #5686DB",
"-. c #7A92C9",
";. c #638DDC",
":. c #688FDB",
">. c #6A8DD4",
",. c #6790DF",
"<. c #7597DC",
"1. c #7D9DDE",
"2. c #7B97D5",
"3. c #4A89EC",
"4. c #5D8DE3",
"5. c #538CEA",
"6. c #5E90EB",
"7. c #608EE1",
"8. c #6591E4",
"9. c #6694E7",
"0. c #739BE7",
"q. c #769CE6",
"w. c #7EA0E8",
"e. c #84868C",
"r. c #818693",
"t. c #8490AD",
"y. c #ACAFB3",
"u. c #859ACB",
"i. c #8197CC",
"p. c #809DDB",
"a. c #86A1DC",
"s. c #8BA4DC",
"d. c #8CA2D7",
"f. c #9AAEDB",
"g. c #96ABDA",
"h. c #9DB1DD",
"j. c #AFB4C1",
"k. c #B0B8CF",
"l. c #A4B2D5",
"z. c #A3B4DC",
"x. c #ACBBDB",
"c. c #A7B8DD",
"v. c #B1BEDB",
"b. c #85A3E2",
"n. c #8AA6E3",
"m. c #8FA8E1",
"M. c #93ACE3",
"N. c #9AB0E1",
"B. c #B0BFE3",
"V. c #A5B8E3",
"C. c #B5C2DB",
"Z. c #BAC5DB",
"A. c #BFC8D9",
"S. c #B9C5E2",
"D. c #BAC7EC",
"F. c #BEC9E0",
"G. c #BFCCF1",
"H. c #C5CDDB",
"J. c #CBCFD6",
"K. c #CBD2DC",
"L. c #D0D0D1",
"P. c #D5D9DC",
"I. c #D9DDDE",
"U. c #D1D5DC",
"Y. c #DEE1DF",
"T. c #C5CDE3",
"R. c #C9D1E6",
"E. c #CFD5E9",
"W. c #D3D9E4",
"Q. c #DADEE2",
"!. c #D3DAEB",
"~. c #D5DBEA",
"^. c #C0CEF6",
"/. c #DFE2E3",
"(. c #DCE3F7",
"). c #E2E4E2",
"_. c #E2E5EA",
"`. c #EAECEA",
"'. c #E7E9E7",
"]. c #EFF1EF",
"[. c #F0F2EF",
"{. c #E2E6F1",
"}. c #EBEDF3",
"|. c #E4EAF9",
" X c #EFF1F2",
".X c #EEF1F9",
"XX c #F3F4F4",
"oX c #F2F5FC",
"OX c #F7F9FD",
"+X c #FEFEFE",
/* pixels */
"                        v v v m H H m v v v v m H H m v v j                                     ",
"                        v v v m H H m v v v v m H H m v j j                                     ",
"                        v v v m H H m n v v v m H H m v v v                                     ",
"                        v v v m H H H m n m m H H H H m m m                                     ",
"                      k c c c n H H H H H H H J K K J H H J J                                   ",
"                    e r d d k z A S S F J J P P I I I K L U U I                                 ",
"                8 8 9 0 q e r x z A D G P Y Y T T R R I U U E R R R                             ",
"              0 0 0 q q q q e t l Z D G Y ( ) ) ` ` ` E E E R R R R R                           ",
"            k k k k k k k f k k b F P T ) ' ' ' ' ' ` [ [ [ ] ` R R R R                         ",
"            B B B O.+.O.O.V B B O.+./ o.%.#.#.$.{ { ] ] ] } | @.] R T I                         ",
"            -.-.-.n.M.m.d.u.u.i.2.2.<.9.9.6.5.3.%.#.{ ]  .| @.@.| ` I K H                       ",
"            l.l.l.D.^.G.D.v.v.x.c.z.N.M.n.w.0.9.5.%.{ ] ] } | @.| ` I J n g                     ",
"            T.T.T.(.|.|.(.~.!.E.R.T.S.B.V.M.b.q.9.3...' '  . .} ] R K H j p , $                 ",
"            {.{.{.oX+X+XOXoX}.}.{.~.E.T.S.x.N.b.0.5...' ' ' ] ' ` T K m h i > - +               ",
"            OXOXOX+X+X+X+X+X+XOXXX}./.W.K.Z.c.M.q.4.o.' _ _ ' ` ` I J m h i > - @ @             ",
"            +X+X+X+X+X+X+X+X+X+XOXXX`./.P.H.v.h.b.8.o.` _ _ ` ` R I K H v a y - # @             ",
"            +X+X+X+X+X+X+X+X+X+XXX[.`.).P.H.C.h.b.8.o.) _ _ ) ` R I K H v g y ; # @             ",
"            +X+X+X+X+X+X+X+XOXXX].`.'.).I.K.Z.z.a.8.X.) ( _ ) ` R T K H v g y - # @             ",
"            +X+X+X+X+X+X+XOX X`.'.).).Y.P.K.Z.c.s.,.X.) ( ( ) ` ` T K H v a y - # @             ",
"            +X+X+X+X+X+X+X X_.Q.Q.I.I.I.P.K.Z.c.a.:.^ T Y ( ) ` R T K H v p , - # @             ",
"            +X+X+X+X+X+XoX_.W.K.K.K.U.P.K.H.C.z.a.:.^ Y Y Y ) ` R I K m j p , - # @             ",
"            +X+XOX+X+XOX{.W.H.Z.Z.A.H.H.H.Z.x.f.p.;.^ Y Y Y ) ` R I K m j p , - # @             ",
"            `.`.'.}..X{.!.F.v.x.x.x.C.C.C.x.z.s.<.*.! Y Y T ) ` R I K m j i , - @ @             ",
"            L.L.L.U.W.R.S.c.f.g.g.f.h.z.z.f.s.1.:.&.~ T Y T ) ` R I K m j i > $ @ +             ",
"            y.y.y.j.k.l.g.d.p.1.1.1.a.a.a.p.<.:.=./ W T T T ` ` R I K m j i : $ + O             ",
"            e.e.r.t.t.-.-.>.;.4.4.7.;.:.;.;.*.&./ ! W T T R ` ` R I K m h i : # + O             ",
"            < < 1 M C N Q Q ^ X.X.X.^ ^ ^ ^ ! ~ W W R R R R ` ` R I K m j i > $ @ +             ",
"            . . X = 6 f b F P T ) ) T T Y Y T T T R R R E E ` ` R T K H v a y ; - $             ",
"            o X % * 3 e l A F P Y Y Y Y Y Y Y T T T R E E [ ` ` ` R I J m h i , : :             ",
"            & & * 2 w r l A S G P Y Y Y Y Y T T T T R E E [ [ ` ` ` R I J m g u y y             ",
"            4 5 6 7 d k b b S J J P P Y T T T T R R R E ` [ [ ] ] ` ` R I K n a i i             ",
"            s s s c n n n n n H J K I T T R ` R R R R R ` ` ] ] ] ` ` ` R I H j g g             ",
"            v v v m H m m v v m H H K I R R R R R R R R R ` ' ] ] ] ` ` R I H v j j             ",
"            n m m H H H m v v v m H K I I R R R R R R R R ` ` ] ] ` R R I K m v v v             ",
"            m m m H K H m v v v m H K I I R R R T I I I R R ` ` ` R R I K H m m v               ",
"            m m m K I K H m m m H H K I I I T T I I I I T R R R R I I I K H H n                 ",
"            n m m K I I K H H H H K K I I I I I I I I I I I R R I K K K K H                     ",
"            n v m I I I K H H H H J K K K K K K K K K K K I I I K H H H H                       ",
"            v v v H K K K H m m m m H H H H H H H H H H H H K K H m n m                         ",
"            v v v v m n v v v v v v v v v v v v v v v v v v m H m v v v                         ",
"              v v v v n v v v v v v v v v v v j v v v v v v v n v v v v                         ",
"                v v v v v v v v v v v v v v j j v v j j v v v v v v v v                         ",
"                                                        v v v v v v v v                         ",
"                                                          v v v v v v v                         ",
"                                                            v v v v v v                         ",
"                                                            v v v v v v                         ",
"                                                            v v v v v v                         ",
"                                                            v v v v v v                         "
};
