/* XPM */
static char *_bff11af8a93448b8f7d38c702a61c3enBNsRTjjJLyIeok6[] = {
/* columns rows colors chars-per-pixel */
"48 48 191 2 ",
"   c None",
".  c #00004C",
"X  c #00005C",
"o  c #000053",
"O  c #002644",
"+  c #00294C",
"@  c #002C53",
"#  c #002F59",
"$  c #00315D",
"%  c #000065",
"&  c #000073",
"*  c #00007B",
"=  c #001C77",
"-  c #003465",
";  c #003769",
":  c #00386B",
">  c #003C74",
",  c #003E79",
"<  c #00417D",
"1  c #485365",
"2  c #465572",
"3  c #00078C",
"4  c #000D95",
"5  c #002F8E",
"6  c #00308F",
"7  c #003594",
"8  c #003C9F",
"9  c #0006A9",
"0  c #001AAA",
"q  c #0023AB",
"w  c #002AA9",
"e  c #0027A0",
"r  c #0033AB",
"t  c #003AAE",
"y  c #003CB3",
"u  c #004483",
"i  c #00498E",
"p  c #004789",
"a  c #004C93",
"s  c #004F99",
"d  c #00519D",
"f  c #004EA4",
"g  c #0044AD",
"h  c #0048AD",
"j  c #0054A3",
"k  c #0057A9",
"l  c #0059AD",
"z  c #004CB3",
"x  c #0046BA",
"c  c #004CBB",
"v  c #0040B5",
"b  c #0055B2",
"n  c #005DB4",
"m  c #0055BC",
"M  c #005EBA",
"N  c #0061BC",
"B  c #485E88",
"V  c #446EB4",
"C  c #4471BB",
"Z  c #4873BC",
"A  c #4867A1",
"S  c #004FC7",
"D  c #0052C3",
"F  c #005AC5",
"G  c #0057CD",
"H  c #005DCA",
"J  c #005DD3",
"K  c #0064C3",
"L  c #0065CA",
"P  c #0069CC",
"I  c #086BCE",
"U  c #0064D4",
"Y  c #006DD5",
"T  c #0C6ED4",
"R  c #0065DC",
"E  c #006CDB",
"W  c #0171DC",
"Q  c #0C73DD",
"!  c #1A74DB",
"~  c #3C74C9",
"^  c #2C77DB",
"/  c #2B77DB",
"(  c #357ADC",
")  c #3F7CDA",
"_  c #0067E2",
"`  c #006DE3",
"'  c #006DE8",
"]  c #0174E3",
"[  c #0074EA",
"{  c #0179EB",
"}  c #0876E3",
"|  c #197CEC",
" . c #007CF4",
".. c #007FF9",
"X. c #0076F0",
"o. c #2A7FEB",
"O. c #357DE3",
"+. c #367FE4",
"@. c #4978C9",
"#. c #477BD1",
"$. c #0081FC",
"%. c #2980ED",
"&. c #3883EB",
"*. c #4D82DB",
"=. c #5887DB",
"-. c #5686DB",
";. c #7A92C9",
":. c #638DDC",
">. c #688FDB",
",. c #6A8DD4",
"<. c #6790DF",
"1. c #7597DC",
"2. c #7D9DDE",
"3. c #7B97D5",
"4. c #4A89EC",
"5. c #5D8DE3",
"6. c #538CEA",
"7. c #5E90EB",
"8. c #608EE1",
"9. c #6591E4",
"0. c #6694E7",
"q. c #739BE7",
"w. c #769CE6",
"e. c #7EA0E8",
"r. c #84868C",
"t. c #818693",
"y. c #8490AD",
"u. c #ACAFB3",
"i. c #859ACB",
"p. c #8197CC",
"a. c #809DDB",
"s. c #86A1DC",
"d. c #8BA4DC",
"f. c #8CA2D7",
"g. c #9AAEDB",
"h. c #96ABDA",
"j. c #9DB1DD",
"k. c #AFB4C1",
"l. c #B0B8CF",
"z. c #A4B2D5",
"x. c #A3B4DC",
"c. c #ACBBDB",
"v. c #A7B8DD",
"b. c #B1BEDB",
"n. c #85A3E2",
"m. c #8AA6E3",
"M. c #8FA8E1",
"N. c #93ACE3",
"B. c #9AB0E1",
"V. c #B0BFE3",
"C. c #A5B8E3",
"Z. c #B5C2DB",
"A. c #BAC5DB",
"S. c #BFC8D9",
"D. c #B9C5E2",
"F. c #BAC7EC",
"G. c #BEC9E0",
"H. c #BFCCF1",
"J. c #C5CDDB",
"K. c #CBCFD6",
"L. c #CBD2DC",
"P. c #D0D0D1",
"I. c #D5D9DC",
"U. c #D9DDDE",
"Y. c #D1D5DC",
"T. c #DEE1DF",
"R. c #C5CDE3",
"E. c #C9D1E6",
"W. c #CFD5E9",
"Q. c #D3D9E4",
"!. c #DADEE2",
"~. c #D3DAEB",
"^. c #D5DBEA",
"/. c #C0CEF6",
"(. c #DFE2E3",
"). c #DCE3F7",
"_. c #E2E4E2",
"`. c #E2E5EA",
"'. c #EAECEA",
"]. c #E7E9E7",
"[. c #EFF1EF",
"{. c #F0F2EF",
"}. c #E2E6F1",
"|. c #EBEDF3",
" X c #E4EAF9",
".X c #EFF1F2",
"XX c #EEF1F9",
"oX c #F3F4F4",
"OX c #F2F5FC",
"+X c #F7F9FD",
"@X c #FEFEFE",
/* pixels */
"                                    l n n N K K N n n n n N K K N n n n                         ",
"                                    l l n N K K N n n n n N K K N n M n                         ",
"                                    n n n N K K N n n n n N K K N n n n                         ",
"                                    N N N K L K K N N M N K K K N n n n                         ",
"                                  L L K K L P P L K K K K K K K M b b b z                       ",
"                                Y T T I P Y Y Y Y U L L H F F D c z g g t r                     ",
"                            W W W Q T T Y W W E E R R J J G D c v t r w q 0 9 9                 ",
"                          W W W W Q Q Q Q ] ] ] ` ` _ R J G S x y r w w w w q q q               ",
"                        W W W W ] { ] ] ] ] [ [ [ [ [ ` E U H m z z h z z z z z z z             ",
"                        Y Y W { $... .{ { { | | %.%.&.&.O.) #.@.C C Z @.@.#.@.C C C             ",
"                      K P Y ]  .$.$. .X.{ | %.&.4.6.7.0.0.1.3.3.p.p.i.f.M.N.m.;.;.;.            ",
"                    j M L Y ]  .$... .{ { | &.6.0.q.e.m.N.B.x.v.c.b.b.F.H./.F.z.z.z.            ",
"                $ < s l K P W {  .X.X.[ [ o.4.0.w.n.N.C.V.D.R.E.W.~.^.). X X).R.R.R.            ",
"              + - , a k N P Y ] [ { [ [ [ o.6.q.n.B.c.D.R.W.^.}.|.|.OX+X@X@XOX}.}.}.            ",
"            @ @ - , a k N L Y ] ] [ ' ' [ +.5.w.N.v.A.L.Q.`.|.oX+X@X@X@X@X@X@X+X+X+X            ",
"            @ # - u d n K P Y W ] [ ' ' ] +.9.n.j.b.J.I.(.'.oX+X@X@X@X@X@X@X@X@X@X@X            ",
"            @ # ; u j n K P Y W ] ` ' ' ` +.9.n.j.Z.J.I._.'.{.oX@X@X@X@X@X@X@X@X@X@X            ",
"            @ # - u j n K P Y W ] ` _ _ ` O.9.s.x.A.L.U._.].'.[.oX+X@X@X@X@X@X@X@X@X            ",
"            @ # - u d n K P Y W ] ` _ _ ` O.<.d.v.A.L.I.T._._.].'..X+X@X@X@X@X@X@X@X            ",
"            @ # - < s n K P Y W ] ` _ R E ( <.d.v.A.L.I.U.U.U.!.!.`..X@X@X@X@X@X@X@X            ",
"            @ # - < s l N P Y W ] ` R R R ( :.s.x.Z.J.L.I.Y.L.L.L.Q.`.OX@X@X@X@X@X@X            ",
"            @ # - < s l K P Y W ] ` R R R ( :.a.g.c.A.J.J.J.S.A.A.J.Q.}.+X@X@X+X@X@X            ",
"            @ @ - < a l K P Y W ] ` E R R ^ =.1.d.x.c.Z.Z.Z.c.c.c.b.G.~.}.XX|.].'.'.            ",
"            + @ $ , a l N P Y W ] ` E R Y / *.>.2.d.g.x.x.j.g.h.h.g.v.D.E.Q.Y.P.P.P.            ",
"            O + $ > a k N P Y W ] ] E E Y ! ) -.>.1.a.s.s.s.2.w.2.a.f.h.z.l.k.u.u.u.            ",
"            O + # > a k N P Y W ] ] W E Y ! ^ ) *.=.:.:.:.:.8.5.5.:.,.;.;.y.y.t.r.r.            ",
"            + @ $ , a l N P Y W ] ] W W W W ! ! / ^ ( ( ( ( O.O.O.( ~ ~ V A B 2 1 1             ",
"            $ - : u d n K P Y W ] ] Q Q W W W E Y Y R R E E ` ` E U H m h 7 = X . .             ",
"            > > < a k N L Y W ] ] ] } Q Q W E E E R R R R R R R U H D x r 4 * % X o             ",
"            u u i j N L Y W ] ] ] ] } Q Q W E E E E R R R R R U J H D x t e 3 * & &             ",
"            a a d n P Y W ] ] { { ] ] ] Q W W W E E E E R U U L L F m m z g 8 7 6 5             ",
"            j j k K Y W ] ] ] { { { ] ] W W W W W ] W E Y Y P L K M M M M M b f f f             ",
"            k k n K Y W ] ] { { { [ ] ] W W W W W W W W Y P L K N n n N K K N n n n             ",
"            n n n N P Y W W ] { { ] ] W W W W W W W W Y Y P K N n n n N K K K N N N             ",
"              n N N K P Y W W ] ] ] W W Y Y Y Y W W W Y Y P K N M n n N K P K N N N             ",
"                M K K P Y Y Y W W W W Y Y Y Y Y Y Y Y Y Y P K K N N N K P P K N N N             ",
"                    K P P P P Y W W Y Y Y Y Y Y Y Y Y Y Y P P K K K K K P P K N N N             ",
"                      K K K K P Y Y Y P P P P P P P P P P P P K K K K P P P K N N N             ",
"                        N M N K P P K K K K K K K K K K K K N N N N K K P P K M N N             ",
"                        n n n N K N n n n n n n n n n n n n n n n n n n N K N n n n             ",
"                        n n n n M n n n n n n n n n n n n n n n n n n n l n n k k k             ",
"                        n n n n n n n n n n n l n n n n n n n N n n l k j j j d d d             ",
"                        n n n n n n n n                             k d s a a a i i             ",
"                        n n n n n n n                                 a p u u u u u             ",
"                        n n n n n n                                     > > > > > >             ",
"                        n n n n n n                                     - ; ; ; ; ;             ",
"                        n n n n n n                                     $ - - - - -             ",
"                        n n n n n n                                     $ - - - - -             "
};
