/* XPM */
static char *fca2f53e57a941b98524e32e51ee1af7yNcs9vkJPEFHd1qy[] = {
/* columns rows colors chars-per-pixel */
"48 48 8 1 ",
"  c #301020",
". c #480030",
"X c #780838",
"o c #502848",
"O c #705078",
"+ c #A81840",
"@ c #B85058",
"# c #E09858",
/* pixels */
"###Oo ##@   .X                                  ",
"@#@O  #@@  ..                                   ",
"O#OO  #@O  .                                    ",
"O@Oo @@@o ..                                    ",
"oOOo @@O  .                                     ",
"  Oo @Oo  .                                     ",
"o oo @oo .  ..                                  ",
"O  o O   .  .                                   ",
"Oo   o   .  .                                   ",
"@O       ++X.                                   ",
"@@o    X++X..                                   ",
"@#@Oo  X+X..                                    ",
"O#@Oo  XXX.                                     ",
"O@#@o  .X                                       ",
"  @@O   .                                       ",
"    Oo    .                                     ",
"###Oo ##@   .X                                  ",
"@#@O  #@@  ..                                   ",
"O#OO  #@O  .                                    ",
"O@Oo @@@o ..                                    ",
"oOOo @@O  .                                     ",
"  Oo @Oo  .                                     ",
"o oo @oo .  ..                                  ",
"O  o O   .  .                                   ",
"Oo   o   .  .                                   ",
"@O       ++X.                                   ",
"@@o    X++X..                                   ",
"@#@Oo  X+X..                                    ",
"O#@Oo  XXX.                                     ",
"O@#@o  .X                                       ",
"  @@O   .                                       ",
"    Oo    .                                     ",
"###Oo ##@   .X                                  ",
"@#@O  #@@  ..                                   ",
"O#OO  #@O  .                                    ",
"O@Oo @@@o ..                                    ",
"oOOo @@O  .                                     ",
"  Oo @Oo  .                                     ",
"o oo @oo .  ..                                  ",
"O  o O   .  .                                   ",
"Oo   o   .  .                                   ",
"@O       ++X.                                   ",
"@@o    X++X..                                   ",
"@#@Oo  X+X..                                    ",
"O#@Oo  XXX.                                     ",
"O@#@o  .X                                       ",
"  @@O   .                                       ",
"    Oo    .                                     "
};
