/* XPM */
static char *_cf805eac92a4ba9f24beca5c27c191ajircPeBbOcM1aMb2[] = {
/* columns rows colors chars-per-pixel */
"48 48 8 1 ",
"  c #301020",
". c #480030",
"X c #780838",
"o c #502848",
"O c #705078",
"+ c #A81840",
"@ c #B85058",
"# c #E09858",
/* pixels */
"                                  X.   @## oO###",
"                                   ..  @@#  O@#@",
"                                    .  O@#  OO#O",
"                                    .. o@@@ oO@O",
"                                     .  O@@ oOOo",
"                                     .  oO@ oO  ",
"                                  ..  . oo@ oo o",
"                                   .  .   O o  O",
"                                   .  .   o   oO",
"                                   .X++       O@",
"                                   ..X++X    o@@",
"                                    ..X+X  oO@#@",
"                                     .XXX  oO@#O",
"                                       X.  o@#@O",
"                                       .   O@@  ",
"                                     .    oO    ",
"                                  X.   @## oO###",
"                                   ..  @@#  O@#@",
"                                    .  O@#  OO#O",
"                                    .. o@@@ oO@O",
"                                     .  O@@ oOOo",
"                                     .  oO@ oO  ",
"                                  ..  . oo@ oo o",
"                                   .  .   O o  O",
"                                   .  .   o   oO",
"                                   .X++       O@",
"                                   ..X++X    o@@",
"                                    ..X+X  oO@#@",
"                                     .XXX  oO@#O",
"                                       X.  o@#@O",
"                                       .   O@@  ",
"                                     .    oO    ",
"                                  X.   @## oO###",
"                                   ..  @@#  O@#@",
"                                    .  O@#  OO#O",
"                                    .. o@@@ oO@O",
"                                     .  O@@ oOOo",
"                                     .  oO@ oO  ",
"                                  ..  . oo@ oo o",
"                                   .  .   O o  O",
"                                   .  .   o   oO",
"                                   .X++       O@",
"                                   ..X++X    o@@",
"                                    ..X+X  oO@#@",
"                                     .XXX  oO@#O",
"                                       X.  o@#@O",
"                                       .   O@@  ",
"                                     .    oO    "
};
