/* XPM */
static char *b2ca1e32e72742c49fcba4b12d3929d4XpQWGAgxtRTHizyb[] = {
/* columns rows colors chars-per-pixel */
"48 48 8 1 ",
"  c #301020",
". c #480030",
"X c #780838",
"o c #502848",
"O c #705078",
"+ c #A81840",
"@ c #B85058",
"# c #E09858",
/* pixels */
"###Oo ##@   .X                    X.   @## oO###",
"@#@O  #@@  ..                      ..  @@#  O@#@",
"O#OO  #@O  .                        .  O@#  OO#O",
"O@Oo @@@o ..                        .. o@@@ oO@O",
"oOOo @@O  .                          .  O@@ oOOo",
"  Oo @Oo  .                          .  oO@ oO  ",
"o oo @oo .  ..                    ..  . oo@ oo o",
"O  o O   .  .                      .  .   O o  O",
"Oo   o   .  .                      .  .   o   oO",
"@O       ++X.                      .X++       O@",
"@@o    X++X..                      ..X++X    o@@",
"@#@Oo  X+X..                        ..X+X  oO@#@",
"O#@Oo  XXX.                          .XXX  oO@#O",
"O@#@o  .X                              X.  o@#@O",
"  @@O   .                              .   O@@  ",
"    Oo    .                          .    oO    ",
"###Oo ##@   .X                    X.   @## oO###",
"@#@O  #@@  ..                      ..  @@#  O@#@",
"O#OO  #@O  .                        .  O@#  OO#O",
"O@Oo @@@o ..                        .. o@@@ oO@O",
"oOOo @@O  .                          .  O@@ oOOo",
"  Oo @Oo  .                          .  oO@ oO  ",
"o oo @oo .  ..                    ..  . oo@ oo o",
"O  o O   .  .                      .  .   O o  O",
"Oo   o   .  .                      .  .   o   oO",
"@O       ++X.                      .X++       O@",
"@@o    X++X..                      ..X++X    o@@",
"@#@Oo  X+X..                        ..X+X  oO@#@",
"O#@Oo  XXX.                          .XXX  oO@#O",
"O@#@o  .X                              X.  o@#@O",
"  @@O   .                              .   O@@  ",
"    Oo    .                          .    oO    ",
"###Oo ##@   .X                    X.   @## oO###",
"@#@O  #@@  ..                      ..  @@#  O@#@",
"O#OO  #@O  .                        .  O@#  OO#O",
"O@Oo @@@o ..                        .. o@@@ oO@O",
"oOOo @@O  .                          .  O@@ oOOo",
"  Oo @Oo  .                          .  oO@ oO  ",
"o oo @oo .  ..                    ..  . oo@ oo o",
"O  o O   .  .                      .  .   O o  O",
"Oo   o   .  .                      .  .   o   oO",
"@O       ++X.                      .X++       O@",
"@@o    X++X..                      ..X++X    o@@",
"@#@Oo  X+X..                        ..X+X  oO@#@",
"O#@Oo  XXX.                          .XXX  oO@#O",
"O@#@o  .X                              X.  o@#@O",
"  @@O   .                              .   O@@  ",
"    Oo    .                          .    oO    "
};
