/* XPM */
static char *_08ecbac69f74d81e25e1a72b26cde6bzYQXmMakuDdWRmSX[] = {
/* columns rows colors chars-per-pixel */
"48 48 10 1 ",
"  c #240C18",
". c #370024",
"X c #3E1C38",
"o c #63002A",
"O c #5C3C65",
"+ c #950031",
"@ c #D63932",
"# c #A73B46",
"$ c #D78647",
"% c #F6EEBC",
/* pixels */
"#$#OX $$#X  .o                                  ",
"#$#O  $$#O   .o                                 ",
"###X #$$#O   .+                                 ",
"O#O  #$$#OX  .o                                 ",
"O#O  #$$##X  o                                  ",
"O#X  #%$##X ..                                  ",
"XO  #$%$##X                                     ",
"XO O#$%$#OX                                     ",
"XX O#$$$#O   .                                  ",
"XX #$$$#OX  ..                                  ",
" X #$$$#O  o..                                  ",
"  #$$$#OO  o.                                   ",
" O$$$#OX  +.                        .....       ",
" O###OX   o          .++.          .o    .      ",
"O##OXX    o         .o  o.       ..o     o.     ",
"OOO       .        ..    o..     .o       o     ",
"    OX    .        .       ..   ..o       o.    ",
"  ##O              .            .     .    +.   ",
"O#$#X                           .    ...    o.. ",
"O$#OX                 .oo      .    .oo...    ..",
"#$#OX                ....      .     .oo..      ",
"##X        OOX      .   .                       ",
"#O       #OX                X          ...   ooo",
"OX     ##X       ......     X        .o++oo    .",
"O    ###X        .oo....    XX       o    .o    ",
"X  #$##O         ..+oo...    XO .   o.     .o   ",
"  #$$#O   OOOO    ..++oo.    XOXoo...        .  ",
" #$$##   ##O       .   ..    XOXooo           . ",
"O$$$#O  ##O                  XOO..o.   ........ ",
"O$$#O  O#O   .O     ....    XX#O ...  .o+@@@++o.",
"O###O  OO   #O .  ....oo..XXO##O.  .  .o.. ...oo",
"####O     ###O   ...oo++oXXXO#O..     o.       .",
"#$##O    ##$#    ...o++++XXO##O...   ..         ",
"#$##OOO##$$##   ...oo+@@+XO###O.o.  ..    .X    ",
"#$$#####$$$#OOO X..oo+@@+X##$#.oo...    ..X  +oo",
"#$$$##$$$$$#OO  OX.ooo++oX##$#.o+......XXO  +.  ",
"#$%$$$$$$$##OOOO#OOXXooooX##$#oo+ooXXXXOO   o.  ",
"#$%%$$$$$##O#OOO####OXX.X##$$#o+@+oXXOO#O.....X ",
"#$%%$$$$$########$$$###OO#$$$#oo+ooXO##O..oo..XX",
"#$$$$$%$$$$$####X#$$$$$##$$%$#XoXX###$Ooooooo..X",
"#$%%%%%$$$$$$$##OX##$$$$$$%%$##X###$$Oooo++oo...",
"#$%%%%%$$$$$$$$##OX##$$$$%%%$$###$$$#o++@++ooXXX",
"#$%%%%%%$$$$$$$$##OXX##$%%%%%$$$$$$$#XX+@@oXX###",
"#$$%%%%%%%%%%%$$######$$$$$$%%$$$$$$$##XXXX##$$$",
"O#$%%%%%%%%%%%%%$##$$$$####$$$%%%%%$$$$####$$###",
"X#$$%%%%%%%%%%%%$$$$$$$$$#OO#$$%%%%%%$$$$$$##XXX",
"XO#$$$$%%%%%%%$$$$%%%%%$$$#O##$$%%%%%%%%$$$$OOO#",
"XXO###$$$$$$$$$$$$$$%%$$$##OO##$$$%%%$$$$$##X##$"
};
