/* XPM */
static char *_5cfdc880dfe4d919dc334fe9fa037d6Gahvo1EmqqU8w03e[] = {
/* columns rows colors chars-per-pixel */
"48 48 10 1 ",
"  c #240C18",
". c #370024",
"X c #3E1C38",
"o c #63002A",
"O c #5C3C65",
"+ c #950031",
"@ c #D63932",
"# c #A73B46",
"$ c #D78647",
"% c #F6EEBC",
/* pixels */
"                                  o.  X#$$ XO#$#",
"                                 o.   O#$$  O#$#",
"                                 +.   O#$$# X###",
"                                 o.  XO#$$#  O#O",
"                                  o  X##$$#  O#O",
"                                  .. X##$%#  X#O",
"                                     X##$%$#  OX",
"                                     XO#$%$#O OX",
"                                  .   O#$$$#O XX",
"                                  ..  XO#$$$# XX",
"                                  ..o  O#$$$# X ",
"             .                     .o  OO#$$$#  ",
"             .                      .+  XO#$$$O ",
"             .       .++.            o   XO###O ",
"           .  o     .o  o.           o    XXO##O",
"       .   ..  o   ..    o..         .       OOO",
"       .. oo..     .       ..        .    XO    ",
"       o.  +o..    .                       O##  ",
"     o  +.  +o..                           X#$#O",
"     o.  +.  o..      .oo      .           XO#$O",
"     o+.  +.         ....      .           XO#$#",
"     o+..  o...     .   .         XOO        X##",
"o+    +@..                  X       XO#       O#",
".ooo   ++..      ......     X         X##     XO",
"...++   +oo...   .oo....    XX         X###    O",
" . ..+   ooo     ..+oo...    XO         O##$#  X",
"  . .@            ..++oo.    XOX  OOOO   O#$$#  ",
"   ..+@            .   ..    XOX    O##   ##$$# ",
"   ...+                      XOO     O##  O#$$$O",
"    ..o             ....    XX#O O.   O#O  O#$$O",
".  . .o           ....oo..XXO##O. O#   OO  O###O",
"o   ..o      OXX ...oo++oXXXO#O.  O###     O####",
"o. ...      OX   ...o++++XXO##O.   #$##    O##$#",
".o XXO##   #XX  ...oo+@@+XO###O.   ##$$##OOO##$#",
".o     X#  #X OXX..oo+@@+X##$#.o OOO#$$$#####$$#",
" ..     XO #X ##OX.ooo++oX##$#.o  OO#$$$$$##$$$#",
"   .     XX#X  $#OOXXooooX##$#ooOOOO##$$$$$$$%$#",
"    .   XX#OXXX#####OXX.X##$$#o+OOO#O##$$$$$%%$#",
"XXX   XXX#XOOXXX#$$$###OO#$$$#oo#######$$$$$%%$#",
"XXXXXO###XXX#OXXX#$$$$$##$$%$#Xo####$$$$$%$$$$$#",
".XOO##$$#XXXX#OOOX##$$$$$$%%$##X##$$$$$$$%%%%%$#",
"##$$$$#$$##XXX###OX##$$$$%%%$$###$$$$$$$$%%%%%$#",
"$$$$####$$$##XXX##OXX##$%%%%%$$$$$$$$$$$%%%%%%$#",
"$##XXOO###$$$#########$$$$$$%%$$$$%%%%%%%%%%%$$#",
"XXXXXXOO####$$$$$##$$$$####$$$%%%%%%%%%%%%%%%$#O",
"XX#######OO###$$$$$$$$$$$#OO#$$%%%%%%%%%%%%%$$#X",
"##$$$$$#OOXOO###$$%%%%%$$$#O##$$$$%%%%%%%$$$$#OX",
"$$$$###OOXXOOO##$$$$%%$$$##OO##$$$$$$$$$$$###OXX"
};
