/* XPM */
static char *_89b14109c284b15f1fceb3d259b5b0b6asov9R4Xg39EXn0[] = {
/* columns rows colors chars-per-pixel */
"48 48 10 1 ",
"  c #240C18",
". c #370024",
"X c #3E1C38",
"o c #63002A",
"O c #5C3C65",
"+ c #950031",
"@ c #D63932",
"# c #A73B46",
"$ c #D78647",
"% c #F6EEBC",
/* pixels */
"                                                ",
"                                                ",
"                                                ",
"                                                ",
"                                                ",
"                                                ",
"                                                ",
"                                                ",
"                                                ",
"                                                ",
"                                                ",
"             .                                  ",
"             .                      .....       ",
"             .       .++.          .o    .      ",
"           .  o     .o  o.       ..o     o.     ",
"       .   ..  o   ..    o..     .o       o     ",
"       .. oo..     .       ..   ..o       o.    ",
"       o.  +o..    .            .     .    +.   ",
"     o  +.  +o..                .    ...    o.. ",
"     o.  +.  o..      .oo      .    .oo...    ..",
"     o+.  +.         ....      .     .oo..      ",
"     o+..  o...     .   .                       ",
"o+    +@..                  X          ...   ooo",
".ooo   ++..      ......     X        .o++oo    .",
"...++   +oo...   .oo....    XX       o    .o    ",
" . ..+   ooo     ..+oo...    XO .   o.     .o   ",
"  . .@            ..++oo.    XOXoo...        .  ",
"   ..+@            .   ..    XOXooo           . ",
"   ...+                      XOO..o.   ........ ",
"    ..o             ....    XX#O ...  .o+@@@++o.",
".  . .o           ....oo..XXO##O.  .  .o.. ...oo",
"o   ..o      OXX ...oo++oXXXO#O..     o.       .",
"o. ...      OX   ...o++++XXO##O...   ..         ",
".o XXO##   #XX  ...oo+@@+XO###O.o.  ..    .X    ",
".o     X#  #X OXX..oo+@@+X##$#.oo...    ..X  +oo",
" ..     XO #X ##OX.ooo++oX##$#.o+......XXO  +.  ",
"   .     XX#X  $#OOXXooooX##$#oo+ooXXXXOO   o.  ",
"    .   XX#OXXX#####OXX.X##$$#o+@+oXXOO#O.....X ",
"XXX   XXX#XOOXXX#$$$###OO#$$$#oo+ooXO##O..oo..XX",
"XXXXXO###XXX#OXXX#$$$$$##$$%$#XoXX###$Ooooooo..X",
".XOO##$$#XXXX#OOOX##$$$$$$%%$##X###$$Oooo++oo...",
"##$$$$#$$##XXX###OX##$$$$%%%$$###$$$#o++@++ooXXX",
"$$$$####$$$##XXX##OXX##$%%%%%$$$$$$$#XX+@@oXX###",
"$##XXOO###$$$#########$$$$$$%%$$$$$$$##XXXX##$$$",
"XXXXXXOO####$$$$$##$$$$####$$$%%%%%$$$$####$$###",
"XX#######OO###$$$$$$$$$$$#OO#$$%%%%%%$$$$$$##XXX",
"##$$$$$#OOXOO###$$%%%%%$$$#O##$$%%%%%%%%$$$$OOO#",
"$$$$###OOXXOOO##$$$$%%$$$##OO##$$$%%%$$$$$##X##$"
};
